<?xml version="1.0" encoding="utf-8"?>
<!-- Generator: Adobe Illustrator 23.0.0, SVG Export Plug-In . SVG Version: 6.00 Build 0)  -->
<svg version="1.1" id="Calque_1" xmlns="http://www.w3.org/2000/svg" xmlns:xlink="http://www.w3.org/1999/xlink" x="0px" y="0px"
	 viewBox="0 0 80 50" style="enable-background:new 0 0 80 50;" xml:space="preserve">
<style type="text/css">
	.st0{fill:none;}
	.st1{fill:#FFFFFF;}
</style>
<rect class="st0" width="80" height="50"/>
<g>
	<path class="st1" d="M63.6,30.3c0-10-6.3-12.8-10-13.7c2.2-3.4,4.1-6.6,5.4-9.3c1.7-3.7,1.9-5.6,0.8-6.4c-0.2-0.2-0.5-0.3-0.9-0.3
		c-2.9,0-9.3,8.1-12.6,12.8c0,0-0.1,0.1-0.1,0.1c0-0.7,0.1-1.3,0.2-1.6l0.1-0.2c0.6-2.3,0.3-4.3-0.9-5.9c-2.3-3-7.2-3.2-7.4-3.2
		c-14.9,0-20,10.3-20.2,10.7c-1.8,3.5-2.8,7.3-2.8,11.3C15.2,38.7,26.8,50,40.9,50c6.9,0,13-2.2,17-6.3C63.9,37.7,63.7,31,63.6,30.3
		z M58.8,2.4C58.9,3.7,57,8.9,51.4,17c-1.1,1.6-2.1,3-3.2,4.3L45,18.8c0.8-1.3,1.7-2.8,2.8-4.3C53,7.1,57.5,2.8,58.8,2.4z
		 M43.6,26.5L41.7,25c0.6-1.3,1.4-2.9,2.5-4.7l3,2.3C45.8,24.2,44.6,25.5,43.6,26.5z M56.1,41.9c-3.5,3.5-8.9,5.5-15.1,5.5
		c-12.7,0-23.1-10.1-23.1-22.5c0-3.6,0.8-7,2.5-10.2c0-0.1,4.6-9.2,17.9-9.2c0,0,3.9,0.1,5.4,2.2c0.7,0.9,0.9,2.1,0.5,3.6
		c-0.2,0.5-0.9,2.8,0.2,4.9c0,0.1,0.1,0.2,0.2,0.2c-1.8,2.8-3.3,5.5-4.4,7.8c-0.1,0.1-0.1,0.2-0.2,0.3c-1.4,0.3-3.8,1.5-4.2,5.5
		c0,0-0.4,3.4-2.1,4.2c0,0,4.8,1.7,8.5-1.3c0,0,1.9-1.6,1.8-4.3C45.6,27,47.4,25,49,23c0,0,0,0,0.1-0.1c0,0,0,0,0-0.1
		c1.1-1.4,2.1-2.7,3-3.9c0,0,0.1,0,0.1,0c3.3,0.5,8.8,2.7,8.8,11.4l0,0.1C61.1,30.7,61.4,36.6,56.1,41.9z"/>
	<path class="st1" d="M33.2,19.1c2.4,0,4.4-1.8,4.4-4s-2-4-4.4-4c-2.4,0-4.4,1.8-4.4,4S30.8,19.1,33.2,19.1z M33.2,12.8
		c1.5,0,2.6,1,2.6,2.3c0,1.3-1.2,2.3-2.6,2.3c-1.5,0-2.6-1-2.6-2.3C30.6,13.8,31.8,12.8,33.2,12.8z"/>
	<path class="st1" d="M26.5,31.2c-1.6-0.7-3.4-0.1-4,1.7c-0.5,1.6-0.3,3.4,1.4,4.1c1.3,0.5,3.2-0.2,4.4-0.7c1.1-0.5,0.5-2.4,0-3.2
		C27.7,32.2,27.3,31.6,26.5,31.2z"/>
	<path class="st1" d="M34,38.5c-0.8,0-1.6,0-2.3-0.3c-0.7-0.2-1.4-0.9-1.8,0.2c-0.3,0.8,0.4,2.1,0.8,2.8c0.6,0.8,1.5,1.5,2.4,1.9
		c0.9,0.4,2.6,0.8,3.5,0.3c0.9-0.5,1.2-2.1,1-3C37.3,38.6,35.4,38.5,34,38.5z"/>
	<path class="st1" d="M48.7,37c-1.8,0.1-3.4,0.3-4.9,1.4c-0.5,0.4-1.4,0.8-1.6,1.5c-0.3,0.9,0,2.2,0.5,3c0.7,1.2,2.5,1.1,3.6,0.8
		c1.3-0.3,1.4-1.8,2.4-2.6c0.7-0.6,2.1-1.3,2.3-2.3C51.1,37.5,49.7,36.9,48.7,37z"/>
	<path class="st1" d="M53.3,30.6c-0.3,0.9-0.4,1.9-0.4,2.9c0,1.4,0.3,4.8,2.4,4.1c2.2-0.7,3.4-4,3.4-6
		C58.7,28.9,54.2,28.1,53.3,30.6z"/>
	<path class="st1" d="M54.7,26.8c0.3-0.3,0.7-0.4,0.9-0.7c0.4-0.5,0.3-1.1,0-1.7c-0.5-1.1-1.9-1.9-3.1-2c-0.9-0.1-2.6,0.6-2.1,1.8
		c0.1,0.3,0.5,0.6,0.6,0.9c0.3,0.5,0.4,1,0.8,1.4c0.4,0.5,1.5,0.9,2.1,0.9C54.5,27.3,54.3,27.1,54.7,26.8z"/>
</g>
</svg>
