<?xml version="1.0" encoding="utf-8"?>
<!-- Generator: Adobe Illustrator 23.0.2, SVG Export Plug-In . SVG Version: 6.00 Build 0)  -->
<svg version="1.1" id="Calque_1" xmlns="http://www.w3.org/2000/svg" xmlns:xlink="http://www.w3.org/1999/xlink" x="0px" y="0px"
	 viewBox="0 0 80 50" style="enable-background:new 0 0 80 50;" xml:space="preserve">
<style type="text/css">
	.st0{fill:none;}
	.st1{fill:#FFFFFF;}
	.st2{opacity:0.5;fill:#FFFFFF;enable-background:new    ;}
	.st3{clip-path:url(#SVGID_2_);}
	.st4{clip-path:url(#SVGID_4_);}
	.st5{clip-path:url(#SVGID_6_);}
	.st6{clip-path:url(#SVGID_8_);}
	.st7{clip-path:url(#SVGID_10_);}
	.st8{clip-path:url(#SVGID_12_);}
	.st9{clip-path:url(#SVGID_14_);}
	.st10{clip-path:url(#SVGID_16_);}
	.st11{clip-path:url(#SVGID_20_);}
	.st12{clip-path:url(#SVGID_24_);}
	.st13{clip-path:url(#SVGID_28_);}
	.st14{clip-path:url(#SVGID_32_);}
	.st15{clip-path:url(#SVGID_34_);}
	.st16{clip-path:url(#SVGID_36_);}
	.st17{clip-path:url(#SVGID_38_);}
	.st18{clip-path:url(#SVGID_40_);}
	.st19{clip-path:url(#SVGID_42_);}
	.st20{clip-path:url(#SVGID_44_);}
	.st21{clip-path:url(#SVGID_46_);}
	.st22{clip-path:url(#SVGID_48_);}
	.st23{clip-path:url(#SVGID_50_);}
	.st24{clip-path:url(#SVGID_52_);}
	.st25{clip-path:url(#SVGID_54_);}
	.st26{clip-path:url(#SVGID_56_);}
	.st27{clip-path:url(#SVGID_58_);}
	.st28{clip-path:url(#SVGID_60_);}
	.st29{clip-path:url(#SVGID_62_);}
	.st30{fill:#022C5E;}
	.st31{clip-path:url(#SVGID_64_);}
	.st32{clip-path:url(#SVGID_66_);}
	.st33{clip-path:url(#SVGID_68_);}
	.st34{clip-path:url(#SVGID_70_);}
	.st35{clip-path:url(#SVGID_72_);}
	.st36{clip-path:url(#SVGID_74_);}
	.st37{clip-path:url(#SVGID_76_);}
	.st38{clip-path:url(#SVGID_78_);}
	.st39{clip-path:url(#SVGID_80_);}
	.st40{clip-path:url(#SVGID_82_);}
	.st41{clip-path:url(#SVGID_84_);}
	.st42{clip-path:url(#SVGID_86_);}
	.st43{clip-path:url(#SVGID_88_);}
	.st44{clip-path:url(#SVGID_90_);}
	.st45{clip-path:url(#SVGID_92_);}
	.st46{clip-path:url(#SVGID_94_);}
	.st47{clip-path:url(#SVGID_96_);}
	.st48{clip-path:url(#SVGID_98_);}
	.st49{clip-path:url(#SVGID_100_);}
	.st50{clip-path:url(#SVGID_102_);}
	.st51{clip-path:url(#SVGID_104_);}
	.st52{clip-path:url(#SVGID_106_);}
	.st53{clip-path:url(#SVGID_108_);}
	.st54{clip-path:url(#SVGID_110_);}
	.st55{clip-path:url(#SVGID_112_);}
	.st56{clip-path:url(#SVGID_114_);}
	.st57{clip-path:url(#SVGID_116_);}
</style>
<rect class="st0" width="80" height="50"/>
<g>
	<g>
		<g>
			<polygon class="st1" points="16.4,49.7 12.4,46.2 8.6,49.7 8.6,40.6 16.4,40.6 			"/>
		</g>
	</g>
</g>
<rect x="15.1" y="8.3" class="st1" width="9.7" height="32.9"/>
<rect x="24.7" y="8.3" class="st2" width="9.7" height="32.9"/>
<g>
	<g>
		<g>
			<g>
				<rect id="SVGID_17_" x="7.9" y="2.7" class="st1" width="22.6" height="1.3"/>
			</g>
			<g>
				<defs>
					<rect id="SVGID_1_" x="7.9" y="2.7" width="22.6" height="1.3"/>
				</defs>
				<clipPath id="SVGID_2_">
					<use xlink:href="#SVGID_1_"  style="overflow:visible;"/>
				</clipPath>
				<g class="st3">
					<g>
						<rect x="26.7" y="-6.7" class="st1" width="12.9" height="12.9"/>
					</g>
				</g>
			</g>
			<g>
				<defs>
					<rect id="SVGID_3_" x="7.9" y="2.7" width="22.6" height="1.3"/>
				</defs>
				<clipPath id="SVGID_4_">
					<use xlink:href="#SVGID_3_"  style="overflow:visible;"/>
				</clipPath>
				<g class="st4">
					<g>
						<rect x="13.8" y="-6.7" class="st1" width="12.9" height="12.9"/>
					</g>
				</g>
			</g>
			<g>
				<defs>
					<rect id="SVGID_5_" x="7.9" y="2.7" width="22.6" height="1.3"/>
				</defs>
				<clipPath id="SVGID_6_">
					<use xlink:href="#SVGID_5_"  style="overflow:visible;"/>
				</clipPath>
				<g class="st5">
					<g>
						<rect x="0.9" y="-6.7" class="st1" width="12.9" height="12.9"/>
					</g>
				</g>
			</g>
		</g>
	</g>
</g>
<g>
	<g>
		<g>
			<g>
				<rect id="SVGID_19_" x="8.5" y="5" class="st1" width="23" height="1.3"/>
			</g>
			<g>
				<defs>
					<rect id="SVGID_7_" x="8.5" y="5" width="23" height="1.3"/>
				</defs>
				<clipPath id="SVGID_8_">
					<use xlink:href="#SVGID_7_"  style="overflow:visible;"/>
				</clipPath>
				<g class="st6">
					<g>
						<rect x="26.7" y="-6.7" class="st1" width="12.9" height="12.9"/>
					</g>
				</g>
			</g>
			<g>
				<defs>
					<rect id="SVGID_9_" x="8.5" y="5" width="23" height="1.3"/>
				</defs>
				<clipPath id="SVGID_10_">
					<use xlink:href="#SVGID_9_"  style="overflow:visible;"/>
				</clipPath>
				<g class="st7">
					<g>
						<rect x="26.7" y="6.2" class="st1" width="12.9" height="12.9"/>
					</g>
				</g>
			</g>
			<g>
				<defs>
					<rect id="SVGID_11_" x="8.5" y="5" width="23" height="1.3"/>
				</defs>
				<clipPath id="SVGID_12_">
					<use xlink:href="#SVGID_11_"  style="overflow:visible;"/>
				</clipPath>
				<g class="st8">
					<g>
						<rect x="13.8" y="-6.7" class="st1" width="12.9" height="12.9"/>
					</g>
				</g>
			</g>
			<g>
				<defs>
					<rect id="SVGID_13_" x="8.5" y="5" width="23" height="1.3"/>
				</defs>
				<clipPath id="SVGID_14_">
					<use xlink:href="#SVGID_13_"  style="overflow:visible;"/>
				</clipPath>
				<g class="st9">
					<g>
						<rect x="13.8" y="6.2" class="st1" width="12.9" height="12.9"/>
					</g>
				</g>
			</g>
			<g>
				<defs>
					<rect id="SVGID_15_" x="8.5" y="5" width="23" height="1.3"/>
				</defs>
				<clipPath id="SVGID_16_">
					<use xlink:href="#SVGID_15_"  style="overflow:visible;"/>
				</clipPath>
				<g class="st10">
					<g>
						<rect x="0.9" y="-6.7" class="st1" width="12.9" height="12.9"/>
					</g>
				</g>
			</g>
			<g>
				<defs>
					<rect id="SVGID_18_" x="8.5" y="5" width="23" height="1.3"/>
				</defs>
				<clipPath id="SVGID_20_">
					<use xlink:href="#SVGID_18_"  style="overflow:visible;"/>
				</clipPath>
				<g class="st11">
					<g>
						<rect x="0.9" y="6.2" class="st1" width="12.9" height="12.9"/>
					</g>
				</g>
			</g>
		</g>
	</g>
</g>
<g>
	<g>
		<g>
			<g>
				<path id="SVGID_21_" class="st1" d="M35,8.6H8.3C6,8.6,4.2,6.7,4.2,4.5V4.4c0-2.3,1.8-4.1,4.1-4.1h23.3v1.2H8.3
					c-1.6,0-2.9,1.3-2.9,2.9v0.1c0,1.6,1.3,2.9,2.9,2.9H35V8.6z"/>
			</g>
			<g>
				<defs>
					<path id="SVGID_22_" d="M35,8.6H8.3C6,8.6,4.2,6.7,4.2,4.5V4.4c0-2.3,1.8-4.1,4.1-4.1h23.3v1.2H8.3c-1.6,0-2.9,1.3-2.9,2.9v0.1
						c0,1.6,1.3,2.9,2.9,2.9H35V8.6z"/>
				</defs>
				<clipPath id="SVGID_24_">
					<use xlink:href="#SVGID_22_"  style="overflow:visible;"/>
				</clipPath>
				<g class="st12">
					<g>
						<rect x="26.7" y="-6.7" class="st1" width="12.9" height="12.9"/>
					</g>
				</g>
			</g>
			<g>
				<defs>
					<path id="SVGID_26_" d="M35,8.6H8.3C6,8.6,4.2,6.7,4.2,4.5V4.4c0-2.3,1.8-4.1,4.1-4.1h23.3v1.2H8.3c-1.6,0-2.9,1.3-2.9,2.9v0.1
						c0,1.6,1.3,2.9,2.9,2.9H35V8.6z"/>
				</defs>
				<clipPath id="SVGID_28_">
					<use xlink:href="#SVGID_26_"  style="overflow:visible;"/>
				</clipPath>
				<g class="st13">
					<g>
						<rect x="26.7" y="6.2" class="st1" width="12.9" height="12.9"/>
					</g>
				</g>
			</g>
			<g>
				<defs>
					<path id="SVGID_30_" d="M35,8.6H8.3C6,8.6,4.2,6.7,4.2,4.5V4.4c0-2.3,1.8-4.1,4.1-4.1h23.3v1.2H8.3c-1.6,0-2.9,1.3-2.9,2.9v0.1
						c0,1.6,1.3,2.9,2.9,2.9H35V8.6z"/>
				</defs>
				<clipPath id="SVGID_32_">
					<use xlink:href="#SVGID_30_"  style="overflow:visible;"/>
				</clipPath>
				<g class="st14">
					<g>
						<rect x="13.8" y="-6.7" class="st1" width="12.9" height="12.9"/>
					</g>
				</g>
			</g>
			<g>
				<defs>
					<path id="SVGID_33_" d="M35,8.6H8.3C6,8.6,4.2,6.7,4.2,4.5V4.4c0-2.3,1.8-4.1,4.1-4.1h23.3v1.2H8.3c-1.6,0-2.9,1.3-2.9,2.9v0.1
						c0,1.6,1.3,2.9,2.9,2.9H35V8.6z"/>
				</defs>
				<clipPath id="SVGID_34_">
					<use xlink:href="#SVGID_33_"  style="overflow:visible;"/>
				</clipPath>
				<g class="st15">
					<g>
						<rect x="13.8" y="6.2" class="st1" width="12.9" height="12.9"/>
					</g>
				</g>
			</g>
			<g>
				<defs>
					<path id="SVGID_35_" d="M35,8.6H8.3C6,8.6,4.2,6.7,4.2,4.5V4.4c0-2.3,1.8-4.1,4.1-4.1h23.3v1.2H8.3c-1.6,0-2.9,1.3-2.9,2.9v0.1
						c0,1.6,1.3,2.9,2.9,2.9H35V8.6z"/>
				</defs>
				<clipPath id="SVGID_36_">
					<use xlink:href="#SVGID_35_"  style="overflow:visible;"/>
				</clipPath>
				<g class="st16">
					<g>
						<rect x="0.9" y="-6.7" class="st1" width="12.9" height="12.9"/>
					</g>
				</g>
			</g>
			<g>
				<defs>
					<path id="SVGID_37_" d="M35,8.6H8.3C6,8.6,4.2,6.7,4.2,4.5V4.4c0-2.3,1.8-4.1,4.1-4.1h23.3v1.2H8.3c-1.6,0-2.9,1.3-2.9,2.9v0.1
						c0,1.6,1.3,2.9,2.9,2.9H35V8.6z"/>
				</defs>
				<clipPath id="SVGID_38_">
					<use xlink:href="#SVGID_37_"  style="overflow:visible;"/>
				</clipPath>
				<g class="st17">
					<g>
						<rect x="0.9" y="6.2" class="st1" width="12.9" height="12.9"/>
					</g>
				</g>
			</g>
		</g>
	</g>
</g>
<g>
	<g>
		<g>
			<g>
				<path id="SVGID_23_" class="st1" d="M35.6,41.8H8.3c-2.3,0-4.1-1.8-4.1-4.1V4.4h1.2v33.3c0,1.6,1.3,2.9,2.9,2.9h26.1V7.4h1.2
					C35.6,7.4,35.6,41.8,35.6,41.8z"/>
			</g>
			<g>
				<defs>
					<path id="SVGID_39_" d="M35.6,41.8H8.3c-2.3,0-4.1-1.8-4.1-4.1V4.4h1.2v33.3c0,1.6,1.3,2.9,2.9,2.9h26.1V7.4h1.2
						C35.6,7.4,35.6,41.8,35.6,41.8z"/>
				</defs>
				<clipPath id="SVGID_40_">
					<use xlink:href="#SVGID_39_"  style="overflow:visible;"/>
				</clipPath>
				<g class="st18">
					<g>
						<rect x="26.7" y="-6.7" class="st1" width="12.9" height="12.9"/>
					</g>
				</g>
			</g>
			<g>
				<defs>
					<path id="SVGID_41_" d="M35.6,41.8H8.3c-2.3,0-4.1-1.8-4.1-4.1V4.4h1.2v33.3c0,1.6,1.3,2.9,2.9,2.9h26.1V7.4h1.2
						C35.6,7.4,35.6,41.8,35.6,41.8z"/>
				</defs>
				<clipPath id="SVGID_42_">
					<use xlink:href="#SVGID_41_"  style="overflow:visible;"/>
				</clipPath>
				<g class="st19">
					<g>
						<rect x="26.7" y="6.2" class="st1" width="12.9" height="12.9"/>
					</g>
				</g>
			</g>
			<g>
				<defs>
					<path id="SVGID_43_" d="M35.6,41.8H8.3c-2.3,0-4.1-1.8-4.1-4.1V4.4h1.2v33.3c0,1.6,1.3,2.9,2.9,2.9h26.1V7.4h1.2
						C35.6,7.4,35.6,41.8,35.6,41.8z"/>
				</defs>
				<clipPath id="SVGID_44_">
					<use xlink:href="#SVGID_43_"  style="overflow:visible;"/>
				</clipPath>
				<g class="st20">
					<g>
						<rect x="26.7" y="19.1" class="st1" width="12.9" height="12.9"/>
					</g>
				</g>
			</g>
			<g>
				<defs>
					<path id="SVGID_45_" d="M35.6,41.8H8.3c-2.3,0-4.1-1.8-4.1-4.1V4.4h1.2v33.3c0,1.6,1.3,2.9,2.9,2.9h26.1V7.4h1.2
						C35.6,7.4,35.6,41.8,35.6,41.8z"/>
				</defs>
				<clipPath id="SVGID_46_">
					<use xlink:href="#SVGID_45_"  style="overflow:visible;"/>
				</clipPath>
				<g class="st21">
					<g>
						<rect x="26.7" y="32" class="st1" width="12.9" height="12.9"/>
					</g>
				</g>
			</g>
			<g>
				<defs>
					<path id="SVGID_47_" d="M35.6,41.8H8.3c-2.3,0-4.1-1.8-4.1-4.1V4.4h1.2v33.3c0,1.6,1.3,2.9,2.9,2.9h26.1V7.4h1.2
						C35.6,7.4,35.6,41.8,35.6,41.8z"/>
				</defs>
				<clipPath id="SVGID_48_">
					<use xlink:href="#SVGID_47_"  style="overflow:visible;"/>
				</clipPath>
				<g class="st22">
					<g>
						<rect x="13.8" y="-6.7" class="st1" width="12.9" height="12.9"/>
					</g>
				</g>
			</g>
			<g>
				<defs>
					<path id="SVGID_49_" d="M35.6,41.8H8.3c-2.3,0-4.1-1.8-4.1-4.1V4.4h1.2v33.3c0,1.6,1.3,2.9,2.9,2.9h26.1V7.4h1.2
						C35.6,7.4,35.6,41.8,35.6,41.8z"/>
				</defs>
				<clipPath id="SVGID_50_">
					<use xlink:href="#SVGID_49_"  style="overflow:visible;"/>
				</clipPath>
				<g class="st23">
					<g>
						<rect x="13.8" y="6.2" class="st1" width="12.9" height="12.9"/>
					</g>
				</g>
			</g>
			<g>
				<defs>
					<path id="SVGID_51_" d="M35.6,41.8H8.3c-2.3,0-4.1-1.8-4.1-4.1V4.4h1.2v33.3c0,1.6,1.3,2.9,2.9,2.9h26.1V7.4h1.2
						C35.6,7.4,35.6,41.8,35.6,41.8z"/>
				</defs>
				<clipPath id="SVGID_52_">
					<use xlink:href="#SVGID_51_"  style="overflow:visible;"/>
				</clipPath>
				<g class="st24">
					<g>
						<rect x="13.8" y="19.1" class="st1" width="12.9" height="12.9"/>
					</g>
				</g>
			</g>
			<g>
				<defs>
					<path id="SVGID_53_" d="M35.6,41.8H8.3c-2.3,0-4.1-1.8-4.1-4.1V4.4h1.2v33.3c0,1.6,1.3,2.9,2.9,2.9h26.1V7.4h1.2
						C35.6,7.4,35.6,41.8,35.6,41.8z"/>
				</defs>
				<clipPath id="SVGID_54_">
					<use xlink:href="#SVGID_53_"  style="overflow:visible;"/>
				</clipPath>
				<g class="st25">
					<g>
						<rect x="13.8" y="32" class="st1" width="12.9" height="12.9"/>
					</g>
				</g>
			</g>
			<g>
				<defs>
					<path id="SVGID_55_" d="M35.6,41.8H8.3c-2.3,0-4.1-1.8-4.1-4.1V4.4h1.2v33.3c0,1.6,1.3,2.9,2.9,2.9h26.1V7.4h1.2
						C35.6,7.4,35.6,41.8,35.6,41.8z"/>
				</defs>
				<clipPath id="SVGID_56_">
					<use xlink:href="#SVGID_55_"  style="overflow:visible;"/>
				</clipPath>
				<g class="st26">
					<g>
						<rect x="0.9" y="-6.7" class="st1" width="12.9" height="12.9"/>
					</g>
				</g>
			</g>
			<g>
				<defs>
					<path id="SVGID_57_" d="M35.6,41.8H8.3c-2.3,0-4.1-1.8-4.1-4.1V4.4h1.2v33.3c0,1.6,1.3,2.9,2.9,2.9h26.1V7.4h1.2
						C35.6,7.4,35.6,41.8,35.6,41.8z"/>
				</defs>
				<clipPath id="SVGID_58_">
					<use xlink:href="#SVGID_57_"  style="overflow:visible;"/>
				</clipPath>
				<g class="st27">
					<g>
						<rect x="0.9" y="6.2" class="st1" width="12.9" height="12.9"/>
					</g>
				</g>
			</g>
			<g>
				<defs>
					<path id="SVGID_59_" d="M35.6,41.8H8.3c-2.3,0-4.1-1.8-4.1-4.1V4.4h1.2v33.3c0,1.6,1.3,2.9,2.9,2.9h26.1V7.4h1.2
						C35.6,7.4,35.6,41.8,35.6,41.8z"/>
				</defs>
				<clipPath id="SVGID_60_">
					<use xlink:href="#SVGID_59_"  style="overflow:visible;"/>
				</clipPath>
				<g class="st28">
					<g>
						<rect x="0.9" y="19.1" class="st1" width="12.9" height="12.9"/>
					</g>
				</g>
			</g>
			<g>
				<defs>
					<path id="SVGID_61_" d="M35.6,41.8H8.3c-2.3,0-4.1-1.8-4.1-4.1V4.4h1.2v33.3c0,1.6,1.3,2.9,2.9,2.9h26.1V7.4h1.2
						C35.6,7.4,35.6,41.8,35.6,41.8z"/>
				</defs>
				<clipPath id="SVGID_62_">
					<use xlink:href="#SVGID_61_"  style="overflow:visible;"/>
				</clipPath>
				<g class="st29">
					<g>
						<rect x="0.9" y="32" class="st1" width="12.9" height="12.9"/>
					</g>
				</g>
			</g>
		</g>
	</g>
</g>
<g>
	<g>
		<polygon class="st1" points="56.6,49.7 52.7,46.2 48.8,49.7 48.8,40.6 56.6,40.6 		"/>
	</g>
</g>
<g>
	<polygon class="st1" points="72.9,28.9 75.2,30.2 75.2,35.9 71.7,33.9 64.4,29.8 62.9,28.9 62.7,28.8 59.8,27.2 59.8,27.2 
		58.9,26.7 57,25.6 56.7,25.4 55.3,24.6 54.8,24.4 49.8,21.5 48.5,20.8 46.7,19.8 45,18.8 45,13.2 48.5,15.1 55.3,19 56.7,19.8 
		57,19.9 59.8,21.5 59.8,21.5 60.7,22 62.7,23.1 62.9,23.3 64.4,24.1 64.8,24.4 69.8,27.2 71.7,28.2 	"/>
</g>
<g>
	<polygon class="st30" points="71.7,29.3 75.2,31.3 75.2,33.7 71.7,31.7 66.8,28.9 64.4,27.6 63.6,27.2 62.7,26.6 61.7,26.1 
		60.8,25.6 60.3,25.3 59.3,24.7 59.8,23.7 59.8,23.7 59.8,23.7 59.8,23.7 60.3,22.9 62,23.8 62.7,24.2 63.9,24.9 64.4,25.2 
		67.9,27.2 71.1,28.9 	"/>
</g>
<g>
	<polygon class="st30" points="60.8,24.3 60.7,24.5 60.5,24.9 60.3,25.3 59.8,26.1 57.6,24.9 57,24.6 55.7,23.8 55.3,23.6 
		51.7,21.5 48.5,19.8 48.5,19.7 45,17.8 45,15.3 48.5,17.3 52.8,19.8 55.3,21.1 56,21.5 57,22.1 57.9,22.6 59.8,23.7 59.8,23.7 	"/>
</g>
<g>
	<polygon class="st1" points="71.7,14.8 75.2,12.8 75.2,18.5 72.9,19.8 71.7,20.5 69.8,21.5 64.8,24.4 64.4,24.6 63.9,24.9 
		62.7,25.6 61.7,26.1 59.8,27.2 59.8,27.2 57,28.8 56.7,28.9 55.3,29.8 48.5,33.6 45,35.5 45,29.9 46.7,28.9 48.5,27.9 49.8,27.2 
		54.8,24.4 55.3,24.1 55.7,23.8 57,23.1 57.9,22.6 59.8,21.5 59.8,21.5 62.7,19.9 62.9,19.8 64.4,18.9 	"/>
</g>
<g>
	<polygon class="st30" points="60.8,25.6 60.8,25.6 59.8,26.1 58.9,26.7 58,27.2 57,27.7 55.3,28.7 54.8,28.9 48.5,32.5 45,34.5 
		45,32.1 48.5,30.1 50.5,28.9 53.7,27.2 55.3,26.3 56.7,25.4 57,25.3 57.6,24.9 59.8,23.7 59.8,23.7 60.5,24.9 	"/>
</g>
<g>
	<polygon class="st30" points="71.7,15.8 75.2,13.9 75.2,16.3 71.7,18.3 69.1,19.8 65.9,21.5 64.4,22.4 62.9,23.3 62.7,23.4 
		62,23.8 60.7,24.5 60.7,24.5 60.4,24.7 59.8,23.7 59.8,23.7 59.8,23.7 59.3,22.8 60.7,22 61.6,21.5 62.7,21 64.4,20 64.8,19.8 	"/>
</g>
<g>
	<rect x="55.3" y="8" class="st1" width="9.2" height="32.7"/>
</g>
<g>
	<rect x="45" y="19.8" class="st1" width="30.2" height="9.2"/>
</g>
<g>
	<rect x="45" y="21.5" class="st30" width="30.2" height="5.6"/>
</g>
<g>
	<rect x="57" y="8" class="st30" width="5.6" height="32.7"/>
</g>
<g>
	<g>
		<g>
			<g>
				<rect id="SVGID_25_" x="48.1" y="2.7" class="st1" width="22.6" height="1.3"/>
			</g>
			<g>
				<defs>
					<rect id="SVGID_63_" x="48.1" y="2.7" width="22.6" height="1.3"/>
				</defs>
				<clipPath id="SVGID_64_">
					<use xlink:href="#SVGID_63_"  style="overflow:visible;"/>
				</clipPath>
				<g class="st31">
					<g>
						<rect x="66.9" y="-6.7" class="st1" width="12.9" height="12.9"/>
					</g>
				</g>
			</g>
			<g>
				<defs>
					<rect id="SVGID_65_" x="48.1" y="2.7" width="22.6" height="1.3"/>
				</defs>
				<clipPath id="SVGID_66_">
					<use xlink:href="#SVGID_65_"  style="overflow:visible;"/>
				</clipPath>
				<g class="st32">
					<g>
						<rect x="54" y="-6.7" class="st1" width="12.9" height="12.9"/>
					</g>
				</g>
			</g>
			<g>
				<defs>
					<rect id="SVGID_67_" x="48.1" y="2.7" width="22.6" height="1.3"/>
				</defs>
				<clipPath id="SVGID_68_">
					<use xlink:href="#SVGID_67_"  style="overflow:visible;"/>
				</clipPath>
				<g class="st33">
					<g>
						<rect x="41.1" y="-6.7" class="st1" width="12.9" height="12.9"/>
					</g>
				</g>
			</g>
		</g>
	</g>
</g>
<g>
	<g>
		<g>
			<g>
				<rect id="SVGID_27_" x="48.8" y="5" class="st1" width="23" height="1.3"/>
			</g>
			<g>
				<defs>
					<rect id="SVGID_69_" x="48.8" y="5" width="23" height="1.3"/>
				</defs>
				<clipPath id="SVGID_70_">
					<use xlink:href="#SVGID_69_"  style="overflow:visible;"/>
				</clipPath>
				<g class="st34">
					<g>
						<rect x="66.9" y="-6.7" class="st1" width="12.9" height="12.9"/>
					</g>
				</g>
			</g>
			<g>
				<defs>
					<rect id="SVGID_71_" x="48.8" y="5" width="23" height="1.3"/>
				</defs>
				<clipPath id="SVGID_72_">
					<use xlink:href="#SVGID_71_"  style="overflow:visible;"/>
				</clipPath>
				<g class="st35">
					<g>
						<rect x="66.9" y="6.2" class="st1" width="12.9" height="12.9"/>
					</g>
				</g>
			</g>
			<g>
				<defs>
					<rect id="SVGID_73_" x="48.8" y="5" width="23" height="1.3"/>
				</defs>
				<clipPath id="SVGID_74_">
					<use xlink:href="#SVGID_73_"  style="overflow:visible;"/>
				</clipPath>
				<g class="st36">
					<g>
						<rect x="54" y="-6.7" class="st1" width="12.9" height="12.9"/>
					</g>
				</g>
			</g>
			<g>
				<defs>
					<rect id="SVGID_75_" x="48.8" y="5" width="23" height="1.3"/>
				</defs>
				<clipPath id="SVGID_76_">
					<use xlink:href="#SVGID_75_"  style="overflow:visible;"/>
				</clipPath>
				<g class="st37">
					<g>
						<rect x="54" y="6.2" class="st1" width="12.9" height="12.9"/>
					</g>
				</g>
			</g>
			<g>
				<defs>
					<rect id="SVGID_77_" x="48.8" y="5" width="23" height="1.3"/>
				</defs>
				<clipPath id="SVGID_78_">
					<use xlink:href="#SVGID_77_"  style="overflow:visible;"/>
				</clipPath>
				<g class="st38">
					<g>
						<rect x="41.1" y="-6.7" class="st1" width="12.9" height="12.9"/>
					</g>
				</g>
			</g>
			<g>
				<defs>
					<rect id="SVGID_79_" x="48.8" y="5" width="23" height="1.3"/>
				</defs>
				<clipPath id="SVGID_80_">
					<use xlink:href="#SVGID_79_"  style="overflow:visible;"/>
				</clipPath>
				<g class="st39">
					<g>
						<rect x="41.1" y="6.2" class="st1" width="12.9" height="12.9"/>
					</g>
				</g>
			</g>
		</g>
	</g>
</g>
<g>
	<g>
		<g>
			<g>
				<path id="SVGID_29_" class="st1" d="M75.2,8.6H48.5c-2.3,0-4.1-1.8-4.1-4.1V4.4c0-2.3,1.8-4.1,4.1-4.1h23.3v1.2H48.5
					c-1.6,0-2.9,1.3-2.9,2.9v0.1c0,1.6,1.3,2.9,2.9,2.9h26.7V8.6z"/>
			</g>
			<g>
				<defs>
					<path id="SVGID_81_" d="M75.2,8.6H48.5c-2.3,0-4.1-1.8-4.1-4.1V4.4c0-2.3,1.8-4.1,4.1-4.1h23.3v1.2H48.5
						c-1.6,0-2.9,1.3-2.9,2.9v0.1c0,1.6,1.3,2.9,2.9,2.9h26.7V8.6z"/>
				</defs>
				<clipPath id="SVGID_82_">
					<use xlink:href="#SVGID_81_"  style="overflow:visible;"/>
				</clipPath>
				<g class="st40">
					<g>
						<rect x="66.9" y="-6.7" class="st1" width="12.9" height="12.9"/>
					</g>
				</g>
			</g>
			<g>
				<defs>
					<path id="SVGID_83_" d="M75.2,8.6H48.5c-2.3,0-4.1-1.8-4.1-4.1V4.4c0-2.3,1.8-4.1,4.1-4.1h23.3v1.2H48.5
						c-1.6,0-2.9,1.3-2.9,2.9v0.1c0,1.6,1.3,2.9,2.9,2.9h26.7V8.6z"/>
				</defs>
				<clipPath id="SVGID_84_">
					<use xlink:href="#SVGID_83_"  style="overflow:visible;"/>
				</clipPath>
				<g class="st41">
					<g>
						<rect x="66.9" y="6.2" class="st1" width="12.9" height="12.9"/>
					</g>
				</g>
			</g>
			<g>
				<defs>
					<path id="SVGID_85_" d="M75.2,8.6H48.5c-2.3,0-4.1-1.8-4.1-4.1V4.4c0-2.3,1.8-4.1,4.1-4.1h23.3v1.2H48.5
						c-1.6,0-2.9,1.3-2.9,2.9v0.1c0,1.6,1.3,2.9,2.9,2.9h26.7V8.6z"/>
				</defs>
				<clipPath id="SVGID_86_">
					<use xlink:href="#SVGID_85_"  style="overflow:visible;"/>
				</clipPath>
				<g class="st42">
					<g>
						<rect x="54" y="-6.7" class="st1" width="12.9" height="12.9"/>
					</g>
				</g>
			</g>
			<g>
				<defs>
					<path id="SVGID_87_" d="M75.2,8.6H48.5c-2.3,0-4.1-1.8-4.1-4.1V4.4c0-2.3,1.8-4.1,4.1-4.1h23.3v1.2H48.5
						c-1.6,0-2.9,1.3-2.9,2.9v0.1c0,1.6,1.3,2.9,2.9,2.9h26.7V8.6z"/>
				</defs>
				<clipPath id="SVGID_88_">
					<use xlink:href="#SVGID_87_"  style="overflow:visible;"/>
				</clipPath>
				<g class="st43">
					<g>
						<rect x="54" y="6.2" class="st1" width="12.9" height="12.9"/>
					</g>
				</g>
			</g>
			<g>
				<defs>
					<path id="SVGID_89_" d="M75.2,8.6H48.5c-2.3,0-4.1-1.8-4.1-4.1V4.4c0-2.3,1.8-4.1,4.1-4.1h23.3v1.2H48.5
						c-1.6,0-2.9,1.3-2.9,2.9v0.1c0,1.6,1.3,2.9,2.9,2.9h26.7V8.6z"/>
				</defs>
				<clipPath id="SVGID_90_">
					<use xlink:href="#SVGID_89_"  style="overflow:visible;"/>
				</clipPath>
				<g class="st44">
					<g>
						<rect x="41.1" y="-6.7" class="st1" width="12.9" height="12.9"/>
					</g>
				</g>
			</g>
			<g>
				<defs>
					<path id="SVGID_91_" d="M75.2,8.6H48.5c-2.3,0-4.1-1.8-4.1-4.1V4.4c0-2.3,1.8-4.1,4.1-4.1h23.3v1.2H48.5
						c-1.6,0-2.9,1.3-2.9,2.9v0.1c0,1.6,1.3,2.9,2.9,2.9h26.7V8.6z"/>
				</defs>
				<clipPath id="SVGID_92_">
					<use xlink:href="#SVGID_91_"  style="overflow:visible;"/>
				</clipPath>
				<g class="st45">
					<g>
						<rect x="41.1" y="6.2" class="st1" width="12.9" height="12.9"/>
					</g>
				</g>
			</g>
		</g>
	</g>
</g>
<g>
	<g>
		<g>
			<g>
				<path id="SVGID_31_" class="st1" d="M75.8,41.8H48.5c-2.3,0-4.1-1.8-4.1-4.1V4.4h1.2v33.3c0,1.6,1.3,2.9,2.9,2.9h26.1V7.4h1.2
					V41.8z"/>
			</g>
			<g>
				<defs>
					<path id="SVGID_93_" d="M75.8,41.8H48.5c-2.3,0-4.1-1.8-4.1-4.1V4.4h1.2v33.3c0,1.6,1.3,2.9,2.9,2.9h26.1V7.4h1.2V41.8z"/>
				</defs>
				<clipPath id="SVGID_94_">
					<use xlink:href="#SVGID_93_"  style="overflow:visible;"/>
				</clipPath>
				<g class="st46">
					<g>
						<rect x="66.9" y="-6.7" class="st1" width="12.9" height="12.9"/>
					</g>
				</g>
			</g>
			<g>
				<defs>
					<path id="SVGID_95_" d="M75.8,41.8H48.5c-2.3,0-4.1-1.8-4.1-4.1V4.4h1.2v33.3c0,1.6,1.3,2.9,2.9,2.9h26.1V7.4h1.2V41.8z"/>
				</defs>
				<clipPath id="SVGID_96_">
					<use xlink:href="#SVGID_95_"  style="overflow:visible;"/>
				</clipPath>
				<g class="st47">
					<g>
						<rect x="66.9" y="6.2" class="st1" width="12.9" height="12.9"/>
					</g>
				</g>
			</g>
			<g>
				<defs>
					<path id="SVGID_97_" d="M75.8,41.8H48.5c-2.3,0-4.1-1.8-4.1-4.1V4.4h1.2v33.3c0,1.6,1.3,2.9,2.9,2.9h26.1V7.4h1.2V41.8z"/>
				</defs>
				<clipPath id="SVGID_98_">
					<use xlink:href="#SVGID_97_"  style="overflow:visible;"/>
				</clipPath>
				<g class="st48">
					<g>
						<rect x="66.9" y="19.1" class="st1" width="12.9" height="12.9"/>
					</g>
				</g>
			</g>
			<g>
				<defs>
					<path id="SVGID_99_" d="M75.8,41.8H48.5c-2.3,0-4.1-1.8-4.1-4.1V4.4h1.2v33.3c0,1.6,1.3,2.9,2.9,2.9h26.1V7.4h1.2V41.8z"/>
				</defs>
				<clipPath id="SVGID_100_">
					<use xlink:href="#SVGID_99_"  style="overflow:visible;"/>
				</clipPath>
				<g class="st49">
					<g>
						<rect x="66.9" y="32" class="st1" width="12.9" height="12.9"/>
					</g>
				</g>
			</g>
			<g>
				<defs>
					<path id="SVGID_101_" d="M75.8,41.8H48.5c-2.3,0-4.1-1.8-4.1-4.1V4.4h1.2v33.3c0,1.6,1.3,2.9,2.9,2.9h26.1V7.4h1.2V41.8z"/>
				</defs>
				<clipPath id="SVGID_102_">
					<use xlink:href="#SVGID_101_"  style="overflow:visible;"/>
				</clipPath>
				<g class="st50">
					<g>
						<rect x="54" y="-6.7" class="st1" width="12.9" height="12.9"/>
					</g>
				</g>
			</g>
			<g>
				<defs>
					<path id="SVGID_103_" d="M75.8,41.8H48.5c-2.3,0-4.1-1.8-4.1-4.1V4.4h1.2v33.3c0,1.6,1.3,2.9,2.9,2.9h26.1V7.4h1.2V41.8z"/>
				</defs>
				<clipPath id="SVGID_104_">
					<use xlink:href="#SVGID_103_"  style="overflow:visible;"/>
				</clipPath>
				<g class="st51">
					<g>
						<rect x="54" y="6.2" class="st1" width="12.9" height="12.9"/>
					</g>
				</g>
			</g>
			<g>
				<defs>
					<path id="SVGID_105_" d="M75.8,41.8H48.5c-2.3,0-4.1-1.8-4.1-4.1V4.4h1.2v33.3c0,1.6,1.3,2.9,2.9,2.9h26.1V7.4h1.2V41.8z"/>
				</defs>
				<clipPath id="SVGID_106_">
					<use xlink:href="#SVGID_105_"  style="overflow:visible;"/>
				</clipPath>
				<g class="st52">
					<g>
						<rect x="54" y="19.1" class="st1" width="12.9" height="12.9"/>
					</g>
				</g>
			</g>
			<g>
				<defs>
					<path id="SVGID_107_" d="M75.8,41.8H48.5c-2.3,0-4.1-1.8-4.1-4.1V4.4h1.2v33.3c0,1.6,1.3,2.9,2.9,2.9h26.1V7.4h1.2V41.8z"/>
				</defs>
				<clipPath id="SVGID_108_">
					<use xlink:href="#SVGID_107_"  style="overflow:visible;"/>
				</clipPath>
				<g class="st53">
					<g>
						<rect x="54" y="32" class="st1" width="12.9" height="12.9"/>
					</g>
				</g>
			</g>
			<g>
				<defs>
					<path id="SVGID_109_" d="M75.8,41.8H48.5c-2.3,0-4.1-1.8-4.1-4.1V4.4h1.2v33.3c0,1.6,1.3,2.9,2.9,2.9h26.1V7.4h1.2V41.8z"/>
				</defs>
				<clipPath id="SVGID_110_">
					<use xlink:href="#SVGID_109_"  style="overflow:visible;"/>
				</clipPath>
				<g class="st54">
					<g>
						<rect x="41.1" y="-6.7" class="st1" width="12.9" height="12.9"/>
					</g>
				</g>
			</g>
			<g>
				<defs>
					<path id="SVGID_111_" d="M75.8,41.8H48.5c-2.3,0-4.1-1.8-4.1-4.1V4.4h1.2v33.3c0,1.6,1.3,2.9,2.9,2.9h26.1V7.4h1.2V41.8z"/>
				</defs>
				<clipPath id="SVGID_112_">
					<use xlink:href="#SVGID_111_"  style="overflow:visible;"/>
				</clipPath>
				<g class="st55">
					<g>
						<rect x="41.1" y="6.2" class="st1" width="12.9" height="12.9"/>
					</g>
				</g>
			</g>
			<g>
				<defs>
					<path id="SVGID_113_" d="M75.8,41.8H48.5c-2.3,0-4.1-1.8-4.1-4.1V4.4h1.2v33.3c0,1.6,1.3,2.9,2.9,2.9h26.1V7.4h1.2V41.8z"/>
				</defs>
				<clipPath id="SVGID_114_">
					<use xlink:href="#SVGID_113_"  style="overflow:visible;"/>
				</clipPath>
				<g class="st56">
					<g>
						<rect x="41.1" y="19.1" class="st1" width="12.9" height="12.9"/>
					</g>
				</g>
			</g>
			<g>
				<defs>
					<path id="SVGID_115_" d="M75.8,41.8H48.5c-2.3,0-4.1-1.8-4.1-4.1V4.4h1.2v33.3c0,1.6,1.3,2.9,2.9,2.9h26.1V7.4h1.2V41.8z"/>
				</defs>
				<clipPath id="SVGID_116_">
					<use xlink:href="#SVGID_115_"  style="overflow:visible;"/>
				</clipPath>
				<g class="st57">
					<g>
						<rect x="41.1" y="32" class="st1" width="12.9" height="12.9"/>
					</g>
				</g>
			</g>
		</g>
	</g>
</g>
</svg>
