<?xml version="1.0" encoding="utf-8"?>
<!-- Generator: Adobe Illustrator 23.0.0, SVG Export Plug-In . SVG Version: 6.00 Build 0)  -->
<svg version="1.1" id="Calque_1" xmlns="http://www.w3.org/2000/svg" xmlns:xlink="http://www.w3.org/1999/xlink" x="0px" y="0px"
	 viewBox="0 0 50 40" style="enable-background:new 0 0 50 40;" xml:space="preserve">
<style type="text/css">
	.st0{fill:none;}
	.st1{fill:#497491;}
	.st2{fill:#022C5E;}
	.st3{fill:#FFFFFF;}
</style>
<rect class="st0" width="50" height="40"/>
<g>
	<g>
		<polyline class="st1" points="35.5,16.7 42.5,16.7 42.5,39.3 7.3,39.3 7.3,16.7 14.3,16.7 		"/>
		<path class="st2" d="M42.5,40H7.3c-0.4,0-0.7-0.3-0.7-0.7V16.7c0-0.4,0.3-0.7,0.7-0.7h7c0.4,0,0.7,0.3,0.7,0.7s-0.3,0.7-0.7,0.7H8
			v21.1h33.8V17.4h-6.3c-0.4,0-0.7-0.3-0.7-0.7s0.3-0.7,0.7-0.7h7c0.4,0,0.7,0.3,0.7,0.7v22.6C43.2,39.7,42.9,40,42.5,40z"/>
	</g>
	<g>
		<polygon class="st3" points="32.7,39.3 17.2,39.3 17.2,13.9 24.9,9.7 32.7,13.9 		"/>
		<path class="st2" d="M32.7,40H17.2c-0.4,0-0.7-0.3-0.7-0.7V13.9c0-0.3,0.1-0.5,0.4-0.6l7.8-4.2c0.2-0.1,0.5-0.1,0.7,0l7.8,4.2
			c0.2,0.1,0.4,0.4,0.4,0.6v25.4C33.4,39.7,33.1,40,32.7,40z M17.9,38.6H32V14.3l-7-3.8l-7,3.8V38.6z"/>
	</g>
	<g>
		<circle class="st1" cx="24.9" cy="17.4" r="2.1"/>
		<path class="st2" d="M24.9,20.3c-1.6,0-2.8-1.3-2.8-2.8s1.3-2.8,2.8-2.8c1.6,0,2.8,1.3,2.8,2.8S26.5,20.3,24.9,20.3z M24.9,16
			c-0.8,0-1.4,0.6-1.4,1.4s0.6,1.4,1.4,1.4c0.8,0,1.4-0.6,1.4-1.4S25.7,16,24.9,16z"/>
	</g>
	<path class="st2" d="M24.9,10.4c-0.4,0-0.7-0.3-0.7-0.7V1.2c0-0.4,0.3-0.7,0.7-0.7c0.4,0,0.7,0.3,0.7,0.7v8.5
		C25.6,10.1,25.3,10.4,24.9,10.4z"/>
	<g>
		<rect x="24.9" y="2.6" class="st1" width="4.9" height="2.8"/>
		<path class="st2" d="M29.9,6.2h-4.9c-0.4,0-0.7-0.3-0.7-0.7V2.6c0-0.4,0.3-0.7,0.7-0.7h4.9c0.4,0,0.7,0.3,0.7,0.7v2.8
			C30.6,5.9,30.2,6.2,29.9,6.2z M25.6,4.8h3.5V3.3h-3.5V4.8z"/>
	</g>
	<g>
		<rect x="21.4" y="29.4" class="st1" width="7" height="7"/>
		<path class="st2" d="M28.4,37.2h-7c-0.4,0-0.7-0.3-0.7-0.7v-7c0-0.4,0.3-0.7,0.7-0.7h7c0.4,0,0.7,0.3,0.7,0.7v7
			C29.2,36.9,28.8,37.2,28.4,37.2z M22.1,35.8h5.6v-5.6h-5.6V35.8z"/>
	</g>
	<g>
		<rect x="20" y="36.5" class="st1" width="9.9" height="2.8"/>
		<path class="st2" d="M29.9,40H20c-0.4,0-0.7-0.3-0.7-0.7v-2.8c0-0.4,0.3-0.7,0.7-0.7h9.9c0.4,0,0.7,0.3,0.7,0.7v2.8
			C30.6,39.7,30.2,40,29.9,40z M20.7,38.6h8.5v-1.4h-8.5V38.6z"/>
	</g>
	<path class="st2" d="M14.3,21.7h-7c-0.4,0-0.7-0.3-0.7-0.7s0.3-0.7,0.7-0.7h7c0.4,0,0.7,0.3,0.7,0.7S14.7,21.7,14.3,21.7z"/>
	<path class="st2" d="M42.5,21.7h-7c-0.4,0-0.7-0.3-0.7-0.7s0.3-0.7,0.7-0.7h7c0.4,0,0.7,0.3,0.7,0.7S42.9,21.7,42.5,21.7z"/>
	<path class="st2" d="M24.9,37.2c-0.4,0-0.7-0.3-0.7-0.7v-7c0-0.4,0.3-0.7,0.7-0.7c0.4,0,0.7,0.3,0.7,0.7v7
		C25.6,36.9,25.3,37.2,24.9,37.2z"/>
	<path class="st2" d="M44,40H5.9c-0.4,0-0.7-0.3-0.7-0.7c0-0.4,0.3-0.7,0.7-0.7H44c0.4,0,0.7,0.3,0.7,0.7C44.7,39.7,44.3,40,44,40z"
		/>
</g>
</svg>
