<?xml version="1.0" encoding="utf-8"?>
<!-- Generator: Adobe Illustrator 23.0.0, SVG Export Plug-In . SVG Version: 6.00 Build 0)  -->
<svg version="1.1" id="Calque_1" xmlns="http://www.w3.org/2000/svg" xmlns:xlink="http://www.w3.org/1999/xlink" x="0px" y="0px"
	 viewBox="0 0 80 50" style="enable-background:new 0 0 80 50;" xml:space="preserve">
<style type="text/css">
	.st0{fill:none;}
	.st1{fill:#FFFFFF;}
</style>
<rect class="st0" width="80" height="50"/>
<path class="st1" d="M55.1,21.3l3-3l-3-3l1.6-3.9l-3.9-1.6l0-4.2l-4.2,0L47,1.7l-3.9,1.6l-3-3l-3,3l-3.9-1.6l-1.6,3.9l-4.2,0l0,4.2
	l-3.9,1.6l1.6,3.9l-3,3l3,3l-1.6,3.9l3.9,1.6l0,4.2l4.2,0l1.6,3.9l3.9-1.6l3,3l3-3L47,35l1.6-3.9l4.2,0l0-4.2l3.9-1.6L55.1,21.3z
	 M40,31.8c-7.3,0-13.2-5.9-13.2-13.2c0-7.3,5.9-13.2,13.2-13.2c7.3,0,13.2,5.9,13.2,13.2S47.3,31.8,40,31.8z"/>
<path class="st1" d="M39.9,7.6c-6.1,0-11,4.9-11,11c0,6.1,4.9,11,11,11s11-4.9,11-11C50.9,12.5,46,7.6,39.9,7.6z M43.6,21.7
	c0,0.1-0.1-0.1-0.1-0.1h-6.7c0,0,0,0.1,0,0v-1.7c0-0.1,0,0.1,0,0.1h1.5v-3.7h-1.5c-0.1,0,0,0,0-0.1v-1.6c0-0.1-0.1-0.5,0-0.5h2.3
	c0.3,0,0.5-0.5,0.7-0.8c0,0,0.1-0.1,0.1-0.1h1.9c0.1,0-0.1,0.2-0.1,0.3v6.5h1.7c0,0,0.1-0.2,0.1-0.1V21.7z"/>
<g>
	<polygon class="st1" points="40.2,39.4 36.9,36.3 34.4,37.3 34.4,48 39.7,45.2 45.4,48 45.4,37.3 43.2,36.3 	"/>
	<polygon class="st1" points="48.6,49.3 47.3,48.6 47.3,37.7 48.7,38.2 	"/>
	<polygon class="st1" points="31.3,49.3 32.6,48.6 32.7,37.7 31.3,38.2 	"/>
</g>
</svg>
