<?xml version="1.0" encoding="utf-8"?>
<!-- Generator: Adobe Illustrator 23.0.0, SVG Export Plug-In . SVG Version: 6.00 Build 0)  -->
<svg version="1.1" id="Calque_1" xmlns="http://www.w3.org/2000/svg" xmlns:xlink="http://www.w3.org/1999/xlink" x="0px" y="0px"
	 viewBox="0 0 80 50" style="enable-background:new 0 0 80 50;" xml:space="preserve">
<style type="text/css">
	.st0{fill:none;}
	.st1{fill:#FFFFFF;}
</style>
<rect class="st0" width="80" height="50"/>
<g>
	<path class="st1" d="M27,3.4c6-3.5,12.8-4.2,19-2.5c6.2,1.7,11.7,5.7,15.2,11.6c3.5,6,4.2,12.8,2.5,19C62,37.6,58,43.2,52,46.6
		c-6,3.5-12.8,4.2-19,2.5c-6.2-1.7-11.7-5.7-15.2-11.6c-3.5-6-4.2-12.8-2.5-19C17,12.4,21,6.8,27,3.4L27,3.4z M19.3,34.7
		c1.6-1.7,3.2-3.3,5-4.8c-1.7-2.2-4.1-3.9-7.2-5.3C17,28,17.7,31.4,19.3,34.7L19.3,34.7z M26,28.5c1.3-1,2.6-2,3.9-2.9
		c-2.6-5.2-4.6-10.7-6.1-16.5c-2.9,2.8-4.9,6.4-5.9,10.2c-0.3,1-0.5,2-0.6,3C21,23.8,23.9,25.9,26,28.5L26,28.5z M31.7,24.3
		c1.7-1.1,3.4-2.1,5.2-3.1c-2.3-5.6,0.3-10.6,2.5-14.7c0,0,0-0.1,0-0.1c0.8-1.4,1.5-2.7,1.8-3.8c-4.3-0.3-8.8,0.6-12.9,2.9
		c-1,0.6-1.9,1.2-2.7,1.8C27.1,13.4,29.1,19.1,31.7,24.3L31.7,24.3z M38.8,20.2c6.1-3.2,12.6-5.7,19.2-7.8
		c-3.1-4.6-7.7-7.7-12.8-9.1c-0.6-0.2-1.3-0.3-1.9-0.4c-0.3,1.4-1.1,2.9-2,4.6c0,0,0,0.1,0,0.1C39.4,11.2,37.1,15.6,38.8,20.2
		L38.8,20.2z M59.2,14.4c-6.7,2.1-13.3,4.6-19.4,7.8c2.5,3.6,7.6,5,12.5,6.3c3.1,0.9,6.2,1.7,8.6,3.1c0.1-0.2,0.1-0.5,0.2-0.7
		C62.6,25.5,62,19.6,59.2,14.4L59.2,14.4z M37.9,23.2c-1.8,1-3.5,2-5.2,3.1c0.3,0.7,0.7,1.3,1.1,2c3.6,6.4,8.2,12.2,14,17.6
		c1-0.4,2-0.9,2.9-1.4c4.4-2.6,7.7-6.4,9.5-10.8c-2.1-1.4-5.2-2.2-8.4-3.1C46.4,29.1,40.8,27.5,37.9,23.2L37.9,23.2z M30.9,27.5
		c-1.3,0.9-2.5,1.8-3.7,2.8c0.1,0.2,0.3,0.5,0.4,0.7c2.1,3.8,2.8,8.5,2.3,14.3c1.2,0.6,2.5,1,3.8,1.4c3.8,1,7.8,1,11.7,0
		c-5.5-5.3-10-11-13.5-17.3C31.6,28.7,31.2,28.1,30.9,27.5L30.9,27.5z M25.5,31.7c-1.8,1.6-3.5,3.2-5.1,5c1.9,3.1,4.5,5.7,7.5,7.5
		c0.3-4.9-0.4-8.9-2.1-12.1C25.6,31.9,25.6,31.8,25.5,31.7L25.5,31.7z"/>
</g>
</svg>
