<?xml version="1.0" encoding="utf-8"?>
<!-- Generator: Adobe Illustrator 23.0.0, SVG Export Plug-In . SVG Version: 6.00 Build 0)  -->
<svg version="1.1" id="Calque_1" xmlns="http://www.w3.org/2000/svg" xmlns:xlink="http://www.w3.org/1999/xlink" x="0px" y="0px"
	 viewBox="0 0 80 50" style="enable-background:new 0 0 80 50;" xml:space="preserve">
<style type="text/css">
	.st0{fill:none;}
	.st1{fill-rule:evenodd;clip-rule:evenodd;fill:#FFFFFF;}
</style>
<rect class="st0" width="80" height="50"/>
<path class="st1" d="M30.4,40.4l-0.4-0.8l4.6-6.6l-4.7-2.5h-1.2L26.6,29l0.1-1.1h1.5l3.8-3.6l-2.3-2.1L29,22.9v1.2l-0.8,0.1
	l-1.5-1.6l1-1.1l2.7,0.3l0.5-0.8L28.6,19l0.9-1l0.7,0.7l1.3,0.1l0.6,2.4l1.3,1.3l0.5-1.2l2.4-1.1l1.2-3.2l-3-0.7l-3.2,0.6l-3-0.4
	l-0.5,1.8L26,17.9l-3.2,0.9l-0.2,1.1l-4.3,0.2l-1.2,1.1l1,1.9l1.6-0.6H21l1.7,1.8l-0.1,3l2.8,2.3l2.8,1.2L28,32.5l1.9,2l-0.7,5.4
	l0.8,0.9L30.4,40.4L30.4,40.4z M52.7,32.5l1.7,1l0.3-2.1L53,31.9v-1.2l0.7-0.4l-0.4-1l1.4-0.3l0.7-1.2l-0.4-1.4l0.4-0.4h1.2l1.7-1.8
	l-0.8-0.9l0.9-0.5l1.7-0.3l-0.4,0.9l0.1,0.8l1.3-1.7l1.8-0.5l-1.2-1.7l-1.3,0.4l-2.1-1l-1.8,0.6l-0.8-0.6h-2.4l-0.4-1.1l-3.6,1.3
	l-1,1.1l-1.3-0.4l-2.1,0.8l-2.1-1.1l-1.3,0.6l-1.7,1.8l0.3,0.6l0.7,0.1V24H40l-0.5,0.6l-0.9-1.6L38,24.2l1.1,0.4l-0.2,0.9l-0.8,0.2
	l0,0.9l0.4,0.6l-1.4,1.7v1.5l1,1.1h2.4l0.4,1.6v1.6l0.8,2.3l0.9,0.3l1.3-1.8v-0.8l0.7-0.7v-1.7l1.4-1.5h-1.2l-1-2.3l1.5,1.5l1.8-0.9
	l-1.7-1.1h0.9l2.3,0.8l0.6,2.2l0.7-1.2l1.2-0.7l1,1.2l0.2,1.8L52.7,32.5L52.7,32.5z M56,33.9l-2,1.4l0.5,2l1.8-0.6l2.2,1.8l0.9-2.6
	L58,33.8l-0.4,0.9l-0.4-0.4v-0.4H56L56,33.9z M46.3,42c-0.3,0-0.6-0.3-0.6-0.6s0.3-0.6,0.6-0.6H52c0.3,0,0.6,0.3,0.6,0.6
	S52.3,42,52,42H46.3L46.3,42z M18.3,42c-0.3,0-0.6-0.3-0.6-0.6s0.3-0.6,0.6-0.6H24c0.3,0,0.6,0.3,0.6,0.6S24.3,42,24,42H18.3
	L18.3,42z M18.3,39.8c-0.3,0-0.6-0.3-0.6-0.6c0-0.3,0.3-0.6,0.6-0.6H24c0.3,0,0.6,0.3,0.6,0.6c0,0.3-0.3,0.6-0.6,0.6H18.3L18.3,39.8
	z M18.3,37.6c-0.3,0-0.6-0.3-0.6-0.6c0-0.3,0.3-0.6,0.6-0.6H24c0.3,0,0.6,0.3,0.6,0.6c0,0.3-0.3,0.6-0.6,0.6H18.3L18.3,37.6z
	 M15.2,44.3h49.6v-31H15.2V44.3L15.2,44.3z M64.8,45.5H15.2v2.1h49.6V45.5L64.8,45.5z M14.2,11.3h12.8l10.6-8.6
	c0.1,0.4,0.4,0.7,0.6,1l0,0l0,0l0.1,0.1l-9.3,7.6h22.5L41.1,2.9c-0.2,0.2-0.4,0.3-0.7,0.3c-0.1,0-0.2,0-0.2,0h0
	c-0.9,0-1.6-0.7-1.6-1.6c0-0.9,0.7-1.6,1.6-1.6c0.9,0,1.6,0.7,1.6,1.6c0,0.1,0,0.1,0,0.2l11.7,9.5h12.4c0.5,0,1,0.4,1,1v36.4
	c0,0.5-0.4,1-1,1H14.2c-0.5,0-1-0.4-1-1V12.3C13.2,11.7,13.6,11.3,14.2,11.3L14.2,11.3z"/>
</svg>
