<?xml version="1.0" encoding="utf-8"?>
<!-- Generator: Adobe Illustrator 23.0.0, SVG Export Plug-In . SVG Version: 6.00 Build 0)  -->
<svg version="1.1" id="Calque_1" xmlns="http://www.w3.org/2000/svg" xmlns:xlink="http://www.w3.org/1999/xlink" x="0px" y="0px"
	 viewBox="0 0 80 50" style="enable-background:new 0 0 80 50;" xml:space="preserve">
<style type="text/css">
	.st0{fill:none;}
	.st1{fill:#FFFFFF;}
</style>
<rect class="st0" width="80" height="50"/>
<path class="st1" d="M14.5,18.4c6.6-1.8,10.9-1.9,14-6.4c0.3-0.4,0.7-0.6,1.1-0.6c0.4,0,0.8,0.3,1,0.7c2.1,3.9,6.1,3.5,14.1,5.4
	C42,10.8,36.2,6.5,29.8,6.5C23,6.5,17,11.3,14.5,18.4z"/>
<g>
	<path class="st1" d="M57.6,31.6c0,1-0.8,1.7-1.7,1.7s-1.7-0.8-1.7-1.7c0-1,0.8-1.7,1.7-1.7S57.6,30.7,57.6,31.6z"/>
	<path class="st1" d="M55.8,33.6c-1.1,0-2-0.9-2-2c0-1.1,0.9-2,2-2s2,0.9,2,2C57.8,32.7,56.9,33.6,55.8,33.6z M55.8,30.1
		c-0.8,0-1.5,0.7-1.5,1.5s0.7,1.5,1.5,1.5c0.8,0,1.5-0.7,1.5-1.5S56.7,30.1,55.8,30.1z"/>
</g>
<g>
	<path class="st1" d="M70.8,31.6c0,1-0.8,1.7-1.7,1.7s-1.7-0.8-1.7-1.7c0-1,0.8-1.7,1.7-1.7S70.8,30.7,70.8,31.6z"/>
	<path class="st1" d="M69,33.6c-1.1,0-2-0.9-2-2c0-1.1,0.9-2,2-2s2,0.9,2,2C71,32.7,70.1,33.6,69,33.6z M69,30.1
		c-0.8,0-1.5,0.7-1.5,1.5s0.7,1.5,1.5,1.5s1.5-0.7,1.5-1.5S69.9,30.1,69,30.1z"/>
</g>
<path class="st1" d="M62.2,50c-9.7,0-17.6-7.9-17.6-17.6c0-9.7,7.9-17.6,17.6-17.6c9.7,0,17.6,7.9,17.6,17.6
	C79.8,42.1,71.9,50,62.2,50z M62.2,17.2c-8.4,0-15.2,6.8-15.2,15.2c0,8.4,6.8,15.2,15.2,15.2s15.2-6.8,15.2-15.2
	C77.4,24.1,70.6,17.2,62.2,17.2z"/>
<path class="st1" d="M62,45.5c-4.2,0-7.5-3.2-7.5-7.3c0-0.8,0.5-1,0.7-1h13.6c0.7,0,0.7,0.8,0.7,1.1C69.6,42.3,66.3,45.5,62,45.5z
	 M55.9,38.6c0.2,3.1,2.8,5.5,6.1,5.5c3.4,0,5.9-2.3,6.1-5.5H55.9z M68.8,38.6L68.8,38.6L68.8,38.6z"/>
<g>
	<path class="st1" d="M34.4,22.2c0,1,0.8,1.7,1.7,1.7c1,0,1.7-0.8,1.7-1.7c0-1-0.8-1.7-1.7-1.7C35.1,20.5,34.4,21.2,34.4,22.2z"/>
	<path class="st1" d="M36.1,24.2c-1.1,0-2-0.9-2-2c0-1.1,0.9-2,2-2s2,0.9,2,2C38.1,23.3,37.2,24.2,36.1,24.2z M36.1,20.7
		c-0.8,0-1.5,0.7-1.5,1.5s0.7,1.5,1.5,1.5c0.8,0,1.5-0.7,1.5-1.5S36.9,20.7,36.1,20.7z"/>
</g>
<g>
	<path class="st1" d="M21.2,22.2c0,1,0.8,1.7,1.7,1.7c1,0,1.7-0.8,1.7-1.7c0-1-0.8-1.7-1.7-1.7C22,20.5,21.2,21.2,21.2,22.2z"/>
	<path class="st1" d="M22.9,24.2c-1.1,0-2-0.9-2-2c0-1.1,0.9-2,2-2c1.1,0,2,0.9,2,2C24.9,23.3,24,24.2,22.9,24.2z M22.9,20.7
		c-0.8,0-1.5,0.7-1.5,1.5s0.7,1.5,1.5,1.5c0.8,0,1.5-0.7,1.5-1.5S23.8,20.7,22.9,20.7z"/>
</g>
<path class="st1" d="M29.9,36c-4.2,0-7.5-3.2-7.5-7.2c0-1.1,0.6-1.1,0.7-1.1h13.6c0.3,0,0.7,0.1,0.7,1C37.4,32.8,34.1,36,29.9,36z
	 M23.8,29.2c0.2,3.1,2.7,5.5,6.1,5.5c3.3,0,5.9-2.4,6.1-5.5H23.8z M36.7,29.2L36.7,29.2L36.7,29.2z"/>
<path class="st1" d="M15,19.2l-2.3-0.6c2-7.7,9-13.1,17-13.1c7.5,0,14.2,4.8,16.6,11.9l-2.2,0.8C42.1,12,36.3,7.8,29.7,7.8
	C22.8,7.8,16.8,12.5,15,19.2z"/>
<path class="st1" d="M29.7,40.6c-9.7,0-17.6-7.9-17.6-17.6c0-1.5,0.2-3,0.6-4.4l2.3,0.6c-0.3,1.2-0.5,2.5-0.5,3.8
	c0,8.4,6.8,15.2,15.2,15.2S44.9,31.4,44.9,23c0-1.7-0.3-3.3-0.8-4.9l2.2-0.8c0.6,1.8,0.9,3.7,0.9,5.6C47.3,32.7,39.4,40.6,29.7,40.6
	z"/>
<path class="st1" d="M13.9,20.1c-0.5,0-1-0.4-1.1-0.9c0,0,0-0.1,0-0.1c-0.2-0.6,0.2-1.2,0.8-1.4c0.1,0,0.3,0,0.4,0
	c7-1.6,11.4-3.2,14.6-7.2c0.2-0.3,0.6-0.5,1-0.5c0.4,0,0.7,0.2,0.9,0.6c2,3.3,6,4.6,14.2,6.2c0.2-0.2,0.5-0.2,0.8-0.2
	c0.6,0.1,1.1,0.7,0.9,1.4l0,0.1c0,0.1,0,0.2,0,0.2c-0.1,0.6-0.7,1-1.4,0.9c-7.3-1.4-12.6-2.6-15.6-6.1c-3.5,3.8-8.2,5.4-15.2,7
	C14.1,20.1,14,20.1,13.9,20.1z"/>
<path class="st1" d="M7.1,20.7c-0.5,0-0.9-0.1-1.4-0.2c-2.5-0.7-4.8-3.4-5.2-6c-0.7-4.6,0.2-6.3,0.4-6.6c0.3-0.4,0.7-0.6,1.2-0.5
	c0.5,0.1,0.9,0.4,1,0.9c0.2,0.9,0.8,2.2,1.3,2.4c0.2,0.1,0.4,0,0.7-0.2c0.3-0.3,0.8-1.6,1.2-2.6c1.2-3,2.9-7.6,6.8-7
	c2,0.3,3.6,1.2,4.6,2.7c2.1,2.9,1.5,7,1.5,7.1c-0.1,0.4-0.4,0.8-0.8,0.9c-0.4,0.1-0.9,0.1-1.2-0.2c-0.6-0.5-0.9-0.5-0.9-0.5
	c-0.4,0.1-1.3,1.6-1.9,2.6c-0.9,1.5-2,3.5-3.7,5.4C9.8,20.1,8.5,20.7,7.1,20.7z M2.6,12.3c0,0.5,0.1,1.1,0.2,1.8
	c0.3,1.8,1.9,3.6,3.5,4.1c1,0.3,1.9,0,2.6-0.8c1.5-1.8,2.6-3.6,3.4-5.1c1.2-2.1,2-3.5,3.6-3.8c0.3,0,0.6,0,0.9,0
	c-0.1-1.1-0.3-2.5-1.1-3.6c-0.7-0.9-1.7-1.5-3.1-1.7c-1.9-0.3-3.1,2.3-4.3,5.5c-0.7,1.8-1.2,3.1-2,3.7c-1.2,0.8-2.2,0.7-2.9,0.5
	C3.2,12.7,2.9,12.6,2.6,12.3z"/>
<path class="st1" d="M64.1,25c-0.2,0-0.4-0.1-0.6-0.2c-0.4-0.3-0.5-0.9-0.2-1.3c1.4-1.9,1.2-4.5-0.5-6.2c-0.4-0.4-0.4-1,0-1.3
	c0.4-0.4,1-0.4,1.3,0c2.4,2.3,2.6,6,0.6,8.7C64.7,24.8,64.4,25,64.1,25z"/>
<path class="st1" d="M68.6,25.2c-0.2,0-0.4-0.1-0.6-0.2c-0.4-0.3-0.5-0.9-0.2-1.3c1.2-1.5,1-3.7-0.4-5c-0.4-0.4-0.4-1,0-1.3
	c0.4-0.4,1-0.4,1.3,0c2,2,2.3,5.2,0.5,7.5C69.1,25.1,68.9,25.2,68.6,25.2z"/>
</svg>
