<?xml version="1.0" encoding="utf-8"?>
<!-- Generator: Adobe Illustrator 23.0.0, SVG Export Plug-In . SVG Version: 6.00 Build 0)  -->
<svg version="1.1" id="Calque_1" xmlns="http://www.w3.org/2000/svg" xmlns:xlink="http://www.w3.org/1999/xlink" x="0px" y="0px"
	 viewBox="0 0 50 40" style="enable-background:new 0 0 50 40;" xml:space="preserve">
<style type="text/css">
	.st0{fill:none;}
	.st1{opacity:0.55;fill:#FFFFFF;}
	.st2{fill:#FFFFFF;}
	.st3{opacity:0.53;fill:#FFFFFF;}
</style>
<rect class="st0" width="50" height="40"/>
<circle class="st1" cx="33.3" cy="32.6" r="6.6"/>
<g>
	<g>
		<path class="st2" d="M25.4,36.1H10.7c-0.4,0-0.8-0.4-0.8-0.8V4.5c0-0.4,0.4-0.8,0.8-0.8h3.6c0.4,0,0.8,0.4,0.8,0.8
			c0,0.4-0.4,0.8-0.8,0.8h-2.8v29.2h13.9c0.4,0,0.8,0.4,0.8,0.8C26.2,35.7,25.8,36.1,25.4,36.1z"/>
		<path class="st2" d="M33.5,25.4c-0.4,0-0.8-0.4-0.8-0.8V5.3h-2.9c-0.4,0-0.8-0.4-0.8-0.8c0-0.4,0.4-0.8,0.8-0.8h3.7
			c0.4,0,0.8,0.4,0.8,0.8v20.1C34.3,25,33.9,25.4,33.5,25.4z"/>
		<path class="st2" d="M24.7,8h-5.5c-2.2,0-4.1-1.8-4.1-4.1c0-0.4,0.4-0.8,0.8-0.8h2.8C18.9,1.4,20.3,0,22.1,0s3.2,1.4,3.3,3.1H28
			c0.4,0,0.8,0.4,0.8,0.8C28.8,6.2,27,8,24.7,8z M16.9,4.7c0.3,1,1.2,1.7,2.3,1.7h5.5c1.1,0,2-0.7,2.3-1.7h-2.6
			c-0.2,0-0.5-0.1-0.6-0.3c-0.2-0.2-0.2-0.5-0.1-0.7c0-0.2,0.1-0.3,0.1-0.4c0-0.9-0.8-1.7-1.7-1.7c-0.9,0-1.7,0.8-1.7,1.7
			c0,0.1,0,0.3,0.1,0.4c0.1,0.2,0,0.5-0.1,0.7c-0.2,0.2-0.4,0.3-0.6,0.3H16.9z"/>
		<path class="st2" d="M16.5,16c-0.2,0-0.4-0.1-0.6-0.2l-2-2c-0.3-0.3-0.3-0.8,0-1.1s0.8-0.3,1.1,0l1.4,1.4l2.8-2.8
			c0.3-0.3,0.8-0.3,1.1,0c0.3,0.3,0.3,0.8,0,1.1L17,15.8C16.9,15.9,16.7,16,16.5,16z"/>
		<path class="st2" d="M16.5,22.9c-0.2,0-0.4-0.1-0.6-0.2l-2-2c-0.3-0.3-0.3-0.8,0-1.1c0.3-0.3,0.8-0.3,1.1,0l1.4,1.4l2.8-2.8
			c0.3-0.3,0.8-0.3,1.1,0c0.3,0.3,0.3,0.8,0,1.1L17,22.6C16.9,22.8,16.7,22.9,16.5,22.9z"/>
		<path class="st2" d="M16.5,29.7c-0.2,0-0.4-0.1-0.6-0.2l-2-2c-0.3-0.3-0.3-0.8,0-1.1c0.3-0.3,0.8-0.3,1.1,0l1.4,1.4l2.8-2.8
			c0.3-0.3,0.8-0.3,1.1,0c0.3,0.3,0.3,0.8,0,1.1L17,29.4C16.9,29.6,16.7,29.7,16.5,29.7z"/>
		<path class="st2" d="M30.3,14.4h-7.4c-0.4,0-0.8-0.4-0.8-0.8s0.4-0.8,0.8-0.8h7.4c0.4,0,0.8,0.4,0.8,0.8S30.7,14.4,30.3,14.4z"/>
		<path class="st2" d="M30.3,21.2h-7.4c-0.4,0-0.8-0.4-0.8-0.8c0-0.4,0.4-0.8,0.8-0.8h7.4c0.4,0,0.8,0.4,0.8,0.8
			C31.1,20.8,30.7,21.2,30.3,21.2z"/>
		<path class="st2" d="M26.6,28h-3.7c-0.4,0-0.8-0.4-0.8-0.8c0-0.4,0.4-0.8,0.8-0.8h3.7c0.4,0,0.8,0.4,0.8,0.8
			C27.4,27.7,27,28,26.6,28z"/>
	</g>
	<g>
		<path class="st2" d="M33.3,39.7c-3.9,0-7.1-3.2-7.1-7.1c0-3.9,3.2-7.1,7.1-7.1c3.9,0,7.1,3.2,7.1,7.1
			C40.4,36.5,37.2,39.7,33.3,39.7z M33.3,27c-3.1,0-5.5,2.5-5.5,5.5c0,3.1,2.5,5.5,5.5,5.5c3.1,0,5.5-2.5,5.5-5.5
			C38.8,29.5,36.3,27,33.3,27z"/>
		<path class="st2" d="M32.4,35.8c-0.2,0-0.4-0.1-0.6-0.2l-2.5-2.5c-0.3-0.3-0.3-0.8,0-1.1c0.3-0.3,0.8-0.3,1.1,0l2,2l3.7-3.7
			c0.3-0.3,0.8-0.3,1.1,0c0.3,0.3,0.3,0.8,0,1.1L33,35.6C32.8,35.7,32.6,35.8,32.4,35.8z"/>
	</g>
</g>
<path class="st3" d="M24.5,3.9c0.1-0.2,0.1-0.4,0.1-0.6c0-1.4-1.1-2.5-2.5-2.5c-1.4,0-2.5,1.1-2.5,2.5c0,0.2,0,0.4,0.1,0.6H16
	c0,1.8,1.5,3.3,3.3,3.3h5.5c1.8,0,3.3-1.5,3.3-3.3H24.5z"/>
</svg>
