<?xml version="1.0" encoding="utf-8"?>
<!-- Generator: Adobe Illustrator 24.0.0, SVG Export Plug-In . SVG Version: 6.00 Build 0)  -->
<svg version="1.1" id="Calque_1" xmlns="http://www.w3.org/2000/svg" xmlns:xlink="http://www.w3.org/1999/xlink" x="0px" y="0px"
	 viewBox="0 0 175 136" style="enable-background:new 0 0 175 136;" xml:space="preserve">
<style type="text/css">
	.st0{fill:#022C5E;}
</style>
<path class="st0" d="M170,16H5c-2.8,0-5-2.2-5-5V5c0-2.8,2.2-5,5-5h165c2.8,0,5,2.2,5,5v6C175,13.8,172.8,16,170,16z"/>
<path class="st0" d="M170,72H5c-2.8,0-5-2.2-5-5v-6c0-2.8,2.2-5,5-5h165c2.8,0,5,2.2,5,5v6C175,69.8,172.8,72,170,72z"/>
<path class="st0" d="M170,136H5c-2.8,0-5-2.2-5-5v-6c0-2.8,2.2-5,5-5h165c2.8,0,5,2.2,5,5v6C175,133.8,172.8,136,170,136z"/>
</svg>
