<?xml version="1.0" encoding="utf-8"?>
<!-- Generator: Adobe Illustrator 24.0.0, SVG Export Plug-In . SVG Version: 6.00 Build 0)  -->
<svg version="1.1" id="Calque_1" xmlns="http://www.w3.org/2000/svg" xmlns:xlink="http://www.w3.org/1999/xlink" x="0px" y="0px"
	 viewBox="0 0 175 136" style="enable-background:new 0 0 175 136;" xml:space="preserve">
<style type="text/css">
	.st0{fill:#022C5E;}
</style>
<path class="st0" d="M151.5,15.3L34.8,132c-1.9,1.9-5.1,1.9-7.1,0l-4.2-4.2c-1.9-1.9-1.9-5.1,0-7.1L140.2,4c1.9-1.9,5.1-1.9,7.1,0
	l4.2,4.2C153.4,10.2,153.4,13.4,151.5,15.3z"/>
<path class="st0" d="M140.2,132L23.5,15.3c-1.9-1.9-1.9-5.1,0-7.1L27.8,4c1.9-1.9,5.1-1.9,7.1,0l116.7,116.7c1.9,1.9,1.9,5.1,0,7.1
	l-4.2,4.2C145.3,133.9,142.1,133.9,140.2,132z"/>
</svg>
