<?xml version="1.0" encoding="utf-8"?>
<!-- Generator: Adobe Illustrator 23.0.2, SVG Export Plug-In . SVG Version: 6.00 Build 0)  -->
<svg version="1.1" id="Calque_1" xmlns="http://www.w3.org/2000/svg" xmlns:xlink="http://www.w3.org/1999/xlink" x="0px" y="0px"
	 viewBox="0 0 80 50" style="enable-background:new 0 0 80 50;" xml:space="preserve">
<style type="text/css">
	.st0{fill:none;}
	.st1{fill:#FFFFFF;}
</style>
<rect class="st0" width="80" height="50"/>
<g>
	<polygon class="st1" points="64.3,25.7 44.3,25.7 44.3,15.8 64.3,15.8 59.9,21.2 	"/>
	<g>
		<path class="st1" d="M35.3,41.4c-0.5,0-0.9-0.4-0.9-0.9V0.9c0-0.5,0.4-0.9,0.9-0.9s0.9,0.4,0.9,0.9v39.6
			C36.2,41,35.8,41.4,35.3,41.4z"/>
	</g>
	<g>
		<path class="st1" d="M66.1,27H44.3c-0.5,0-0.9-0.4-0.9-0.9s0.4-0.9,0.9-0.9h19l-4.7-3.4c-0.2-0.2-0.4-0.4-0.4-0.7
			c0-0.3,0.1-0.5,0.3-0.7l5.1-4.2H44.3c-0.5,0-0.9-0.4-0.9-0.9s0.4-0.9,0.9-0.9h21.8c0.4,0,0.7,0.2,0.8,0.6c0.1,0.4,0,0.8-0.3,1
			l-6.1,5.1l6.1,4.3c0.3,0.2,0.5,0.6,0.3,1C66.8,26.8,66.5,27,66.1,27z"/>
	</g>
	<g>
		<path class="st1" d="M44.3,27c-0.5,0-0.9-0.4-0.9-0.9V15.2c0-0.2,0.1-0.5,0.2-0.6l7-7.4H35.3c-0.5,0-0.9-0.4-0.9-0.9
			s0.4-0.9,0.9-0.9h17.4c0.4,0,0.7,0.2,0.8,0.5s0.1,0.7-0.2,1l-8.2,8.6v10.6C45.2,26.6,44.8,27,44.3,27z"/>
	</g>
	<g>
		<path class="st1" d="M52.4,16.2c-0.5,0-0.9-0.4-0.9-0.9v-9c0-0.5,0.4-0.9,0.9-0.9s0.9,0.4,0.9,0.9v9
			C53.3,15.8,52.9,16.2,52.4,16.2z"/>
	</g>
	<g>
		<path class="st1" d="M44.3,18h-9c-0.5,0-0.9-0.4-0.9-0.9s0.4-0.9,0.9-0.9h9c0.5,0,0.9,0.4,0.9,0.9S44.8,18,44.3,18z"/>
	</g>
	<rect x="26.1" y="41.3" class="st1" width="18.2" height="1.9"/>
	<rect x="19.7" y="44.5" class="st1" width="31" height="5.5"/>
</g>
</svg>
