<?xml version="1.0" encoding="utf-8"?>
<!-- Generator: Adobe Illustrator 23.0.0, SVG Export Plug-In . SVG Version: 6.00 Build 0)  -->
<svg version="1.1" id="Calque_1" xmlns="http://www.w3.org/2000/svg" xmlns:xlink="http://www.w3.org/1999/xlink" x="0px" y="0px"
	 viewBox="0 0 50 40" style="enable-background:new 0 0 50 40;" xml:space="preserve">
<style type="text/css">
	.st0{fill:none;}
	.st1{fill:#022C5E;}
	.st2{opacity:0.49;fill:#022C5E;}
</style>
<rect class="st0" width="50" height="40"/>
<g>
	<g id="Element_10_">
		<path class="st1" d="M46,38.5l-7.2-16.8c-0.1-0.3-0.4-0.6-0.8-0.6c-0.3-0.1-0.7,0-0.9,0.3l-5.3,5.4l-5.7-9.2V9.2h10.5
			c0.4,0,0.8-0.3,1-0.6c0.2-0.4,0.1-0.8-0.2-1.1l-2.8-2.8l2.8-2.8c0.3-0.3,0.4-0.8,0.2-1.1c-0.2-0.4-0.5-0.6-1-0.6H25
			c-0.6,0-1.1,0.5-1.1,1.1v16.5l-5.7,9.2l-5.3-5.4c-0.2-0.3-0.6-0.4-0.9-0.3c-0.3,0.1-0.6,0.3-0.8,0.6L4.1,38.5
			c-0.1,0.3-0.1,0.7,0.1,1C4.4,39.8,4.7,40,5.1,40H45c0.4,0,0.7-0.2,0.9-0.5C46.1,39.2,46.1,38.9,46,38.5z M26.1,2.2h8l-1.7,1.7
			c-0.4,0.4-0.4,1.1,0,1.5l1.7,1.7h-8V2.2z M12.7,24l4.5,4.7l-5.7,9.2H6.7L12.7,24z M14.7,37.9H14l11.1-18l11.1,18H14.7z M38.6,37.9
			l-5.7-9.2l4.5-4.7l6,13.9H38.6z"/>
	</g>
	<polygon class="st2" points="14,37.9 14.7,37.9 36.1,37.9 25,19.9 	"/>
	<path class="st2" d="M32.4,5.4c-0.4-0.4-0.4-1.1,0-1.5l1.7-1.7h-8v4.9h8L32.4,5.4z"/>
</g>
</svg>
