<?xml version="1.0" encoding="utf-8"?>
<!-- Generator: Adobe Illustrator 23.0.0, SVG Export Plug-In . SVG Version: 6.00 Build 0)  -->
<svg version="1.1" id="Calque_1" xmlns="http://www.w3.org/2000/svg" xmlns:xlink="http://www.w3.org/1999/xlink" x="0px" y="0px"
	 viewBox="0 0 80 50" style="enable-background:new 0 0 80 50;" xml:space="preserve">
<style type="text/css">
	.st0{fill:none;}
	.st1{fill:#FFFFFF;}
	.st2{fill:#59565F;stroke:#5E5D5C;stroke-width:15;stroke-linecap:round;stroke-linejoin:round;stroke-miterlimit:10;}
</style>
<rect class="st0" width="80" height="50"/>
<path class="st1" d="M23.4,17.9c-7.1,1.2-14.6,2-18.6,2.1c0.3,1.5,1.3,5.1,3,9.2c0.5,1.3,1.2,2.8,2,4.4c1.5-0.5,3-0.3,4.5,0.1
	c0.5,0.1,0.9,0.7,0.8,1.2c-0.1,0.5-0.5,0.3-1.1,0.2c-1.4-0.3-2.3-0.5-3.1-0.3c1.6,3,3.4,6.7,5.7,9.1c2.9,3.1,5.9,4.7,8.8,4.7
	c0.7,0,1.5-0.1,2.2-0.3c5.7-1.5,9.3-7.3,10.8-17.2c0.5-3.4,1-9.1,0.5-16.8C35,15.9,27.8,17.2,23.4,17.9z M15.9,26.8
	c-1.3,0.4-2.2,1.2-2.5,2.1c-0.1,0.4-0.5,0.7-1,0.7c-0.1,0-0.2,0-0.3,0c-0.5-0.2-0.8-0.7-0.7-1.3c0.5-1.7,1.9-2.9,3.9-3.5
	c2.1-0.6,4.3-0.3,5.6,0.9c0.4,0.4,0.5,1,0.1,1.4c-0.4,0.4-1,0.5-1.4,0.1C18.8,26.6,17.3,26.4,15.9,26.8z M33.2,38.7
	c-2.1,2.4-4.7,3.7-7.6,3.9c-0.2,0-0.4,0-0.6,0c-0.4,0-0.9,0.1-1.4,0.1c-1.5,0-3.4-0.3-6.4-2c-0.5-0.3-0.7-0.9-0.4-1.4
	c0.3-0.5,0.9-0.7,1.4-0.4c3.5,1.9,5.1,1.8,6.7,1.7c0.2,0,0.4,0,0.6,0c2.4-0.1,4.5-1.2,6.2-3.2c0.4-0.4,1-0.5,1.4-0.1
	C33.5,37.6,33.6,38.2,33.2,38.7z M34.5,25.8c-0.5,0.3-1.1,0.2-1.4-0.3c-0.6-0.9-1.7-1.3-3-1.3c-1.5,0-2.9,0.7-3.4,1.5
	c-0.2,0.3-0.5,0.5-0.9,0.5c-0.2,0-0.4,0-0.5-0.2c-0.5-0.3-0.6-0.9-0.3-1.4c0.9-1.5,2.9-2.4,5.1-2.5c2.1,0,3.8,0.8,4.8,2.2
	C35.1,24.9,35,25.5,34.5,25.8z"/>
<g>
	<path class="st1" d="M25.6,50c-7,0-12.5-7.5-15.9-13.7c-3.7-7-6-14.4-6.1-16.6c-0.1-1.2,0.5-1.5,0.9-1.6c0.1,0,0.1,0,0.2,0
		c0.2,0,0.4,0,0.6,0c8,0,29.9-3.4,34-6c0.3-0.2,0.7-0.2,1-0.1c0.3,0.2,0.5,0.5,0.5,0.8c0,0.1,0,0.2,0,0.4c0.7,9.7,1,32.7-12.5,36.4
		C27.4,49.9,26.4,50,25.6,50z M5.6,20.1c0.3,1.5,1.3,4.9,2.9,9c1.7,4.2,4.6,10.2,8.5,14.3c2.8,3,5.7,4.6,8.6,4.6
		c0.7,0,1.4-0.1,2.2-0.3c5.5-1.5,9.1-7.1,10.6-16.8c0.5-3.4,1-8.9,0.5-16.4c-3.7,1.5-10.8,2.9-15.1,3.6C16.8,19.3,9.4,20.1,5.6,20.1
		z"/>
</g>
<g>
	<path class="st1" d="M42.7,42.7c-0.8,0-1.6-0.1-2.4-0.2c-0.1,0-0.2,0-0.3-0.1c-0.5-0.1-0.9-0.6-0.8-1.2c0.1-0.5,0.6-0.9,1.2-0.8
		c0.1,0,0.2,0,0.2,0c5.6,1.1,11.3-2.4,16.9-10.4c1.9-2.8,4.8-7.5,7.7-14.5C58.1,15.1,39.5,9.1,32.9,6c-0.3,1-0.7,3.2-1.1,6.2
		c-0.1,0.5-0.5,0.9-1.1,0.9c-0.5-0.1-0.9-0.5-0.9-1.1c0.2-1.9,0.5-3.8,0.8-5.3c0.5-2.2,0.8-2.6,1.1-2.8c0.3-0.2,0.6-0.2,0.9-0.1
		c0.1,0,0.1,0,0.2,0.1c2.9,1.5,10,4.1,17.2,6.3c8.1,2.5,14.3,3.8,16.5,3.5c0.4,0,0.7,0.1,0.9,0.4c0.2,0.3,0.3,0.7,0.1,1
		c0,0.1-0.1,0.2-0.1,0.3C64.1,23.8,55.2,42.7,42.7,42.7z"/>
</g>
<g>
	<path class="st1" d="M54.1,23.5c-0.7,0-1.4-0.1-2.2-0.3c-1.9-0.6-3.3-1.9-3.7-3.5c-0.1-0.5,0.2-1.1,0.7-1.2
		c0.5-0.1,1.1,0.2,1.2,0.7c0.3,1,1.1,1.8,2.4,2.2c1.4,0.4,2.8,0.3,3.6-0.4c0.4-0.3,1-0.3,1.4,0.1c0.3,0.4,0.3,1-0.1,1.4
		C56.6,23.2,55.4,23.5,54.1,23.5z"/>
</g>
<g>
	<path class="st1" d="M49.6,35.7c-0.3,0-0.5-0.1-0.7-0.3c-2.7-2.7-4.3-3-5.8-3.3c-0.2,0-0.4-0.1-0.6-0.1c-0.3-0.1-0.6-0.1-0.9-0.2
		c-0.5-0.1-0.9-0.5-0.9-1.1c0.1-0.5,0.5-0.9,1.1-0.9c0.4,0,0.8,0.1,1.2,0.2c0.2,0,0.4,0.1,0.6,0.1c1.7,0.3,3.7,0.7,6.8,3.9
		c0.4,0.4,0.4,1,0,1.4C50.1,35.6,49.9,35.7,49.6,35.7z"/>
</g>
<g>
	<path class="st1" d="M75,33.3c-1.3,0-2.7-0.4-3.8-1.2c-0.9-0.7-1.2-1.9-1.5-2.9c-0.2-0.8-0.4-1.5-0.8-1.8C68,26.6,67,26.5,64.8,27
		c-0.5,0.1-1.1-0.2-1.2-0.7c-0.1-0.5,0.2-1.1,0.7-1.2c1.9-0.5,4-0.8,5.8,0.7c0.9,0.7,1.2,1.8,1.5,2.8c0.2,0.8,0.4,1.5,0.9,1.9
		c1.4,1.2,4,0.9,5.1,0.1c0.4-0.3,1.1-0.2,1.4,0.2c0.3,0.4,0.2,1.1-0.2,1.4C77.9,32.9,76.5,33.3,75,33.3z"/>
</g>
<g>
	<path class="st1" d="M4.1,41.6c-1.4,0-2.8-0.4-3.7-1c-0.4-0.3-0.5-0.9-0.2-1.4c0.3-0.4,0.9-0.5,1.4-0.2c1.1,0.8,3.6,1,5.1-0.1
		C7,38.5,7.2,37.8,7.5,37c0.3-1,0.6-2.1,1.5-2.8c1.8-1.5,3.9-1.2,5.8-0.7c0.5,0.1,0.9,0.7,0.7,1.2c-0.1,0.5-0.7,0.9-1.2,0.7
		c-2.2-0.5-3.2-0.4-4.1,0.3c-0.4,0.3-0.6,1.1-0.8,1.8c-0.3,1-0.6,2.1-1.5,2.9C6.8,41.3,5.4,41.6,4.1,41.6z"/>
</g>
</svg>
