<?xml version="1.0" encoding="utf-8"?>
<!-- Generator: Adobe Illustrator 23.0.2, SVG Export Plug-In . SVG Version: 6.00 Build 0)  -->
<svg version="1.1" id="Calque_1" xmlns="http://www.w3.org/2000/svg" xmlns:xlink="http://www.w3.org/1999/xlink" x="0px" y="0px"
	 viewBox="0 0 80 50" style="enable-background:new 0 0 80 50;" xml:space="preserve">
<style type="text/css">
	.st0{fill:none;}
	.st1{fill:#FFFFFF;}
</style>
<rect class="st0" width="80" height="50"/>
<g>
	<path class="st1" d="M41.8,36.7c10.1,0,18.3-8.2,18.3-18.4C60.1,8.2,51.9,0,41.8,0S23.5,8.2,23.5,18.4
		C23.5,28.5,31.7,36.7,41.8,36.7z M41.8,2.3c8.8,0,16,7.2,16,16s-7.2,16-16,16s-16-7.2-16-16S33,2.3,41.8,2.3z"/>
	<path class="st1" d="M57.9,31.6c-4,4.9-9.8,7.6-16.1,7.6C30.3,39.2,21,29.8,21,18.4c0-5.1,1.8-9.9,5.2-13.8
		c0.4-0.5,0.4-1.2-0.1-1.6s-1.2-0.4-1.6,0.1c-3.7,4.2-5.7,9.7-5.7,15.3c0,12.8,10.4,23.2,23.1,23.2c7,0,13.5-3.1,17.9-8.5
		c0.4-0.5,0.3-1.2-0.2-1.6C59,31,58.3,31.1,57.9,31.6z"/>
	<path class="st1" d="M31.6,16c0.4,0.3,0.9,0.7,1.3,1c0.7,0.4,1,0.3,1.9,0.5c1.5,0.3,1,2.5,2.1,2.8c0.9,0.3,1-0.8,1.7-0.7
		c0.8,0.1,0.7,0.9,0.8,1.5c0.3,1.6-0.2,1.8-0.3,3.1c-0.2,1.8,1.2,1.6,2.1,2.5c1.1,1.1,0.4,2.7,0.2,3.9c-0.2,2.1,1.1,1.6,2.2,0.7
		c2.3-1.9,5-3.6,7-5.8c0.8-0.9,2-2.3,0.5-3.3c-1.1-0.7-2.1-0.3-3.2-1.5c-1.8-2.1-4.8-2.5-7.6-2.5c-1.7,0-2.1-0.1-3.1-1.2
		c-0.7-0.8-2-1.9-0.4-2.7c1.1-0.6,2.7,0.3,3.8-0.4c1.2-0.7,1.3-2.2,2.5-2.9c0.4-0.3,1.2-0.7,1.7-0.8c0.6-0.2,1.4,0.1,1.9-0.2
		c1.4-0.6,0.6-2-0.4-2.7c-1.3-0.9-2.8-1-4.3-0.9c-0.8,0-1.6,0.3-2.4,0.2C39.2,6.4,38.7,6,38,6c-1.4-0.1-2.7,0.3-3.7,1.3
		c-0.8,0.8-0.9,2-1.7,2.8c-0.9,0.9-1.9,1.6-2.2,2.8C30.1,14.2,30.6,15.2,31.6,16z"/>
	<path class="st1" d="M49.9,12.8c0,0.7-0.5,1.1-0.5,1.7c0,2.2,2.9-0.1,3.4,1.5c0.3,1.1-1.4,3.1,0.4,3.9c1.7,0.8,1.4-1.9,1.4-2.9
		c-0.1-1.7-0.7-3.3-1.6-4.7c-0.4-0.7-0.9-1.4-1.5-2C51,10,50.4,9.2,49.9,9.1c-0.7-0.1-0.6,1.6-0.5,2.1
		C49.4,11.8,49.8,12.3,49.9,12.8z"/>
	<path class="st1" d="M41.8,43.1c-3.9,0-7.6,1.9-9.8,5.1c-0.4,0.5-0.2,1.2,0.3,1.6c0.2,0.1,0.4,0.2,0.7,0.2h0.1h0.1h17.1
		c0.1,0,0.2,0,0.2,0c0.3,0.1,0.6,0,0.9-0.2c0.5-0.4,0.6-1.1,0.3-1.6C49.4,45,45.7,43.1,41.8,43.1z M48.1,47.7H35.5
		c1.7-1.5,4-2.3,6.3-2.3S46.3,46.2,48.1,47.7z"/>
</g>
</svg>
