<?xml version="1.0" encoding="utf-8"?>
<!-- Generator: Adobe Illustrator 23.0.0, SVG Export Plug-In . SVG Version: 6.00 Build 0)  -->
<svg version="1.1" id="Calque_1" xmlns="http://www.w3.org/2000/svg" xmlns:xlink="http://www.w3.org/1999/xlink" x="0px" y="0px"
	 viewBox="0 0 50 40" style="enable-background:new 0 0 50 40;" xml:space="preserve">
<style type="text/css">
	.st0{fill:none;}
	.st1{opacity:0.5;fill:#022C5E;}
	.st2{fill:#022C5E;}
</style>
<rect class="st0" width="50" height="40"/>
<path class="st1" d="M22,24L22,24c0.1,0,0.6,0.1,1.4-0.2l0.4-0.1l0.3,0.2c0,0,0.4,0.2,0.9,0.2c0.5,0,0.9-0.2,0.9-0.2l0.3-0.2
	l0.4,0.1c0.5,0.2,1,0.2,1.2,0.2c0.1,0,0.1,0,0.2,0l0.1,0c1.9-0.1,3.5-2.7,4-3.7c1.8-3.8,1.6-7.4,1.6-7.4c-0.2-3-1.7-4.5-4.5-4.5
	c-0.7,0-1.2,0.1-1.3,0.1C26.7,8.8,26,9,25.5,9c-0.1,0-0.1,0-0.2,0c0,0,0,0-0.1,0c0,0,0,0-0.1,0c-0.1,0-0.2,0-0.2,0
	c-0.2,0-1,0-2.9-0.6c-0.1,0-0.6-0.1-1.3-0.1c-2.8,0-4.3,1.5-4.5,4.5c0,0-0.2,3.6,1.6,7.4C18.4,21.3,20.1,23.9,22,24z M17.4,15
	c-0.2-2,0.1-3.5,1-4.5c1-1.1,2.2-1.2,2.3-1.2c0.3,0,0.6,0.2,0.6,0.6c0,0.3-0.2,0.6-0.5,0.6c0,0-0.9,0.1-1.5,0.8
	c-0.6,0.8-0.9,2-0.7,3.6c0,0.3-0.2,0.6-0.5,0.6c0,0,0,0-0.1,0C17.7,15.5,17.4,15.3,17.4,15z"/>
<g>
	<path class="st2" d="M21.8,25.7c0.2,0,0.8,0.1,1.7-0.2c0.3,0.1,0.8,0.3,1.5,0.3c0.6,0,1.1-0.2,1.5-0.3c0.6,0.1,1,0.2,1.4,0.2h0
		c0.2,0,0.3,0,0.3,0c3.3-0.2,5.4-4.5,5.5-4.7c2.1-4.3,1.8-8.1,1.8-8.3c-0.3-5.5-4.5-6.1-6.3-6.1c-1,0-1.7,0.2-1.7,0.2l0,0
		c-0.5,0.1-0.9,0.2-1.2,0.3c0.1-1.1,0.4-2.8,1.5-4c0.3-0.4,0.3-0.9-0.1-1.2c-0.4-0.3-0.9-0.3-1.2,0.1c-0.3,0.3-0.5,0.7-0.7,1
		c-0.6-1.3-1.9-2.7-4.3-2.7c-1.2,0-2.7,0.4-4.3,1l-0.6,0.3l0.4,0.6c0.1,0.2,2.6,3.8,5.9,3.8c0,0,0,0,0,0c0.7,0,1.3-0.1,1.9-0.4
		c-0.1,0.7-0.2,1.2-0.2,1.7C24,7.2,23.5,7,22.6,6.8l0,0c0,0-0.7-0.2-1.7-0.2c-1.8,0-6,0.6-6.3,6.1c0,0.2-0.3,4,1.8,8.3
		C16.5,21.2,18.5,25.5,21.8,25.7z M22.7,4.8c-2,0-3.7-1.8-4.5-2.7c1.2-0.4,2.2-0.7,3.1-0.7c2.6,0,3.3,1.9,3.5,2.7
		C24.1,4.5,23.4,4.8,22.7,4.8C22.7,4.8,22.7,4.8,22.7,4.8z M16.3,12.8c0.2-3,1.7-4.5,4.5-4.5c0.7,0,1.2,0.1,1.3,0.1
		C24,9,24.8,9.1,25,9c0.1,0,0.1,0,0.2,0c0,0,0,0,0.1,0c0,0,0,0,0.1,0c0.1,0,0.1,0,0.2,0c0.4-0.1,1.2-0.2,2.3-0.5
		c0.1,0,0.6-0.1,1.3-0.1c2.8,0,4.3,1.5,4.5,4.5c0,0,0.2,3.6-1.6,7.4c-0.5,1-2.1,3.6-4,3.7L28,24c0,0-0.1,0-0.2,0
		c-0.2,0-0.6,0-1.2-0.2l-0.4-0.1l-0.3,0.2c0,0-0.4,0.2-0.9,0.2c-0.5,0-0.9-0.2-0.9-0.2l-0.3-0.2l-0.4,0.1C22.6,24,22.1,24,22,24
		L22,24c-1.9-0.1-3.5-2.7-4-3.7C16.1,16.4,16.3,12.9,16.3,12.8z"/>
	<path class="st2" d="M18.5,14.8c-0.2-1.6,0.1-2.8,0.7-3.6c0.6-0.8,1.4-0.8,1.5-0.8c0.3,0,0.6-0.3,0.5-0.6c0-0.3-0.3-0.6-0.6-0.6
		c-0.1,0-1.3,0.1-2.3,1.2c-0.9,1-1.2,2.6-1,4.5c0,0.3,0.3,0.5,0.6,0.5c0,0,0,0,0.1,0C18.3,15.4,18.6,15.1,18.5,14.8z"/>
	<path class="st2" d="M43,38.2h-1c-1.1-3.8-0.4-7.5,0-8.9h1.2c0.5,0,0.9-0.4,0.9-0.9c0-0.5-0.4-0.9-0.9-0.9H12.3
		c-3.4,0-6.2,2.8-6.2,6.2c0,3.4,2.8,6.2,6.2,6.2H43c0.5,0,0.9-0.4,0.9-0.9C43.8,38.6,43.4,38.2,43,38.2z M7.8,33.8
		c0-2.5,2-4.5,4.5-4.5h28.4c-0.4,1.7-1,5.2,0,8.9H12.3C9.8,38.2,7.8,36.2,7.8,33.8z"/>
	<path class="st2" d="M37.4,31.8H11.8c-0.3,0-0.6,0.3-0.6,0.6c0,0.3,0.3,0.6,0.6,0.6h25.6c0.3,0,0.6-0.3,0.6-0.6
		C38,32,37.7,31.8,37.4,31.8z"/>
	<path class="st2" d="M37.4,35.2H11.8c-0.3,0-0.6,0.3-0.6,0.6c0,0.3,0.3,0.6,0.6,0.6h25.6c0.3,0,0.6-0.3,0.6-0.6
		C38,35.5,37.7,35.2,37.4,35.2z"/>
</g>
</svg>
