<?xml version="1.0" encoding="utf-8"?>
<!-- Generator: Adobe Illustrator 23.0.2, SVG Export Plug-In . SVG Version: 6.00 Build 0)  -->
<svg version="1.1" id="Layer_1" xmlns="http://www.w3.org/2000/svg" xmlns:xlink="http://www.w3.org/1999/xlink" x="0px" y="0px"
	 viewBox="0 0 377.44 376.44" style="enable-background:new 0 0 377.44 376.44;" xml:space="preserve">
<style type="text/css">
	.st0{fill:#1F2E59;}
	.st1{fill:#FFFFFF;}
	.st2{fill:#263B73;}
	.st3{fill-rule:evenodd;clip-rule:evenodd;fill:#1F2E59;}
</style>
<g>
	<g>
		
			<ellipse transform="matrix(0.1623 -0.9867 0.9867 0.1623 -27.6374 343.8905)" class="st0" cx="188.72" cy="188.22" rx="178.61" ry="178.61"/>
		<path class="st0" d="M188.72,366.96c-24.13,0-47.54-4.73-69.57-14.05c-21.28-9-40.4-21.89-56.81-38.31s-29.3-35.53-38.3-56.81
			c-9.32-22.04-14.05-45.44-14.05-69.57c0-24.13,4.73-47.54,14.05-69.57c9-21.28,21.89-40.4,38.3-56.81
			c16.42-16.41,35.53-29.3,56.81-38.3c22.04-9.32,45.44-14.05,69.57-14.05c24.13,0,47.54,4.73,69.57,14.05
			c21.28,9,40.4,21.89,56.81,38.3c16.42,16.42,29.3,35.53,38.31,56.81c9.32,22.04,14.05,45.44,14.05,69.57
			c0,24.13-4.73,47.54-14.05,69.57c-9,21.28-21.89,40.4-38.31,56.81s-35.53,29.3-56.81,38.31
			C236.26,362.23,212.85,366.96,188.72,366.96z M188.72,9.73c-24.1,0-47.47,4.72-69.48,14.03C97.99,32.75,78.9,45.62,62.51,62.01
			C46.12,78.4,33.25,97.49,24.26,118.75c-9.31,22-14.03,45.38-14.03,69.48c0,24.1,4.72,47.47,14.03,69.47
			c8.99,21.25,21.86,40.34,38.25,56.73c16.39,16.39,35.48,29.26,56.73,38.25c22,9.31,45.38,14.03,69.48,14.03
			s47.47-4.72,69.48-14.03c21.25-8.99,40.34-21.86,56.73-38.25c16.39-16.39,29.26-35.48,38.25-56.73
			c9.31-22,14.03-45.38,14.03-69.47c0-24.1-4.72-47.47-14.03-69.48c-8.99-21.25-21.86-40.34-38.25-56.73
			c-16.39-16.39-35.48-29.26-56.73-38.25C236.19,14.45,212.81,9.73,188.72,9.73z"/>
	</g>
	
		<ellipse transform="matrix(0.1476 -0.989 0.989 0.1476 -25.3015 347.0851)" class="st1" cx="188.72" cy="188.22" rx="172.66" ry="172.66"/>
	<g>
		<path class="st0" d="M67.78,274.39c0.07,0.05,0.17-0.1,0.15-0.18c-0.33-1.47-0.54-3.9,1.63-5.53c1.59-1.19,3.16-1.25,4.68-0.71
			c1.57,0.5,3.2,2.12,4.04,3.24c0.47,0.63,1.99,2.84,2.77,3.88c0.39,0.52,0.81,1.04,1.1,1.42c0.25,0.34,0.4,0.72,0.2,0.87
			c-0.18,0.13-0.55-0.08-0.78-0.29c-1.48-1.37-1.77-1.15-2.63-0.65c-0.52,0.29-3.02,1.99-7.48,5.33c-1.93,1.44-3.15,2.47-3.44,2.79
			c-0.41,0.48-0.6,0.73,0.16,2.08c0.17,0.32,0.26,0.72,0.08,0.85c-0.18,0.13-0.51-0.07-0.75-0.39l-1.13-1.5
			c-0.54-0.72-2.14-2.53-2.83-3.44c-0.99-1.32-1.64-2.65-1.72-3.65c-0.15-1.6,0.62-2.95,1.63-3.71
			C65.21,273.49,66.76,273.93,67.78,274.39z M64.55,282.03c0.1,0.13,0.63,0.65,0.9,0.83c0.06,0.03,0.45,0.04,0.56,0
			c0.39-0.22,1.47-0.89,5.07-3.59c0.11-0.08,0.26-0.26,0.11-0.46c-0.74-0.99-2.15-2.45-2.93-2.74c-1.01-0.36-2.29-0.21-3.23,0.5
			C63.21,277.92,62.98,279.95,64.55,282.03z M69.84,274.67c0.14,0.84,0.73,1.86,1.36,2.69c0.39,0.52,0.82,0.86,0.9,0.87
			c0.1-0.01,0.24-0.01,0.77-0.33c0.86-0.54,3.74-2.77,4.44-3.47c0.14-0.14,0.44-0.54,0.47-0.91c0.16-0.86-0.16-1.8-0.38-2.09
			c-1.41-1.88-3.88-2.41-6.03-0.8C70.01,271.63,69.57,273.19,69.84,274.67z"/>
		<path class="st0" d="M58.34,269.35c-1.05,0.74-1.41,0.96-0.83,2.45c0.23,0.58,0.15,0.83-0.02,0.93c-0.19,0.12-0.45-0.09-0.65-0.42
			c-0.38-0.62-1.04-1.86-1.52-2.65c-0.72-1.17-1.12-1.68-1.64-2.51c-0.23-0.38-0.27-0.66-0.08-0.77c0.19-0.12,0.48,0.03,0.79,0.37
			c1.13,1.21,1.72,0.82,2.42,0.52c0.86-0.36,2.43-1.29,7.11-4.15c1.31-0.8,2.78-1.73,3.51-2.25c1.25-0.86,1.63-1.26,0.99-3
			c-0.19-0.47-0.14-0.77,0.03-0.87c0.19-0.12,0.53,0.17,0.71,0.46c0.75,1.22,1.64,3,2.04,3.65c0.44,0.72,0.62,0.9,1.16,1.79
			c0.28,0.45,0.21,0.72,0.05,0.83c-0.17,0.1-0.46-0.05-0.84-0.47c-0.99-1.03-1.41-0.91-2.59-0.32c-0.88,0.44-3.39,1.91-5.42,3.16
			C62.04,266.99,59.1,268.82,58.34,269.35z"/>
		<path class="st0" d="M50.82,262.15c-0.33-0.68-0.5-1.16-0.86-1.88c-0.48-0.98-1.39-2.65-1.69-3.26c-0.22-0.45-0.21-0.68-0.03-0.76
			c0.18-0.09,0.43,0.04,0.71,0.37c1.04,1.3,1.4,1.34,1.81,1.2c1.2-0.4,3.74-1.65,7.46-3.47c1.96-0.96,4.34-2.22,5.12-2.73
			c0.33-0.22,0.61-1.11,0.54-1.32c-0.22-0.7-0.65-1.65-1.06-2.47c-0.35-0.7-0.72-1.39-0.95-1.75c-0.12-0.19-0.27-0.49-0.97-0.77
			c-0.52-0.18-1.1-0.4-2.39-0.61c-0.59-0.05-0.8-0.23-0.86-0.36c-0.06-0.13,0.18-0.34,0.63-0.43c1.43-0.2,2.04-0.29,3.1-0.55
			c0.29-0.11,0.67,0.29,0.72,0.39c0.15,0.3,1.12,2.66,3.62,7.76c0.84,1.71,1.54,2.83,1.72,3.18c0.23,0.48,0.31,0.75,0.08,0.86
			c-0.18,0.09-0.48-0.02-0.75-0.38c-0.95-1.25-1.6-1.36-2.65-1.01c-0.65,0.26-4.69,2.14-8.33,3.93c-1.01,0.49-2.74,1.34-3.56,1.78
			c-0.54,0.3-0.96,0.66-0.6,1.95c0.15,0.55,0.04,0.85-0.13,0.94C51.31,262.84,51.09,262.7,50.82,262.15z"/>
		<path class="st0" d="M45.54,243.8c-1.17,0.53-1.57,0.68-1.27,2.25c0.11,0.62-0.01,0.84-0.19,0.91c-0.21,0.08-0.42-0.17-0.56-0.54
			c-0.26-0.68-0.68-2.02-1-2.88c-0.49-1.28-0.79-1.86-1.14-2.77c-0.16-0.42-0.14-0.69,0.07-0.77c0.21-0.08,0.47,0.12,0.7,0.51
			c0.89,1.4,1.53,1.13,2.28,0.96c0.91-0.2,2.63-0.81,7.76-2.76c1.44-0.55,3.05-1.19,3.87-1.56c1.38-0.61,1.83-0.93,1.53-2.76
			c-0.1-0.5,0-0.78,0.19-0.85c0.21-0.08,0.49,0.26,0.61,0.58c0.51,1.34,1.05,3.25,1.32,3.96c0.3,0.79,0.44,1,0.81,1.97
			c0.19,0.5,0.07,0.75-0.11,0.82c-0.18,0.07-0.44-0.13-0.74-0.62c-0.78-1.2-1.22-1.16-2.49-0.79c-0.95,0.27-3.69,1.25-5.92,2.09
			C49.63,242.16,46.39,243.42,45.54,243.8z"/>
		<path class="st0" d="M39.21,235.11c-0.15-0.6-0.4-1.95-0.74-3.34c-0.04-0.16,0.09-0.46,0.21-0.66c0.39-0.53,1.04-1.41,2.16-2.81
			c1.25-1.61,6.29-9.2,7.82-11.51c0.12-0.2-0.18-0.25-0.26-0.22c-0.9,0.08-3.82,0.89-7.73,1.86c-0.92,0.23-1.86,0.52-2.68,0.81
			c-0.56,0.17-1.17,0.52-1.23,2.12c-0.03,0.58-0.2,0.83-0.42,0.88c-0.19,0.05-0.34-0.32-0.42-0.65c-0.18-0.71-0.34-1.47-0.55-2.34
			c-0.24-0.98-0.57-1.82-0.74-2.53c-0.11-0.46-0.07-0.65,0.14-0.7c0.16-0.04,0.45,0.06,0.71,0.52c0.56,1.1,0.93,1.53,2.41,1.25
			c0.99-0.19,6.41-1.27,11.08-2.43c1.14-0.28,3.13-0.98,3.57-1.09c0.27-0.07,0.6-0.01,0.67,0.24c0.09,0.38-0.3,1.11-0.57,1.44
			c-0.46,0.6-1.04,1.27-1.76,2.22c-2.41,3.31-6.55,9.32-8.88,12.49c-0.11,0.14-0.01,0.32,0.13,0.29c0.74-0.15,1.52-0.26,3.65-0.76
			c2.45-0.61,6.65-1.56,7.48-1.82c1.22-0.42,1.56-0.82,1.61-2.22c-0.01-0.6,0.16-0.76,0.32-0.8c0.27-0.07,0.44,0.27,0.57,0.78
			c0.19,0.79,0.34,1.96,0.58,2.94c0.15,0.6,0.38,1.29,0.49,1.75c0.09,0.38,0.15,0.71-0.12,0.78c-0.22,0.05-0.45-0.18-0.6-0.43
			c-0.75-1.17-0.99-1.66-3.03-1.27c-2.23,0.41-8.85,1.64-11.11,2.2c-0.98,0.24-1.19,0.44-1.26,0.51c-0.71,0.98-0.66,1.29-0.68,2.59
			c-0.01,0.32-0.07,0.65-0.29,0.71C39.54,235.98,39.36,235.73,39.21,235.11z"/>
		<path class="st0" d="M32.71,197.82c0.06-0.57,0.06-0.77,0.12-1.08c-0.01-0.11,0.19-0.36,0.64-0.4c0.67-0.1,1.97-0.59,3.03-0.7
			c0.36-0.04,0.63,0.11,0.65,0.3c0.02,0.17-0.19,0.36-0.59,0.57c-0.72,0.35-1.36,0.78-1.84,1.25c-0.69,0.69-1.5,2.4-1.28,4.63
			c0.48,4.76,4.66,7.19,9.06,6.75c1.98-0.2,3.69-0.82,4.95-1.76c2.36-1.73,3.43-4.54,3.17-7.13c-0.03-0.33-0.34-1.71-0.92-2.44
			c-0.16-0.21-1.15-0.48-1.51-0.44c-0.98,0.1-2.56,0.28-2.89,0.37c-0.62,0.26-1.13,0.54-1.06,2.64c0.01,0.42-0.18,0.75-0.4,0.77
			c-0.2,0.02-0.42-0.27-0.47-0.8c-0.05-0.5-0.14-2.55-0.22-3.35c-0.07-0.67-0.27-1.6-0.36-2.5c-0.04-0.45,0.06-0.77,0.29-0.79
			c0.19-0.02,0.39,0.27,0.54,0.59c0.33,0.81,0.65,0.84,0.96,0.92c0.32,0.08,2.33-0.09,3.47-0.21c0.45-0.04,0.7-0.32,0.77-0.47
			c0.23-0.53,0.31-0.51,0.45-0.52c0.11-0.01,0.32,0.08,0.43,0.38c0.19,0.49,0.51,1.41,0.92,2.47c0.45,1.16,0.79,2.88,0.89,3.79
			c0.31,3.12-0.43,5.81-1.79,7.67c-1.1,1.4-3.22,3.22-6.57,3.56c-2.48,0.25-5.1-0.36-7.34-2.44c-1.74-1.6-2.95-4.18-3.22-6.88
			C32.37,200.53,32.58,199.02,32.71,197.82z"/>
		<path class="st0" d="M32.12,190.72c0.05-1.18,0.16-1.84,0.2-2.88c0.04-1.04,0.03-2.1,0.05-2.72c0.02-0.53,0.12-0.86,0.34-0.85
			c0.22,0.01,0.41,0.32,0.5,0.86c0.16,1.02,0.41,1.56,1.53,1.77c0.92,0.18,3.83,0.26,7.8,0.42c3.16,0.13,4.39-0.53,5.41-1.35
			c0.9-0.75,1.64-2.54,1.7-4c0.07-1.82-0.66-4.57-3.71-5.39c-1.47-0.39-3.81-0.77-7-0.9c-1.82-0.07-3.28-0.05-3.61-0.03
			c-1.07,0.04-1.47,0.22-1.89,1.77c-0.07,0.28-0.33,0.58-0.53,0.57c-0.17-0.01-0.27-0.18-0.25-0.65c0.03-0.7,0.14-1.48,0.18-2.38
			c0.05-1.15,0.01-1.74,0.04-2.52c0.02-0.45,0.11-0.7,0.34-0.69c0.17,0.01,0.35,0.24,0.48,0.64c0.29,1.22,0.74,1.8,2.5,1.92
			c1.2,0.08,4.3,0.37,5.75,0.48c4.86,0.33,7.27,1.77,8.31,3.83c0.68,1.32,0.78,2.83,0.74,4.07c-0.1,2.52-1.21,4.35-1.85,5
			c-1.55,1.51-3.62,2.1-8.32,1.91c-4.03-0.16-6.27-0.17-6.64-0.15c-0.53,0.03-1,0.41-1.26,1.46c-0.1,0.33-0.25,0.63-0.5,0.62
			C32.2,191.54,32.1,191.17,32.12,190.72z"/>
		<path class="st0" d="M34.86,161.93c0.78-0.1,2.1-0.36,3.63-0.65c4.27-0.78,10.08-1.95,11.29-2.23c2.42-0.54,2.71-0.95,3.22-2.14
			c0.21-0.42,0.39-0.62,0.58-0.59c0.19,0.03,0.33,0.25,0.21,0.94c-0.15,0.91-0.51,2.24-0.71,3.46c-0.15,0.88-0.15,1.28-0.27,1.97
			c-0.11,0.69-0.33,0.82-0.47,0.8c-0.14-0.02-0.33-0.22-0.33-0.74c-0.06-1.37-0.63-1.35-1.23-1.34c-1.17,0.04-3.11,0.43-4.98,0.77
			c-0.12,0.01-0.3,0.09-0.43,0.89c-0.25,1.52-0.62,3.96-0.63,4.55c-0.02,0.11,0.1,0.27,0.17,0.34c1.68,1.01,3.91,2.12,4.6,2.23
			c0.33,0.05,0.82,0.02,1.41-1.16c0.21-0.45,0.43-0.7,0.62-0.66c0.28,0.05,0.29,0.47,0.23,0.83c-0.08,0.47-0.27,1.15-0.44,2.17
			c-0.17,1.02-0.27,2.48-0.33,2.9c-0.08,0.5-0.21,0.62-0.38,0.59c-0.17-0.03-0.38-0.26-0.45-0.7c-0.24-1.46-0.27-1.83-1.93-2.93
			c-1.31-0.87-9.13-5.39-11.92-7.09c-0.2-0.15-0.41-0.24-0.55-0.26c-0.08-0.01-0.14-0.02-0.21-0.09c-0.29-0.3-0.95-0.81-1.22-1.05
			c-0.19-0.23-0.28-0.36-0.26-0.5C34.09,162.14,34.22,162.05,34.86,161.93z M43.96,162.51c-1.49,0.24-5.87,1-6.29,1.18
			c-0.18,0.06-0.22,0.11-0.04,0.22c1.25,0.71,4.88,2.79,5.7,3.15c0.11,0.05,0.2,0,0.22-0.11c0.15-1.11,0.56-3.4,0.62-4.32
			C44.17,162.6,44.05,162.5,43.96,162.51z"/>
		<path class="st0" d="M37.15,149.32c0.21-0.73,0.41-1.19,0.64-1.97c0.31-1.05,0.77-2.9,0.96-3.54c0.14-0.48,0.31-0.64,0.49-0.58
			c0.19,0.06,0.29,0.32,0.27,0.75c-0.11,1.66,0.13,1.94,0.52,2.11c1.16,0.52,3.87,1.32,7.85,2.49c2.09,0.62,4.7,1.3,5.61,1.45
			c0.39,0.06,1.2-0.4,1.29-0.61c0.31-0.67,0.63-1.65,0.9-2.54c0.22-0.75,0.42-1.51,0.48-1.93c0.04-0.22,0.13-0.54-0.19-1.22
			c-0.27-0.49-0.54-1.04-1.35-2.06c-0.4-0.44-0.43-0.71-0.39-0.85c0.04-0.13,0.36-0.13,0.76,0.11c1.19,0.82,1.7,1.17,2.65,1.69
			c0.29,0.11,0.3,0.67,0.27,0.78c-0.1,0.32-0.98,2.72-2.59,8.17c-0.54,1.83-0.78,3.13-0.89,3.5c-0.15,0.51-0.28,0.76-0.53,0.69
			c-0.19-0.06-0.34-0.33-0.29-0.79c0.14-1.56-0.26-2.09-1.27-2.53c-0.66-0.25-4.9-1.59-8.8-2.75c-1.07-0.32-2.93-0.86-3.82-1.1
			c-0.6-0.15-1.15-0.16-1.76,1.03c-0.27,0.51-0.54,0.66-0.73,0.6C37.04,150.16,36.97,149.91,37.15,149.32z"/>
		<path class="st0" d="M50.37,121.54c-1.19-0.49-1.57-0.68-2.51,0.6c-0.37,0.5-0.62,0.57-0.8,0.48c-0.2-0.1-0.17-0.42,0.01-0.78
			c0.32-0.65,1.02-1.87,1.42-2.7c0.61-1.23,0.82-1.85,1.25-2.72c0.2-0.4,0.41-0.58,0.61-0.48c0.2,0.1,0.23,0.42,0.11,0.86
			c-0.42,1.61,0.22,1.89,0.85,2.32c0.77,0.53,2.39,1.36,7.31,3.79c1.38,0.68,2.95,1.42,3.78,1.77c1.39,0.59,1.93,0.7,3.06-0.77
			c0.3-0.42,0.57-0.53,0.75-0.44c0.2,0.1,0.14,0.54-0.01,0.84c-0.63,1.28-1.66,2.99-1.99,3.67c-0.37,0.75-0.43,1-0.89,1.93
			c-0.24,0.48-0.5,0.57-0.67,0.48c-0.18-0.09-0.2-0.41-0.06-0.96c0.34-1.39,0.02-1.68-1.12-2.36c-0.84-0.51-3.43-1.85-5.56-2.9
			C54.35,123.4,51.23,121.89,50.37,121.54z"/>
		<path class="st0" d="M52.24,111.27c0.33-0.52,1.15-1.62,1.93-2.82c0.09-0.14,0.39-0.25,0.62-0.3c0.65-0.08,1.74-0.21,3.53-0.35
			c2.02-0.19,11.01-1.71,13.75-2.17c0.23-0.05,0.06-0.3-0.01-0.34c-0.68-0.6-3.26-2.18-6.64-4.37c-0.8-0.52-1.65-1-2.43-1.4
			c-0.51-0.3-1.18-0.5-2.39,0.55c-0.45,0.38-0.74,0.42-0.93,0.3c-0.16-0.11,0-0.47,0.18-0.75c0.4-0.61,0.84-1.25,1.33-2.01
			c0.55-0.85,0.94-1.66,1.34-2.27c0.26-0.4,0.42-0.49,0.61-0.37c0.14,0.09,0.26,0.37,0.1,0.87c-0.42,1.16-0.48,1.72,0.74,2.61
			c0.82,0.59,5.31,3.8,9.35,6.42c0.99,0.64,2.86,1.62,3.23,1.86c0.23,0.15,0.42,0.44,0.28,0.65c-0.21,0.33-1.02,0.54-1.44,0.57
			c-0.75,0.08-1.64,0.11-2.82,0.24c-4.06,0.5-11.28,1.6-15.18,2.08c-0.18,0.02-0.24,0.21-0.12,0.29c0.62,0.43,1.23,0.93,3.05,2.14
			c2.12,1.37,5.69,3.78,6.45,4.21c1.14,0.61,1.66,0.58,2.72-0.34c0.44-0.42,0.66-0.4,0.8-0.31c0.23,0.15,0.11,0.5-0.18,0.95
			c-0.44,0.68-1.2,1.59-1.75,2.44c-0.33,0.52-0.68,1.16-0.94,1.56c-0.21,0.33-0.42,0.6-0.65,0.44c-0.19-0.12-0.18-0.45-0.1-0.73
			c0.34-1.35,0.53-1.85-1.14-3.07c-1.83-1.35-7.25-5.33-9.2-6.59c-0.85-0.55-1.13-0.57-1.23-0.57c-1.2,0.16-1.39,0.4-2.36,1.27
			c-0.24,0.21-0.52,0.39-0.71,0.27C51.84,112.11,51.89,111.81,52.24,111.27z"/>
		<path class="st0" d="M74.59,81.21c0.62-0.8,0.82-1.29,0.86-1.77c0.04-0.22,0.06-0.32,0.13-0.41c0.09-0.11,0.36-0.03,0.56,0.34
			c0.47,0.78,1.02,1.47,2.02,2.55c0.17,0.19,0.24,0.54,0.09,0.71c-0.13,0.15-0.35,0.11-0.93-0.29c-1.21-0.82-1.56-0.64-2.75,0.62
			c-0.33,0.34-2.36,2.7-2.52,3.01c-0.07,0.12,0.07,0.39,0.11,0.43c1,0.86,3.35,2.89,5.2,4.48c2.46,2.12,4.48,3.86,5.33,4.45
			c1.05,0.72,1.39,0.83,2.82-0.23c0.3-0.22,0.73-0.37,0.88-0.24c0.23,0.2-0.07,0.6-0.26,0.81c-0.15,0.17-1.39,1.39-2.19,2.33
			c-0.91,1.06-1.7,2.27-1.94,2.55c-0.37,0.42-0.68,0.53-0.8,0.42c-0.15-0.13-0.14-0.49-0.01-0.71c0.94-1.78,0.62-2.13-0.92-3.56
			c-1.21-1.12-5.45-4.96-7.08-6.36c-1.21-1.04-1.61-1.39-2.52-2.18c-0.17-0.15-0.37-0.13-0.42-0.07c-0.43,0.37-2.08,2.2-2.37,2.54
			c-0.69,0.81-0.95,1.36-0.86,1.99c-0.01,0.14,0.11,0.69,0.5,1.65c0.28,0.58,0.15,0.68,0.08,0.77c-0.11,0.13-0.46-0.03-0.67-0.21
			c-0.4-0.35-1.2-1.74-2.45-2.82c-0.15-0.13-0.18-0.48-0.07-0.61c0.09-0.11,0.24,0.02,0.63-0.05c0.12-0.01,0.73-0.07,1.02-0.37
			c0.54-0.5,2.07-2.14,4.4-4.85C71.39,85,73.86,82.1,74.59,81.21z"/>
		<path class="st0" d="M84.98,71.3c0.68-0.62,1.57-1.48,1.84-1.8c0.04-0.08,0.28-0.03,0.39,0.06c0.87,0.95,1.46,1.51,1.84,1.92
			c0.27,0.29,0.37,0.65,0.18,0.82c-0.19,0.17-0.55-0.02-0.78-0.19c-1.27-0.85-1.91-0.64-2.67-0.14c-0.61,0.41-2.14,1.73-3.01,2.6
			c-0.04,0.04-0.17,0.35,0.22,0.86c0.43,0.55,3.93,4.49,4.25,4.76c0.1,0.06,0.23,0.17,0.33,0.07l1.34-1.23
			c1.94-1.78,1.95-1.94,1.45-3.23c-0.16-0.42-0.15-0.66-0.03-0.77c0.14-0.13,0.45,0.12,0.58,0.3c0.49,0.62,0.85,1.05,1.3,1.54
			c0.51,0.56,0.82,0.81,1.22,1.2c0.36,0.35,0.47,0.67,0.32,0.81c-0.14,0.13-0.5,0.04-0.77-0.13c-1.16-0.68-1.3-0.67-2.61,0.42
			c-0.7,0.56-1.52,1.32-2.08,1.83c-0.08,0.08-0.05,0.31-0.02,0.36c0.31,0.51,2.09,2.41,2.91,3.3c0.55,0.6,1.35,1.31,1.78,1.52
			c0.31,0.17,0.63,0.19,0.81,0.09c0.41-0.26,1.19-0.82,2.01-1.58c0.25-0.23,1.49-1.4,1.83-1.94c0.51-0.77,0.71-1.67,0.31-3.1
			c-0.19-0.66-0.18-0.9-0.06-1.01c0.14-0.13,0.51,0.14,0.68,0.41c0.13,0.18,1.26,2.57,1.28,2.89c0.01,0.14-0.02,0.47-0.12,0.57
			c-0.23,0.21-3.5,2.9-6.86,5.98c-1.09,1-1.45,1.52-2.24,2.24c-0.39,0.36-0.66,0.53-0.87,0.3c-0.13-0.14,0.02-0.47,0.28-0.86
			c0.81-1.19,1.06-1.7,0.13-2.89c-0.73-0.92-2.86-3.45-5.21-6.01c-2.25-2.46-2.63-2.91-3.22-3.47c-0.87-0.87-1.31-0.93-2.4-0.3
			c-0.53,0.29-0.77,0.36-0.92,0.2c-0.17-0.19,0.02-0.55,0.31-0.82c0.97-0.89,1.85-1.54,3.23-2.81L84.98,71.3z"/>
		<path class="st0" d="M104.63,66.58c-0.06,0.15-0.35,0.67-0.42,0.89c-0.04,0.09,0.04,0.35,0.16,0.41c0.62,0.38,4.74,2.06,7.24,2.61
			c1.14,0.28,2.05,0.25,3.19-0.27c0.21-0.09,0.53-0.04,0.59,0.06c0.1,0.14-0.02,0.36-0.1,0.52c-0.19,0.31-0.66,0.72-1.13,1.06
			c-1.07,0.77-2.82,1.07-4.08,0.71c-1.58-0.51-4-1.42-5.95-2.2c-0.66-0.25-1.53-0.49-1.73-0.48c-0.16-0.02-1.14,0.38-1.82,0.87
			c-0.16,0.11-0.12,0.4-0.08,0.47c0.26,0.4,2.39,3.25,3.41,4.52c0.74,0.92,1.21,1.06,2.46,0.54c0.47-0.17,0.74-0.12,0.82-0.01
			c0.16,0.23-0.22,0.61-0.33,0.69c-0.95,0.69-1.48,0.87-3.03,1.98c-0.41,0.3-1.52,1.24-1.77,1.42c-0.3,0.21-0.66,0.34-0.82,0.11
			c-0.13-0.18,0.04-0.37,0.25-0.7c0.77-1.04,1.08-1.47,0.52-2.38c-0.46-0.74-2.11-3.21-3.1-4.57c-2.53-3.49-4.07-5.53-4.8-6.35
			c-0.7-0.77-0.94-0.67-2.14-0.18c-0.41,0.16-0.69,0.19-0.82,0.01c-0.12-0.16-0.08-0.35,0.42-0.72c0.7-0.51,0.79-0.57,1.27-0.92
			c0.84-0.61,2.37-1.89,3.59-2.77c1.57-1.13,2.94-1.82,4.39-1.72c1.19,0.07,2.56,0.81,3.35,1.9
			C105.05,63.3,105.25,65.1,104.63,66.58z M99.52,62.05c-0.92-0.13-2.14,0.24-2.87,0.76c-0.11,0.08-0.81,0.65-0.97,0.95
			c-0.08,0.13,0.01,0.58,0.07,0.67c0.51,0.84,3.61,5.27,3.95,5.61c0.18,0.15,0.47,0.18,0.61,0.08c1.32-0.95,2.24-2.21,2.41-2.64
			c0.33-0.83,0.5-2.47-0.54-3.9C101.79,63.04,100.65,62.24,99.52,62.05z"/>
		<path class="st0" d="M107.41,54.3c0.54-0.29,1.8-0.85,3.06-1.52c0.15-0.08,0.46-0.02,0.69,0.05c0.61,0.25,1.62,0.66,3.25,1.42
			c1.86,0.82,10.44,3.89,13.06,4.82c0.23,0.07,0.2-0.23,0.16-0.3c-0.29-0.86-1.78-3.49-3.66-7.05c-0.44-0.84-0.95-1.68-1.43-2.41
			c-0.3-0.51-0.79-1.01-2.36-0.69c-0.57,0.11-0.85,0.01-0.96-0.19c-0.09-0.17,0.23-0.41,0.53-0.56c0.64-0.34,1.35-0.68,2.14-1.1
			c0.89-0.47,1.63-0.99,2.27-1.33c0.42-0.22,0.61-0.23,0.71-0.03c0.08,0.15,0.05,0.45-0.33,0.81c-0.93,0.81-1.26,1.27-0.63,2.64
			c0.42,0.92,2.77,5.91,5.02,10.17c0.55,1.04,1.7,2.8,1.91,3.2c0.13,0.25,0.15,0.58-0.07,0.7c-0.35,0.18-1.15-0.02-1.53-0.2
			c-0.7-0.3-1.48-0.71-2.58-1.17c-3.79-1.54-10.62-4.11-14.26-5.6c-0.16-0.07-0.31,0.07-0.25,0.19c0.33,0.68,0.62,1.41,1.62,3.36
			c1.18,2.23,3.12,6.08,3.57,6.82c0.7,1.09,1.17,1.31,2.54,1.03c0.58-0.15,0.78-0.03,0.85,0.12c0.13,0.25-0.15,0.49-0.62,0.74
			c-0.72,0.38-1.82,0.8-2.71,1.28c-0.55,0.29-1.16,0.68-1.58,0.9c-0.35,0.18-0.66,0.32-0.79,0.07c-0.1-0.2,0.06-0.48,0.27-0.68
			c0.95-1.01,1.37-1.36,0.5-3.24c-0.94-2.07-3.73-8.19-4.81-10.25c-0.47-0.89-0.71-1.05-0.8-1.1c-1.12-0.45-1.41-0.33-2.68-0.04
			c-0.31,0.07-0.65,0.09-0.75-0.11C106.64,54.83,106.84,54.6,107.41,54.3z"/>
		<path class="st0" d="M136.61,41.08c0.47,0.64,1.34,1.66,2.34,2.85c2.75,3.35,6.61,7.85,7.45,8.77c1.65,1.85,2.14,1.91,3.43,1.77
			c0.47-0.02,0.73,0.04,0.79,0.22c0.07,0.18-0.06,0.41-0.72,0.65c-0.87,0.31-2.21,0.65-3.37,1.06c-0.84,0.3-1.19,0.49-1.85,0.73
			c-0.66,0.24-0.88,0.11-0.93-0.02c-0.05-0.13,0.03-0.4,0.48-0.65c1.17-0.72,0.87-1.21,0.57-1.72c-0.6-1-1.88-2.5-3.1-3.97
			c-0.06-0.1-0.23-0.22-0.99,0.06c-1.45,0.52-3.76,1.38-4.28,1.66c-0.11,0.04-0.19,0.22-0.21,0.32c-0.07,1.96,0.05,4.44,0.29,5.1
			c0.11,0.32,0.38,0.73,1.7,0.67c0.5-0.03,0.82,0.03,0.88,0.22c0.09,0.26-0.27,0.48-0.61,0.61c-0.45,0.16-1.13,0.32-2.11,0.67
			c-0.97,0.35-2.3,0.98-2.69,1.12c-0.47,0.17-0.64,0.11-0.7-0.04c-0.06-0.16,0.04-0.46,0.39-0.74c1.16-0.92,1.47-1.12,1.62-3.11
			c0.12-1.56,0.26-10.6,0.39-13.86c0.03-0.25,0.01-0.48-0.04-0.61c-0.03-0.08-0.05-0.13-0.02-0.23c0.12-0.4,0.25-1.22,0.33-1.58
			c0.11-0.28,0.18-0.42,0.31-0.47C136.04,40.51,136.19,40.58,136.61,41.08z M140.52,49.31c-0.93-1.18-3.73-4.64-4.09-4.92
			c-0.14-0.13-0.2-0.14-0.21,0.08c-0.02,1.44-0.06,5.62,0.02,6.51c0.01,0.12,0.09,0.18,0.2,0.14c1.04-0.41,3.24-1.17,4.08-1.56
			C140.55,49.54,140.58,49.38,140.52,49.31z"/>
		<path class="st0" d="M158.87,34.61c0.97-0.29,1.42-0.57,1.74-0.93c0.16-0.15,0.23-0.23,0.34-0.25c0.14-0.03,0.3,0.19,0.26,0.6
			c-0.07,0.91-0.03,1.79,0.14,3.25c0.03,0.25-0.12,0.58-0.34,0.63c-0.19,0.05-0.35-0.12-0.59-0.78c-0.5-1.38-0.89-1.43-2.6-1.11
			c-0.47,0.08-3.49,0.8-3.8,0.96c-0.13,0.06-0.17,0.36-0.16,0.41c0.3,1.28,1.02,4.3,1.59,6.67c0.75,3.16,1.37,5.75,1.72,6.73
			c0.43,1.19,0.64,1.49,2.42,1.47c0.37,0,0.81,0.12,0.85,0.32c0.07,0.3-0.41,0.44-0.68,0.51c-0.22,0.05-1.94,0.32-3.14,0.6
			c-1.36,0.32-2.71,0.85-3.06,0.93c-0.54,0.13-0.86,0.03-0.9-0.13c-0.05-0.19,0.18-0.47,0.41-0.59c1.8-0.89,1.75-1.37,1.34-3.43
			c-0.33-1.62-1.51-7.21-2.01-9.31c-0.37-1.55-0.49-2.07-0.77-3.24c-0.05-0.22-0.22-0.32-0.3-0.3c-0.56,0.05-2.97,0.56-3.41,0.67
			c-1.03,0.25-1.57,0.55-1.87,1.11c-0.09,0.11-0.31,0.62-0.56,1.63c-0.11,0.63-0.28,0.64-0.39,0.67c-0.16,0.04-0.36-0.29-0.42-0.56
			c-0.12-0.52,0.04-2.11-0.34-3.72c-0.05-0.19,0.14-0.49,0.3-0.53c0.14-0.03,0.18,0.16,0.54,0.33c0.1,0.06,0.63,0.37,1.05,0.3
			c0.73-0.09,2.93-0.52,6.41-1.35C154.06,35.82,157.76,34.91,158.87,34.61z"/>
		<path class="st0" d="M167.34,36.16c-0.25-1.27-0.31-1.68-1.9-1.76c-0.62-0.03-0.82-0.2-0.84-0.4c-0.03-0.22,0.26-0.37,0.65-0.42
			c0.72-0.09,2.12-0.19,3.04-0.31c1.36-0.18,1.99-0.35,2.96-0.47c0.44-0.06,0.71,0.02,0.74,0.24c0.03,0.22-0.23,0.42-0.66,0.57
			c-1.57,0.54-1.45,1.23-1.46,2c-0.02,0.93,0.19,2.74,0.91,8.18c0.2,1.53,0.45,3.24,0.63,4.12c0.28,1.49,0.49,2,2.34,2.12
			c0.51,0.02,0.76,0.18,0.78,0.38c0.03,0.22-0.37,0.42-0.7,0.46c-1.42,0.19-3.41,0.28-4.16,0.38c-0.83,0.11-1.08,0.2-2.1,0.33
			c-0.53,0.07-0.75-0.1-0.77-0.29c-0.03-0.19,0.23-0.4,0.77-0.58c1.35-0.49,1.4-0.92,1.34-2.24c-0.04-0.98-0.37-3.88-0.68-6.24
			C168,40.5,167.52,37.06,167.34,36.16z"/>
		<path class="st0" d="M195.07,40.53c0.08,3.92-1.79,6.71-3.8,8.2c-1.74,1.27-4.05,1.71-5.48,1.74c-2.86,0.06-5.6-1.11-7.35-3.04
			c-1.52-1.62-2.41-3.87-2.46-6.28c-0.07-3.44,1.39-5.86,3.48-7.61c1.35-1.15,3.74-2.04,5.7-2.08
			C190.54,31.35,194.96,35.21,195.07,40.53z M180.74,34.08c-1.21,1.23-2.11,3.35-2.04,6.63c0.09,4.17,3.27,8.89,7.75,8.8
			c2.32-0.05,3.37-1.08,3.67-1.42c1.1-1.03,2.31-3.33,2.24-6.66c-0.06-3.05-1.44-5.96-3.55-7.6c-1.17-0.9-2.94-1.45-4.23-1.42
			C183.39,32.43,181.69,33.08,180.74,34.08z"/>
		<path class="st0" d="M199.64,31.94c0.61,0.08,1.96,0.34,3.38,0.52c0.17,0.02,0.39,0.25,0.54,0.44c0.35,0.55,0.94,1.48,1.84,3.03
			c1.04,1.74,6.29,9.2,7.89,11.47c0.15,0.19,0.29-0.08,0.3-0.16c0.25-0.87,0.56-3.88,1.08-7.88c0.12-0.94,0.19-1.92,0.22-2.8
			c0.05-0.59-0.06-1.28-1.53-1.92c-0.53-0.24-0.7-0.49-0.67-0.71c0.02-0.19,0.42-0.2,0.75-0.16c0.72,0.09,1.5,0.22,2.38,0.34
			c1,0.13,1.9,0.13,2.62,0.23c0.47,0.06,0.63,0.17,0.6,0.39c-0.02,0.17-0.22,0.4-0.74,0.47c-1.23,0.12-1.76,0.31-2.04,1.8
			c-0.19,0.99-1.14,6.43-1.76,11.21c-0.15,1.17-0.23,3.27-0.29,3.72c-0.04,0.28-0.21,0.56-0.46,0.53c-0.39-0.05-0.93-0.69-1.13-1.05
			c-0.4-0.64-0.8-1.43-1.43-2.44c-2.21-3.45-6.31-9.49-8.42-12.81c-0.09-0.15-0.29-0.12-0.31,0.02c-0.12,0.75-0.31,1.51-0.62,3.68
			c-0.32,2.5-0.96,6.77-1.02,7.63c-0.05,1.29,0.2,1.75,1.48,2.31c0.57,0.21,0.65,0.42,0.63,0.59c-0.04,0.28-0.41,0.31-0.93,0.25
			c-0.81-0.1-1.95-0.39-2.95-0.52c-0.61-0.08-1.34-0.12-1.81-0.18c-0.39-0.05-0.72-0.12-0.68-0.4c0.03-0.22,0.33-0.35,0.62-0.4
			c1.36-0.27,1.91-0.32,2.28-2.36c0.43-2.23,1.68-8.85,1.98-11.15c0.13-1,0.02-1.27-0.02-1.36c-0.66-1.02-0.96-1.08-2.17-1.58
			c-0.29-0.12-0.58-0.3-0.55-0.52C198.71,31.93,199,31.86,199.64,31.94z"/>
		<path class="st0" d="M231.11,37.99c0.02,0.79,0.14,2.13,0.26,3.67c0.32,4.33,0.87,10.23,1.02,11.46c0.28,2.46,0.65,2.79,1.79,3.43
			c0.39,0.25,0.57,0.45,0.52,0.64c-0.05,0.19-0.29,0.3-0.96,0.11c-0.89-0.25-2.18-0.75-3.36-1.07c-0.86-0.24-1.26-0.29-1.93-0.47
			c-0.67-0.19-0.78-0.42-0.75-0.55c0.04-0.13,0.26-0.31,0.77-0.25c1.37,0.09,1.41-0.48,1.46-1.08c0.09-1.17-0.09-3.13-0.24-5.03
			c0-0.12-0.06-0.31-0.84-0.52c-1.48-0.41-3.87-1.04-4.46-1.11c-0.11-0.03-0.28,0.07-0.36,0.13c-1.19,1.56-2.52,3.66-2.71,4.34
			c-0.09,0.32-0.11,0.81,1,1.53c0.42,0.26,0.65,0.5,0.59,0.69c-0.08,0.27-0.5,0.24-0.85,0.14c-0.46-0.13-1.11-0.39-2.11-0.67
			c-1-0.28-2.44-0.53-2.84-0.64c-0.49-0.13-0.59-0.28-0.55-0.44c0.04-0.16,0.3-0.35,0.74-0.38c1.48-0.09,1.85-0.07,3.12-1.61
			c1-1.21,6.33-8.51,8.32-11.1c0.17-0.19,0.28-0.39,0.32-0.52c0.02-0.08,0.04-0.14,0.11-0.2c0.33-0.26,0.9-0.85,1.17-1.1
			c0.25-0.16,0.39-0.24,0.52-0.2C230.98,37.2,231.06,37.34,231.11,37.99z M229.56,46.98c-0.08-1.5-0.37-5.94-0.5-6.38
			c-0.04-0.18-0.08-0.23-0.22-0.06c-0.84,1.16-3.29,4.55-3.74,5.33c-0.06,0.1-0.03,0.2,0.08,0.23c1.09,0.27,3.32,0.92,4.23,1.08
			C229.45,47.18,229.57,47.06,229.56,46.98z"/>
		<path class="st0" d="M243.4,41.6c0.7,0.29,1.14,0.54,1.89,0.85c1.01,0.42,2.8,1.07,3.42,1.33c0.46,0.19,0.6,0.37,0.53,0.55
			c-0.08,0.18-0.35,0.25-0.78,0.19c-1.64-0.29-1.94-0.08-2.15,0.29c-0.64,1.1-1.72,3.71-3.31,7.54c-0.84,2.02-1.79,4.53-2.04,5.43
			c-0.1,0.38,0.27,1.24,0.47,1.35c0.63,0.38,1.57,0.81,2.43,1.16c0.72,0.3,1.46,0.58,1.87,0.69c0.22,0.06,0.53,0.19,1.24-0.06
			c0.51-0.21,1.09-0.43,2.19-1.12c0.48-0.35,0.75-0.35,0.88-0.3c0.13,0.05,0.09,0.37-0.19,0.74c-0.94,1.09-1.35,1.56-1.96,2.46
			c-0.14,0.27-0.7,0.22-0.8,0.18c-0.31-0.13-2.6-1.26-7.84-3.44c-1.76-0.73-3.03-1.11-3.39-1.26c-0.49-0.2-0.73-0.36-0.63-0.6
			c0.08-0.18,0.37-0.3,0.81-0.21c1.54,0.31,2.11-0.03,2.65-0.99c0.32-0.62,2.11-4.7,3.66-8.45c0.43-1.03,1.17-2.82,1.5-3.68
			c0.21-0.58,0.29-1.12-0.83-1.86c-0.47-0.32-0.59-0.61-0.52-0.79C242.57,41.41,242.83,41.37,243.4,41.6z"/>
		<path class="st0" d="M277.53,59.53c0.11,0.14,0.02,0.58-0.01,0.63c-0.24,0.48-0.94,1.96-1,2.05c-0.26,0.4-0.41,0.63-0.58,0.53
			c-0.19-0.12-0.36-0.47-0.24-0.86c0.27-1.03,0.09-2.14-0.05-2.44c-0.21-0.6-0.63-1.18-1.32-1.62c-1.57-1.02-3.46-0.58-4.49,0.99
			c-1.08,1.67-0.36,3.17,0.8,5.9c1.01,2.4,1.65,4.55,0.28,6.66c-0.76,1.17-2.28,2.06-4.08,2.06c-1.07,0-2.69-0.55-3.74-1.23
			c-0.75-0.49-2.18-1.79-2.68-2.61c-0.14-0.29-0.11-1.01-0.05-1.1c0.4-0.87,0.84-2.06,1.08-2.43c0.06-0.09,0.52-0.29,0.62-0.23
			c0.19,0.12,0.14,0.96,0,1.9c-0.23,1.69,0.94,3.28,1.83,3.86c1.62,1.05,3.59,0.7,4.69-0.99c0.64-0.99,0.86-2.35-0.58-5.52
			c-1.16-2.59-1.68-4.87-0.38-6.86c0.72-1.1,1.9-1.84,3.15-2.02c1.16-0.18,2.58,0.04,4.22,1.11
			C276.16,58.04,277.15,59.19,277.53,59.53z"/>
		<path class="st0" d="M292.53,71.2c0.49,0.55,1.01,1.46,1.3,1.77c0.11,0.09,0.2,0.42-0.21,0.92c-0.38,0.45-1.05,1.49-1.4,2
			c-0.35,0.47-0.74,0.59-0.91,0.44c-0.11-0.09-0.04-0.43,0.12-0.85c0.43-0.92,0.56-1.9,0.46-2.35c-0.45-1.87-1.36-3.02-2.52-3.98
			c-3.47-2.88-8.07-1.85-10.77,1.41c-1.2,1.44-1.88,2.84-2.19,4.18c-0.85,3.48,0.85,6.52,2.6,7.97c0.41,0.34,1.52,1.15,2.83,1.37
			c1.36,0.29,2.47,0.05,3.74-0.43c0.66-0.22,0.83-0.26,0.92-0.19c0.22,0.18-0.16,0.67-0.4,0.87c-0.51,0.49-1.95,1.22-2.67,1.46
			c-0.25,0.12-0.83,0.08-1.13,0.01c-0.47-0.14-2.59-1.13-4.42-2.65c-3.04-2.52-4.01-5.87-4.03-7.6c-0.03-1.63,0.26-4,2.3-6.46
			c2.04-2.46,5.13-3.2,6.66-3.21c3.11,0.03,5.5,1.21,7.49,2.86C291.03,69.37,291.87,70.32,292.53,71.2z"/>
		<path class="st0" d="M295.55,85.67c1.1,1.23,3.7,4.01,7.01,7.7c0.11,0.12,0.29,0.08,0.75-0.26c0.29-0.22,3.02-2.67,3.78-3.46
			c0.72-0.75,0.75-1.05,0.16-2.21c-0.18-0.37-0.26-0.71-0.07-0.88c0.15-0.13,0.42,0,0.81,0.44c0.24,0.27,1.4,1.64,1.86,2.17
			c0.63,0.71,1.56,1.61,1.76,1.84c0.3,0.33,0.44,0.66,0.27,0.81c-0.1,0.09-0.4,0.06-0.9-0.29c-0.99-0.69-1.52-0.52-2.16-0.02
			c-1.16,0.85-3.49,2.82-7.03,6c-0.92,0.82-2.7,2.57-3.01,2.85c-0.78,0.77-0.67,1.05-0.1,2.23c0.16,0.39,0.18,0.7,0.03,0.83
			c-0.17,0.15-0.4,0.02-0.75-0.38c-0.3-0.33-0.91-1.14-1.49-1.79c-0.41-0.46-1.94-1.91-2.31-2.33c-0.28-0.31-0.43-0.56-0.24-0.73
			c0.19-0.17,0.52-0.05,0.79,0.12c1.34,0.83,1.67,0.73,3.2-0.54c0.91-0.74,2.39-1.99,3.43-2.92c0.38-0.34,0.36-0.48,0.21-0.64
			c-2.89-3.23-6.51-7.4-6.93-7.78c-0.06-0.06-0.39-0.06-0.56,0.09c-0.58,0.44-3.21,2.88-3.82,3.42c-0.96,0.9-1.13,1.46-0.62,2.58
			c0.29,0.57,0.33,0.79,0.14,1c-0.15,0.17-0.51-0.15-0.75-0.42c-0.13-0.15-1.19-1.49-1.86-2.24c-0.43-0.48-1.3-1.28-1.93-1.99
			c-0.41-0.46-0.48-0.7-0.35-0.81c0.21-0.19,0.56-0.05,0.83,0.12c1.22,0.82,1.58,0.8,2.47,0.16c0.91-0.7,3.38-2.69,6.78-5.73
			c0.38-0.34,2.33-2.01,3.21-2.88c0.67-0.68,0.85-1.06,0.25-2.11c-0.31-0.51-0.29-0.79-0.13-0.94c0.15-0.13,0.47,0.07,0.77,0.4
			c0.52,0.58,1.17,1.39,1.66,1.94c0.79,0.88,1.39,1.46,1.82,1.94c0.39,0.44,0.49,0.76,0.37,0.87c-0.21,0.19-0.46,0.11-0.94-0.25
			c-1.07-0.81-1.43-0.59-2.37,0.13c-0.74,0.55-3.52,3-3.85,3.34C295.39,85.45,295.42,85.53,295.55,85.67z"/>
		<path class="st0" d="M317.78,116.07c-3.29,2.13-6.64,2.01-8.98,1.08c-1.99-0.81-3.59-2.55-4.37-3.75c-1.55-2.4-2-5.35-1.28-7.85
			c0.58-2.15,2.02-4.08,4.05-5.4c2.89-1.88,5.71-1.9,8.3-1.05c1.69,0.54,3.7,2.11,4.77,3.75
			C323.2,107.39,322.25,113.18,317.78,116.07z M315.72,100.49c-1.68-0.38-3.96-0.03-6.71,1.75c-3.5,2.27-5.84,7.46-3.4,11.22
			c1.27,1.95,2.69,2.29,3.14,2.37c1.45,0.39,4.04,0.21,6.84-1.6c2.56-1.66,4.31-4.37,4.59-7.02c0.15-1.47-0.32-3.27-1.02-4.35
			C318.52,101.87,317.07,100.78,315.72,100.49z"/>
		<path class="st0" d="M327.49,137.14c-3.58,1.59-6.88,0.94-9.04-0.34c-1.84-1.11-3.14-3.08-3.72-4.38
			c-1.16-2.61-1.14-5.59-0.04-7.95c0.91-2.03,2.64-3.72,4.84-4.69c3.15-1.4,5.94-0.98,8.36,0.27c1.58,0.8,3.33,2.66,4.12,4.45
			C334.2,129.41,332.35,134.98,327.49,137.14z M327.89,121.43c-1.6-0.64-3.91-0.65-6.9,0.68c-3.81,1.69-6.94,6.45-5.12,10.55
			c0.94,2.12,2.3,2.69,2.73,2.83c1.38,0.61,3.96,0.85,7-0.51c2.79-1.24,4.94-3.64,5.64-6.21c0.38-1.42,0.2-3.27-0.32-4.45
			C330.44,123.24,329.19,121.92,327.89,121.43z"/>
		<path class="st0" d="M337.08,138.48c0.21,0.73,0.3,1.22,0.53,2c0.31,1.05,0.93,2.85,1.12,3.49c0.14,0.48,0.09,0.7-0.1,0.76
			c-0.19,0.06-0.41-0.11-0.64-0.48c-0.81-1.45-1.16-1.56-1.58-1.49c-1.26,0.19-3.97,0.99-7.94,2.16c-2.09,0.62-4.65,1.46-5.5,1.82
			c-0.36,0.16-0.79,0.99-0.75,1.21c0.1,0.73,0.36,1.73,0.62,2.62c0.22,0.75,0.47,1.5,0.64,1.88c0.09,0.21,0.19,0.53,0.83,0.92
			c0.49,0.27,1.02,0.58,2.25,1c0.57,0.15,0.75,0.36,0.79,0.5c0.04,0.13-0.23,0.3-0.69,0.32c-1.44-0.04-2.06-0.06-3.14,0.02
			c-0.3,0.06-0.62-0.4-0.65-0.51c-0.09-0.32-0.65-2.81-2.26-8.27c-0.54-1.83-1.04-3.05-1.15-3.42c-0.15-0.51-0.18-0.79,0.07-0.87
			c0.19-0.06,0.47,0.1,0.67,0.5c0.73,1.39,1.35,1.62,2.44,1.44c0.69-0.14,4.98-1.32,8.88-2.47c1.07-0.32,2.93-0.86,3.81-1.15
			c0.58-0.2,1.05-0.48,0.92-1.82c-0.05-0.57,0.1-0.85,0.29-0.9C336.71,137.72,336.91,137.89,337.08,138.48z"/>
		<path class="st0" d="M336.54,186.79c-3.91,0.29-6.79-1.44-8.39-3.37c-1.36-1.67-1.92-3.96-2.03-5.38
			c-0.21-2.85,0.82-5.65,2.65-7.5c1.54-1.6,3.74-2.61,6.14-2.78c3.43-0.25,5.92,1.08,7.78,3.08c1.22,1.29,2.23,3.63,2.38,5.58
			C345.47,181.79,341.85,186.4,336.54,186.79z M342.23,172.14c-1.29-1.14-3.46-1.94-6.72-1.69c-4.16,0.31-8.71,3.73-8.38,8.2
			c0.17,2.32,1.25,3.3,1.61,3.59c1.09,1.04,3.44,2.13,6.76,1.89c3.04-0.22,5.88-1.75,7.4-3.94c0.84-1.21,1.29-3.02,1.2-4.3
			C344.02,174.7,343.28,173.05,342.23,172.14z"/>
		<path class="st0" d="M344.75,197.22c-0.08,1.68-0.12,4.26-0.14,4.48c0.02,0.14-0.13,0.33-0.3,0.32c-0.81-0.1-1.79-0.03-2.75-0.05
			c-0.37,0.01-0.75-0.18-0.74-0.43c0.01-0.22,0.33-0.43,0.9-0.57c1.39-0.38,1.66-0.68,1.84-1.59c0.19-0.94,0.3-3.74,0.27-4.33
			c-0.01-0.28-0.26-0.46-0.34-0.47c-0.67-0.09-4.33-0.32-6.18-0.42c-0.75-0.04-1.04,0.09-1.05,0.23c-0.05,1.09-0.19,3.35-0.17,4.03
			c0.04,0.87,0.28,1.14,1.21,1.57c0.38,0.19,0.66,0.31,0.65,0.56c-0.01,0.2-0.29,0.24-0.63,0.22c-0.36-0.02-1.25-0.2-1.75-0.23
			c-1.34-0.07-1.6-0.02-2.21-0.05c-0.31-0.02-0.64-0.17-0.62-0.45c0.01-0.14,0.21-0.3,0.61-0.39c1.08-0.23,1.23-0.56,1.4-1.08
			c0.07-0.31,0.2-1.31,0.23-1.87c0.03-0.53,0.09-1.87,0.04-2.47c0-0.08-0.21-0.21-0.33-0.24c-0.53-0.05-4.45-0.13-5.26-0.15
			c-0.87-0.01-1.43,0.01-1.86,1.82c-0.1,0.42-0.31,0.66-0.56,0.65c-0.17-0.01-0.32-0.27-0.3-0.8c0.04-0.73,0.16-1.59,0.21-2.65
			c0.05-1.12-0.03-2.75,0-3.34c0.03-0.56,0.15-0.78,0.32-0.77c0.22,0.01,0.43,0.33,0.52,0.78c0.29,1.53,0.93,1.62,1.29,1.66
			c0.86,0.13,2.93,0.37,8.46,0.64c2.63,0.13,4.28,0.21,5.01,0.19c0.95-0.01,1.45-0.46,1.82-1.68c0.17-0.55,0.31-0.69,0.51-0.68
			c0.22,0.01,0.32,0.35,0.3,0.8c-0.06,1.23-0.19,2.23-0.24,3.1L344.75,197.22z"/>
		<path class="st0" d="M340.26,224.1c0.07-0.3,0.03-0.6-0.06-0.85c-0.06-0.13-0.35-0.34-1-0.53c-0.57-0.16-3.94-0.97-7.07-1.75
			c-2.48-0.59-4.78-1.09-5.46-1.25c-1.78-0.4-2.05-0.23-2.79,1.06c-0.26,0.48-0.45,0.67-0.69,0.61c-0.25-0.06-0.21-0.57-0.11-0.98
			c0.16-0.68,0.51-1.64,0.79-2.83c0.19-0.79,0.35-1.93,0.55-2.78c0.11-0.46,0.32-0.73,0.56-0.67c0.19,0.05,0.29,0.36,0.31,0.65
			c-0.01,1.61,0.44,2.03,1.56,2.39c1.29,0.39,3.54,0.99,4.9,1.32c0.9,0.21,6.69,1.54,7.56,1.72c0.99,0.21,1.36,0.33,1.94-1.15
			c0.21-0.53,0.45-0.79,0.61-0.75c0.22,0.05,0.29,0.36,0.23,0.72c-0.02,0.2-0.16,0.65-0.21,0.9c-0.26,1.09-0.54,3.24-0.87,4.6
			c-0.59,2.48-1.63,3.93-2.83,4.71c-1.57,1.01-3.18,0.91-4.08,0.69c-2.42-0.58-3.27-1.96-3.77-2.92c-0.43-0.85-0.73-2.25-0.45-3.42
			c0.07-0.3,0.27-1,0.54-1.4c0.21-0.29,0.38-0.4,0.55-0.36c0.11,0.03,0.22,0.17,0.17,0.39c-0.06,0.25-0.13,0.54-0.16,0.68
			c-0.34,1.44,0.45,3.77,3.58,4.51C337.05,228.02,339.65,226.66,340.26,224.1z"/>
		<path class="st0" d="M335.48,241.41c-0.79-0.04-2.13-0.02-3.68,0c-4.34,0-10.27,0.12-11.51,0.18c-2.47,0.1-2.83,0.45-3.55,1.53
			c-0.28,0.38-0.49,0.54-0.67,0.47c-0.18-0.07-0.28-0.31-0.04-0.97c0.31-0.87,0.9-2.12,1.32-3.28c0.3-0.84,0.38-1.23,0.61-1.89
			c0.24-0.66,0.48-0.75,0.61-0.71c0.13,0.05,0.29,0.28,0.2,0.78c-0.19,1.36,0.38,1.44,0.97,1.53c1.16,0.17,3.13,0.14,5.04,0.13
			c0.12,0.01,0.31-0.04,0.58-0.8c0.52-1.45,1.32-3.78,1.44-4.36c0.04-0.11-0.05-0.28-0.11-0.37c-1.47-1.3-3.47-2.78-4.13-3.02
			c-0.32-0.11-0.8-0.17-1.59,0.89c-0.29,0.4-0.54,0.61-0.73,0.54c-0.26-0.09-0.2-0.52-0.08-0.86c0.16-0.45,0.47-1.08,0.82-2.06
			c0.35-0.98,0.71-2.4,0.85-2.79c0.17-0.48,0.32-0.57,0.48-0.51c0.16,0.06,0.33,0.33,0.32,0.77c-0.02,1.48-0.06,1.85,1.38,3.23
			c1.13,1.09,8.03,6.93,10.46,9.11c0.17,0.18,0.37,0.31,0.5,0.36c0.08,0.03,0.13,0.05,0.19,0.13c0.23,0.35,0.79,0.96,1.01,1.25
			c0.14,0.26,0.21,0.4,0.17,0.53C336.28,241.34,336.14,241.41,335.48,241.41z M326.63,239.21c1.51,0.03,5.95,0.07,6.41-0.04
			c0.19-0.02,0.23-0.07,0.08-0.21c-1.1-0.93-4.3-3.61-5.04-4.12c-0.1-0.06-0.19-0.04-0.23,0.07c-0.35,1.06-1.16,3.24-1.39,4.14
			C326.44,239.08,326.55,239.21,326.63,239.21z"/>
		<path class="st0" d="M318.94,258.33c-0.01-0.16,0.01-0.75-0.03-0.99c-0.01-0.1-0.2-0.29-0.32-0.29c-0.73-0.06-5.16,0.31-7.64,0.96
			c-1.14,0.26-1.94,0.71-2.72,1.69c-0.15,0.17-0.45,0.27-0.55,0.22c-0.15-0.08-0.15-0.33-0.14-0.52c0.03-0.36,0.26-0.94,0.53-1.46
			c0.6-1.17,2.03-2.23,3.32-2.48c1.64-0.26,4.21-0.55,6.29-0.74c0.7-0.08,1.58-0.26,1.76-0.36c0.15-0.05,0.85-0.86,1.23-1.6
			c0.09-0.17-0.07-0.41-0.15-0.45c-0.41-0.24-3.6-1.81-5.08-2.48c-1.07-0.49-1.56-0.39-2.44,0.64c-0.34,0.36-0.61,0.45-0.73,0.38
			c-0.25-0.13-0.08-0.64-0.02-0.76c0.54-1.05,0.93-1.44,1.8-3.14c0.23-0.45,0.79-1.8,0.93-2.07c0.17-0.32,0.43-0.6,0.68-0.47
			c0.2,0.1,0.13,0.35,0.09,0.74c-0.21,1.28-0.29,1.8,0.62,2.36c0.75,0.45,3.34,1.9,4.83,2.67c3.84,1.97,6.13,3.08,7.15,3.48
			c0.97,0.37,1.14,0.17,1.99-0.81c0.29-0.32,0.53-0.48,0.73-0.38c0.17,0.09,0.24,0.28-0.05,0.83c-0.4,0.77-0.45,0.87-0.71,1.4
			c-0.47,0.92-1.25,2.75-1.94,4.1c-0.88,1.72-1.79,2.95-3.13,3.53c-1.09,0.48-2.65,0.44-3.84-0.18
			C320.05,261.45,319.06,259.93,318.94,258.33z M325.54,260.05c0.88-0.3,1.8-1.18,2.21-1.98c0.06-0.12,0.42-0.95,0.44-1.29
			c0.01-0.15-0.27-0.52-0.37-0.57c-0.83-0.52-5.6-3.06-6.07-3.2c-0.22-0.05-0.5,0.06-0.58,0.21c-0.74,1.45-0.99,2.98-0.95,3.45
			c0.08,0.89,0.68,2.42,2.25,3.23C323.08,260.2,324.45,260.4,325.54,260.05z"/>
		<path class="st0" d="M318.58,270.18c1.13,0.63,1.48,0.85,2.57-0.31c0.43-0.46,0.68-0.49,0.85-0.39c0.19,0.12,0.12,0.44-0.1,0.77
			c-0.39,0.61-1.22,1.74-1.72,2.52c-0.74,1.15-1.02,1.74-1.55,2.57c-0.24,0.38-0.47,0.53-0.66,0.41c-0.19-0.12-0.18-0.45-0.01-0.87
			c0.6-1.55-0.01-1.9-0.58-2.41c-0.7-0.62-2.22-1.63-6.83-4.6c-1.29-0.83-2.77-1.75-3.55-2.19c-1.32-0.75-1.84-0.92-3.13,0.42
			c-0.34,0.38-0.63,0.46-0.8,0.35c-0.19-0.12-0.08-0.55,0.1-0.83c0.77-1.2,1.99-2.78,2.4-3.42c0.46-0.71,0.54-0.95,1.1-1.82
			c0.29-0.45,0.56-0.51,0.72-0.4c0.17,0.11,0.16,0.43-0.05,0.96c-0.5,1.34-0.21,1.66,0.84,2.47c0.78,0.6,3.2,2.22,5.2,3.51
			C314.84,267.88,317.77,269.73,318.58,270.18z"/>
		<path class="st0" d="M310.14,286.72c-0.15,0.1-0.58-0.02-0.63-0.06c-0.46-0.28-1.88-1.09-1.97-1.16c-0.38-0.29-0.6-0.46-0.48-0.62
			c0.14-0.18,0.5-0.33,0.88-0.18c1,0.35,2.13,0.26,2.43,0.14c0.62-0.16,1.23-0.54,1.72-1.19c1.14-1.49,0.85-3.41-0.64-4.55
			c-1.58-1.21-3.14-0.61-5.95,0.34c-2.47,0.83-4.66,1.29-6.66-0.24c-1.11-0.85-1.88-2.43-1.74-4.22c0.08-1.07,0.75-2.64,1.52-3.64
			c0.54-0.71,1.95-2.03,2.81-2.47c0.3-0.12,1.01-0.03,1.1,0.03c0.84,0.47,1.99,1,2.34,1.27c0.09,0.07,0.25,0.55,0.18,0.64
			c-0.14,0.18-0.97,0.07-1.9-0.15c-1.67-0.36-3.35,0.68-3.99,1.53c-1.18,1.53-0.97,3.52,0.63,4.75c0.93,0.72,2.27,1.04,5.55-0.15
			c2.67-0.95,4.98-1.29,6.87,0.15c1.04,0.8,1.69,2.04,1.77,3.3c0.09,1.17-0.24,2.57-1.43,4.12
			C311.73,285.47,310.52,286.37,310.14,286.72z"/>
	</g>
	<path class="st2" d="M188.72,314.99c-69.9,0-126.77-56.87-126.77-126.77c0-69.9,56.87-126.77,126.77-126.77
		c69.9,0,126.77,56.87,126.77,126.77C315.48,258.12,258.62,314.99,188.72,314.99z M188.72,62.46
		c-69.35,0-125.77,56.42-125.77,125.77c0,69.35,56.42,125.77,125.77,125.77c69.35,0,125.77-56.42,125.77-125.77
		C314.48,118.88,258.07,62.46,188.72,62.46z"/>
	<g>
		<g>
			<path class="st0" d="M146.88,321.31l-1.66,5.58l6.25,1.86l-0.58,1.94l-6.25-1.86l-2.77,9.32l-2.09-0.62l5.59-18.79l8.55,2.54
				l-0.58,1.94L146.88,321.31z"/>
			<path class="st0" d="M141.96,338.31l-2.33-0.69l0.04-0.12l5.63-18.91l0.12,0.04l8.67,2.58l-0.65,2.18l-0.12-0.04l-6.33-1.89
				l-1.59,5.34l6.25,1.86l-0.65,2.18l-0.12-0.04l-6.13-1.83L141.96,338.31z M139.93,337.45l1.85,0.55l2.77-9.32l0.12,0.04l6.13,1.83
				l0.51-1.7l-6.25-1.86l1.73-5.82l0.12,0.04l6.33,1.89l0.51-1.7l-8.31-2.47L139.93,337.45z"/>
		</g>
		<g>
			<path class="st0" d="M155.59,341.78l-2.14-0.42l3.76-19.24l2.78,0.54c3.65,0.71,6.85,2.35,6,6.68c-0.58,2.96-2.85,4.69-5.86,4.36
				l4.44,9.82l-2.63-0.51l-4.17-9.58l-0.54-0.1L155.59,341.78z M157.61,331.45l0.66,0.13c2.42,0.47,4.96,0.49,5.55-2.49
				c0.62-3.16-1.64-3.92-4.22-4.43l-0.64-0.12L157.61,331.45z"/>
			<path class="st0" d="M164.78,343.7l-2.93-0.57l-4.17-9.58l-0.35-0.07l-1.65,8.45l-2.39-0.47l0.02-0.12l3.79-19.36l2.9,0.57
				c4.82,0.94,6.82,3.18,6.1,6.83c-0.58,2.97-2.84,4.71-5.78,4.48L164.78,343.7z M162.03,342.91l2.33,0.46l-4.43-9.8l0.22,0.02
				c2.91,0.31,5.16-1.36,5.72-4.26c0.69-3.54-1.19-5.61-5.91-6.54l-2.66-0.52l-3.71,18.99l1.9,0.37l1.65-8.45l0.72,0.14
				L162.03,342.91z M160.35,331.94c-0.69,0-1.42-0.1-2.1-0.24l-0.79-0.15l1.4-7.16l0.76,0.15c2.54,0.5,4.97,1.26,4.32,4.58
				C163.5,331.34,162.01,331.94,160.35,331.94z M157.75,331.35l0.54,0.11c2.35,0.46,4.83,0.53,5.4-2.39c0.6-3.09-1.6-3.79-4.12-4.28
				l-0.52-0.1L157.75,331.35z"/>
		</g>
		<g>
			<path class="st0" d="M171.97,338.83l-2.82,5.35l-2.38-0.2l10.7-19.72l7.1,21.19l-2.41-0.2l-1.85-5.73L171.97,338.83z M177,329.33
				l-3.99,7.55l6.61,0.54L177,329.33z"/>
			<path class="st0" d="M184.75,345.59l-2.68-0.22l-1.85-5.73l-8.18-0.67l-2.82,5.35l-2.66-0.22l0.09-0.17l10.84-19.98
				L184.75,345.59z M182.25,345.14l2.14,0.18l-6.94-20.74l-10.48,19.3l2.11,0.17l2.82-5.35l8.51,0.7L182.25,345.14z M179.8,337.57
				l-0.19-0.01l-6.8-0.56l4.21-7.98L179.8,337.57z M173.21,336.77l6.23,0.51l-2.47-7.63L173.21,336.77z"/>
		</g>
		<g>
			<path class="st0" d="M187.34,325.08l16.12,15.19l-0.8-15.17l2.18-0.12l1.08,20.46l-16.12-15.16l0.8,15.09l-2.18,0.12
				L187.34,325.08z"/>
			<path class="st0" d="M206.06,345.76l-16.12-15.16l0.79,14.9l-2.43,0.13l-0.01-0.12l-1.1-20.72l16.12,15.19l-0.79-14.98l2.43-0.13
				l0.01,0.12L206.06,345.76z M187.48,325.38l1.06,19.98l1.93-0.1l-0.81-15.28l0.23,0.21l15.89,14.95l-1.06-20.03l-1.93,0.1
				l0.81,15.35l-0.23-0.21L187.48,325.38z"/>
		</g>
		<g>
			<path class="st0" d="M223.3,325.9c-1.84-1.29-4.15-1.85-6.37-1.42c-4.29,0.83-7.04,5.23-6.22,9.47c0.82,4.24,5.04,7.29,9.35,6.45
				c2.17-0.42,4.09-1.85,5.33-3.68l0.51,2.66c-1.43,1.52-3.34,2.61-5.38,3c-5.44,1.05-10.89-2.47-11.95-7.94
				c-1.07-5.51,2.58-10.91,8.09-11.97c2.14-0.42,4.15-0.17,6.11,0.78L223.3,325.9z"/>
			<path class="st0" d="M218.58,342.7c-2.02,0-4-0.59-5.73-1.73c-2.31-1.52-3.87-3.83-4.39-6.49c-1.08-5.6,2.59-11.04,8.19-12.12
				c2.19-0.42,4.21-0.17,6.19,0.79l0.06,0.03l0.01,0.06l0.57,2.96l-0.25-0.18c-1.86-1.3-4.15-1.81-6.27-1.39
				c-4.14,0.8-6.94,5.07-6.12,9.32c0.39,2.01,1.6,3.85,3.32,5.05c1.76,1.23,3.85,1.7,5.89,1.3c2.04-0.4,3.96-1.72,5.25-3.63
				l0.17-0.25l0.58,3.01l-0.04,0.05c-1.47,1.56-3.4,2.64-5.45,3.04C219.9,342.63,219.24,342.7,218.58,342.7z M218.64,322.4
				c-0.63,0-1.28,0.06-1.94,0.19c-2.63,0.51-4.92,2.03-6.43,4.27c-1.51,2.24-2.07,4.93-1.56,7.56c0.5,2.6,2.02,4.84,4.28,6.33
				c2.24,1.48,4.91,2.02,7.52,1.51c1.97-0.38,3.84-1.42,5.27-2.92l-0.45-2.3c-1.32,1.83-3.21,3.1-5.24,3.49
				c-2.1,0.41-4.26-0.07-6.08-1.34c-1.77-1.24-3.02-3.14-3.42-5.21c-0.85-4.38,2.04-8.79,6.32-9.61c2.09-0.41,4.34,0.05,6.21,1.27
				l-0.45-2.3C221.36,322.71,220.03,322.4,218.64,322.4z"/>
		</g>
		<g>
			<path class="st0" d="M225.15,320.86l9.7-3.04l0.61,1.94l-7.62,2.39l1.74,5.56l7.39-2.32l0.61,1.93l-7.39,2.32l2.3,7.34l7.62-2.39
				l0.61,1.94l-9.7,3.04L225.15,320.86z"/>
			<path class="st0" d="M230.94,339.73l-0.04-0.12l-5.91-18.83l0.12-0.04l9.82-3.08l0.68,2.17l-7.62,2.39l1.67,5.32l7.39-2.32
				l0.68,2.17l-0.12,0.04l-7.27,2.28l2.23,7.11l7.62-2.39l0.68,2.17l-0.12,0.04L230.94,339.73z M225.31,320.94l5.79,18.47l9.46-2.97
				l-0.53-1.7l-7.62,2.39l-2.38-7.58l0.12-0.04l7.27-2.28l-0.53-1.7l-7.39,2.32l-1.82-5.8l7.62-2.39l-0.53-1.7L225.31,320.94z"/>
		</g>
	</g>
	
		<ellipse transform="matrix(0.1445 -0.9895 0.9895 0.1445 -24.8012 347.7569)" class="st0" cx="188.72" cy="188.22" rx="120.53" ry="120.53"/>
	<path class="st1" d="M189.85,102c-15.27,15.64-52.75,33.43-84.51,24.46c1.45,0.41,3.83,10.1,4.38,11.69
		c3.07,8.83,5.86,18.4,8.29,27.4c1.81,6.71,3.52,13.43,5.2,20.17c3.01,13.14,5.86,26.34,10.29,38.19
		c10.83,28.95,30.72,49,56.78,62.74c24.42-14.92,42.34-31.16,53.49-58.21c5.01-12.15,8.35-25.47,11.49-38.49c0.06,0,0.11,0,0.17,0
		c5.47-21.94,10.97-43.85,18.93-63.5C242.6,135.43,205.11,117.63,189.85,102z"/>
	<path class="st0" d="M190.27,280.72l-0.25-0.13c-26.07-13.75-43.42-32.91-53.02-58.59c-3.79-10.14-6.39-21.54-8.9-32.56l-0.69-3.01
		c-1.39-5.55-3.05-12.12-4.83-18.73c-2.66-9.86-5.18-18.18-7.7-25.43c-0.11-0.33-0.31-1.01-0.56-1.89
		c-0.58-2.04-2.34-8.24-3.19-8.67l0.29-0.96c0,0,0,0,0,0c29.93,8.46,64.28-8.49,78.07-22.6l0.36-0.37l0.36,0.37
		c13.79,14.12,48.13,31.06,78.07,22.6l0.98-0.28l-0.38,0.95c-7.5,18.51-12.62,39.08-17.57,58.96l-0.09,0.38h-0.15
		c-3,12.42-6.08,24.48-10.62,35.47c-9.33,22.64-23.8,38.38-49.92,54.34L190.27,280.72z M112.6,132.1c0.76,1.47,1.59,4.13,2.68,8
		c0.24,0.85,0.43,1.52,0.54,1.84c2.53,7.28,5.05,15.62,7.72,25.5c1.78,6.61,3.45,13.19,4.84,18.76l0.69,3.02
		c2.5,10.99,5.09,22.35,8.86,32.43c9.48,25.36,26.59,44.31,52.3,57.93c25.77-15.79,40.06-31.37,49.28-53.72
		c4.55-11.04,7.64-23.19,10.66-35.71l0.09-0.38h0.16c4.85-19.47,9.87-39.56,17.15-57.78c-29.84,7.87-63.69-8.71-77.72-22.77
		C175.89,123.19,142.32,139.68,112.6,132.1z"/>
	<g>
		<path class="st0" d="M97.9,299.74c0.16-0.02,0.43-0.04,0.58,0.08c0.28,0.23,0.38,1.13,0.38,1.35c0,0.18-0.35,0.43-0.45,0.5
			c-0.52,0.15-1.33,0.4-1.67,0.81c-0.81,1-0.29,1.82,0.38,2.37c0.89,0.72,3.83,0.26,5.14,0.21c1.66-0.13,4.57-0.07,6.22,1.27
			c2.04,1.66,2.68,3.59,3.07,4.52c0.72,1.82,0.62,4.12,0.2,5.07c-0.14,0.35-0.2,0.56-0.5,0.93c-0.83,1.02-1.65,1.01-1.87,0.83
			c-0.15-0.12-0.48-1.04-0.34-1.8c0.03-0.12,0.17-0.26,0.54-0.35c0.74-0.16,1.22-0.56,1.46-0.87c0.69-0.85,0.51-1.64-0.4-2.39
			c-0.63-0.51-3.55-0.47-4.81-0.34c-1.9,0.16-3.84,0.02-4.76-0.19c-0.68-0.19-1.41-0.57-2.02-1.06c-1.41-1.15-2.22-3.21-2.49-4.44
			c-0.48-0.57-0.84-1.59-0.89-2.64c-0.02-1.57,0.48-2.5,0.83-2.93C96.86,300.26,97.3,299.9,97.9,299.74z M102.99,307.02
			c-1.69,0.03-4.05,0.32-5.29,0.03c-0.18,0-0.11,0.13-0.1,0.17c0.17,0.5,0.62,1.15,1.18,1.61c1.65,1.34,4.2,1.36,6.55,1.18
			c1.97-0.2,3.97-0.13,4.99,0.16c0.02,0.02,0.16-0.02,0.11-0.13c-0.19-0.52-0.64-1.17-1.27-1.68
			C107.4,306.92,105.26,307.02,102.99,307.02z"/>
	</g>
	<path class="st0" d="M249.67,193.63c0.33-1.36,0.66-2.71,0.99-4.06c0.05,0,0.1,0,0.16,0c5.08-20.4,10.2-40.76,17.6-59.03
		c-29.52,8.34-64.37-8.2-78.56-22.73v85.83H249.67z"/>
	<path class="st0" d="M189.85,193.63l0.37,86.14c-0.14,0.07-0.64,0.11-0.78,0.18c-22.97-13.95-39.81-29.14-50.29-54.42
		c-4.19-10.09-7.13-21.05-9.81-31.9H189.85z"/>
	<g>
		<path class="st0" d="M280.91,300.68c0.35,0.44,0.86,1.36,0.83,2.93c-0.05,1.05-0.41,2.07-0.89,2.64
			c-0.27,1.23-1.08,3.29-2.49,4.44c-0.61,0.49-1.34,0.88-2.02,1.06c-0.92,0.21-2.86,0.34-4.76,0.19c-1.26-0.13-4.18-0.17-4.81,0.34
			c-0.91,0.74-1.09,1.54-0.4,2.39c0.25,0.3,0.72,0.71,1.46,0.87c0.37,0.1,0.51,0.23,0.54,0.35c0.14,0.75-0.19,1.67-0.34,1.8
			c-0.22,0.18-1.04,0.19-1.87-0.83c-0.3-0.37-0.36-0.57-0.5-0.93c-0.42-0.96-0.52-3.26,0.2-5.07c0.39-0.93,1.03-2.86,3.07-4.52
			c1.65-1.34,4.56-1.4,6.22-1.27c1.31,0.05,4.25,0.52,5.14-0.21c0.67-0.55,1.2-1.37,0.38-2.37c-0.34-0.41-1.15-0.66-1.67-0.81
			c-0.09-0.07-0.44-0.32-0.45-0.5c0-0.22,0.1-1.12,0.38-1.35c0.15-0.12,0.43-0.1,0.58-0.08
			C280.14,299.9,280.58,300.26,280.91,300.68z M268.28,308.35c-0.63,0.51-1.07,1.16-1.27,1.68c-0.05,0.12,0.08,0.15,0.11,0.13
			c1.02-0.29,3.02-0.37,4.99-0.16c2.35,0.18,4.9,0.17,6.55-1.18c0.56-0.46,1.01-1.11,1.18-1.61c0-0.04,0.08-0.17-0.1-0.17
			c-1.24,0.29-3.6,0.01-5.29-0.03C272.18,307.02,270.04,306.92,268.28,308.35z"/>
	</g>
	<path class="st1" d="M166.17,222.42c5.3-0.45,9.06,1.59,11.64,4.13c2.44,2.4,4.77,6.1,4.42,11.35c-0.3,4.52-2.34,7.78-5.01,10.1
		c-2.76,2.39-6.7,4.08-11.35,3.54c-4.13-0.48-7.32-2.51-9.65-5.38c-2.19-2.7-3.96-6.64-3.17-11.57c0.82-5.11,3.98-8.74,8.11-10.76
		C162.61,223.11,164.08,222.6,166.17,222.42z M169.49,223.38C170.56,223.64,169.98,223.19,169.49,223.38L169.49,223.38z
		 M163.66,224.78c0.36-0.57,1-0.87,1.48-1.33C164.25,223.45,163.4,223.88,163.66,224.78z M165.21,224.49
		c0.92-0.35,1.95-0.61,2.95-0.88C166.91,223.18,165.95,223.94,165.21,224.49z M161.53,224.63c0.44,0.12,0.65,0.48,1.1,0.59
		c-0.11-0.45,0.35-1.04,0.08-1.18C162.35,224.27,161.84,224.35,161.53,224.63z M170.81,225.52c2.21,0.3,4.04,1.36,5.6,2.06
		c-0.49-2.58-3.12-3.02-5.9-3.32C170.54,224.76,170.83,224.99,170.81,225.52z M168.9,224.41c-0.93,0.14-2.57,0.42-3.1,0.81
		c1.34-0.19,2.83-0.01,4.13,0.07C169.78,224.6,169.57,224.31,168.9,224.41z M159.61,225.81c0.55-0.19,1.4-0.08,1.92-0.29
		C160.86,225.01,160.04,225.21,159.61,225.81z M165.29,226.18c1.51,0.34,2.76,0.92,3.98,1.55c0.27-0.46,0.56-0.92,0.66-1.55
		C168.53,226.01,166.61,225.78,165.29,226.18z M170,228.17c2,0.97,3.5,2.45,5.16,3.76c0.5-0.98,1.16-1.79,1.25-3.17
		c-1.49-1.21-3.47-1.93-5.68-2.43C170.63,227.08,170.26,227.57,170,228.17z M157.55,228.1c0.95-0.5,1.8-1.1,2.8-1.55
		C159.08,226.74,157.94,227.04,157.55,228.1z M166.98,229.87c0.58-0.5,1.32-0.84,1.69-1.55c-1.34-0.55-2.83-1.35-4.35-1.47
		C165.29,227.78,166.11,228.85,166.98,229.87z M163.74,231.34c0.93-0.27,1.82-0.59,2.5-1.11c-0.97-1.04-1.8-2.23-2.87-3.17
		C163.39,228.6,163.56,229.97,163.74,231.34z M179.8,230.46c-0.78-1.23-1.53-2.5-2.65-3.39c0.07,0.4,0.2,0.73,0.15,1.25
		C178.29,228.83,179.02,229.99,179.8,230.46z M157.62,230.6c0.65-1.19,1.94-2.13,2.58-3.1C159.46,228.23,156.22,229.05,157.62,230.6
		z M160.57,231.78c0.88,0.02,1.7-0.02,2.36-0.22c-0.23-1.27-0.27-2.73-0.44-4.05C161.69,228.77,161.05,230.2,160.57,231.78z
		 M158.21,231.19c0.46,0.23,0.91,0.46,1.55,0.52c0.35-1.4,0.84-2.65,1.55-3.69c-0.01-0.09-0.02-0.17-0.15-0.15
		C160.09,228.89,159.03,229.92,158.21,231.19z M169.49,228.84c-0.64,0.56-1.21,1.19-1.99,1.62c1.18,1.74,2.33,3.52,3.54,5.23
		c1.33-0.88,2.57-1.85,3.54-3.1C173.02,231.2,171.45,229.82,169.49,228.84z M156,229.57c0.14-0.23,0.39-0.35,0.44-0.66
		C156.19,228.98,155.91,229.4,156,229.57z M175.68,232.59c1.38,1.37,2.44,3.07,3.46,4.79c0.55-1.14,1.67-2.35,1.47-3.83
		c-0.2-1.47-2.58-3.53-3.39-4.27C176.93,230.61,176.34,231.63,175.68,232.59z M154.82,236.87c0.41-2.18,1.22-3.94,2.29-5.46
		c-0.27-0.35-0.41-0.82-0.74-1.1C155.13,231.77,152.94,234.73,154.82,236.87z M166.69,231.05c-0.91,0.39-1.71,0.89-2.8,1.11
		c0.33,2.16,0.78,4.18,1.33,6.12c1.93-0.43,3.49-1.23,5.01-2.06C169.15,234.38,168.09,232.54,166.69,231.05z M157.7,231.93
		c-1,1.63-1.81,3.45-2.21,5.67c0.82,0.65,1.89,1.06,3.17,1.25c0.01-2.37,0.32-4.44,0.81-6.34
		C158.75,232.45,158.31,232.1,157.7,231.93z M160.28,232.67c-0.45,1.86-0.83,4.18-0.74,6.34c1.84,0.07,3.38-0.16,4.86-0.44
		c-0.61-1.92-0.85-4.21-1.47-6.12C162.16,232.61,161.01,232.7,160.28,232.67z M176.56,240.26c0.39-0.35,1.88-1.56,1.92-2.14
		c0.04-0.71-0.99-1.81-1.47-2.51c-0.71-1.01-1.22-1.84-1.92-2.36c-1.03,1.26-2.28,2.29-3.69,3.17c1.01,1.79,1.96,3.65,2.88,5.53
		C175.02,241.37,175.74,241,176.56,240.26z M179.51,238.34c0.45,1.05,0.68,2.32,0.88,3.61c0.83-1.67,1.23-4.49,0.81-6.93
		C180.85,236.34,180.17,237.33,179.51,238.34z M170.59,236.94c-1.51,0.97-3.39,1.57-5.16,2.28c0.62,1.96,1.23,3.93,1.99,5.75
		c2.23-0.67,4.39-1.41,6.04-2.65C172.6,240.43,171.78,238.5,170.59,236.94z M154.53,241.44c-0.09-1.12-0.13-2.44,0.07-3.46
		c-0.29-0.3-0.52-0.66-0.81-0.96C153.76,238.77,154.06,240.18,154.53,241.44z M155.34,238.64c-0.13,2.01,0.16,3.88,0.74,5.38
		c0.98,0.77,2.23,1.26,3.68,1.55c-0.5-1.78-1.06-3.51-1.03-5.82C157.6,239.62,156.2,239,155.34,238.64z M174.57,242.69
		c0.42,1.25,0.99,2.35,1.18,3.83c1.34-0.65,2.65-1.97,3.68-3.17c0.21-1.59-0.1-3.15-0.59-4.27
		C177.64,240.51,176.19,241.68,174.57,242.69z M159.54,239.82c0.09,2.27,0.56,4.16,1.18,5.9c2.19,0.03,4.31-0.01,5.9-0.59
		c-0.64-1.33-1.1-2.95-1.55-4.42c-0.13-0.44-0.24-1.07-0.66-1.33C163.01,239.76,161.36,239.87,159.54,239.82z M173.91,243.28
		c-0.09,0-0.1-0.1-0.22-0.07c-1.71,1.09-3.68,1.92-5.9,2.51c0.5,1.34,1.17,2.52,1.92,3.61c1.97-0.59,3.87-1.24,5.31-2.36
		C174.78,245.6,174.33,244.45,173.91,243.28z M162.12,249.54c-0.72-0.96-1.5-1.85-1.92-3.1c-1.25-0.12-2.26-0.49-3.24-0.88
		C158.18,247.39,159.87,248.75,162.12,249.54z M167.79,247.77c-0.17-0.33-0.7-1.86-1.11-1.77c-1.44,0.32-3.47,0.76-5.53,0.52
		c0.31,0.71,0.76,1.54,1.33,2.21c0.31,0.37,0.97,1.03,1.4,1.18c1.56,0.52,3.36-0.29,4.94-0.37
		C168.51,248.94,168.18,248.51,167.79,247.77z M175.9,247.55c0.23,0.09-0.16,0.35,0.15,0.37c0.58-0.58,1.53-1.18,1.77-1.84
		C177.29,246.69,176.49,247.01,175.9,247.55z M170.37,250.06c0.62,0.6,1.77-0.07,2.65-0.44c0.81-0.34,1.57-0.67,1.99-1.03
		c-0.09-0.24,0.23-0.45,0-0.59C173.67,248.89,172,249.45,170.37,250.06z M166.98,250.8c0.93-0.08,2.07,0.05,2.73-0.29
		C169.07,250.09,167.77,250.65,166.98,250.8z"/>
	<path class="st3" d="M177.24,146.84c-6.15,0.11-14.52-3-19.91-0.43c-1.01,0.48-1.76,1.53-2.57,2.36
		c-1.98-4.83-15.09-3.72-19.7-1.93c-0.91,0.09-2.21-0.21-2.78,0.21c0,9.49,0,18.99,0,28.48c2.7,0.04,5.31-0.68,7.93-1.25
		c1.75-0.38,3.54-0.61,5.32-0.73c1.56-0.11,3.51-0.39,5.03,0.1c0.85,0.28,1.42,1.09,2.06,1.66c1.57,0,3.14,0,4.71,0
		c0.54-0.61,0.86-1.58,1.93-1.71c0.64-0.08,4.64,0.09,5.39,0.11c4.14,0.07,7.83,0.94,12.85,1.07
		C177.35,165.22,177.74,156.05,177.24,146.84z M135.06,148.98c0.44-0.06,0.43-0.57,0.64-0.86c0.18-0.04,0.2,0.08,0.21,0.21
		c-0.14,5.67,0.21,11.86,0.21,17.99c0,1.9,0.3,3.86-0.86,5.14C134.77,164.4,135.2,156.41,135.06,148.98z M135.49,172.75
		c0.33-0.81,0.95-1.33,1.28-2.14c5.6-0.58,15.19-2.94,17.13,2.57C149.2,170.02,141.48,172.29,135.49,172.75z M154.54,160.33
		c0,3.91,0,7.65,0,11.35c-0.2,0.52-0.71-0.59-1.28-1.07c-3.17-2.63-11.13-1.8-16.27-0.86c-0.37-7.34-0.16-15.25-0.21-22.91
		c4.73-0.61,15.85-1.96,17.56,2.35C155.28,151.61,154.54,157.13,154.54,160.33z M155.4,171.89c0-5.54,0-11.44,0-17.34
		c0-1.91-0.34-4.23,0.21-5.57c1.78-4.29,11.93-2.31,16.49-1.93c0,7.5,0,14.99,0,22.48C166.24,168.59,157.82,168.02,155.4,171.89z
		 M156.04,173.18c1.94-5.11,10.68-3.36,16.27-2.78c0.43,0.79,1.78,1.78,1.71,2.35C167.96,172.49,160.71,169.97,156.04,173.18z
		 M174.67,171.25c-0.44,0.92-1.11-1.39-1.71-1.71c0-7.14,0.11-14.67,0.11-21.81c0.73,0.47,1,1.14,1.6,1.46
		C174.67,156.55,174.67,163.9,174.67,171.25z"/>
	<path class="st0" d="M197.42,241.04l3.38-5.28h-2.84c-0.97,0-1.73-0.96-1.73-2.18v-13.59c0-1.23,0.76-2.19,1.73-2.19h20.63
		c0.97,0,1.74,0.96,1.74,2.19v13.59c0,1.22-0.76,2.18-1.74,2.18h-11.01L197.42,241.04z M197.96,218.8c-0.35,0-0.73,0.49-0.73,1.19
		v13.59c0,0.7,0.39,1.18,0.73,1.18h4.66l-2.35,3.67l7.06-3.67h11.25c0.35,0,0.74-0.49,0.74-1.18v-13.59c0-0.7-0.39-1.19-0.74-1.19
		H197.96z"/>
	<path class="st0" d="M228.85,230.61l-8.19-5.54h-4.47c-1.38,0-2.51-1.13-2.51-2.51v-14.23c0-1.38,1.13-2.51,2.51-2.51h11.39
		c1.38,0,2.51,1.13,2.51,2.51v14.23c0,1.39-1.13,2.51-2.51,2.51h-1.44L228.85,230.61z M216.2,206.82c-0.83,0-1.51,0.68-1.51,1.51
		v14.23c0,0.83,0.68,1.51,1.51,1.51h4.77l5.34,3.61l-1.76-3.61h3.04c0.83,0,1.51-0.68,1.51-1.51v-14.23c0-0.83-0.68-1.51-1.51-1.51
		H216.2z"/>
	<g>
		<path class="st1" d="M212.86,148.75c6.81-0.31,13.62-0.63,20.42-0.94c0.9-0.08,0.43-1.4,1.54-1.28c1.06-0.18,1.18,0.68,1.66,1.13
			c4.05,0.04,9-0.9,12.43-0.17c0.29,0.57,0.33,1.41,0.09,2c-0.59,0.42-1.52,0.53-2.58,0.52c-0.44,0.23-0.02,1.26-0.12,1.81
			c0.02,0.85-1.32,0.46-1.35,1.27c-0.08,1.07,1.16,0.69,1.46,1.34c-0.05,1.04,0.33,2.47-0.05,3.21c-1.13,0.05-2.27,0.1-3.4,0.16
			c-0.1-1.15,0.03-2.56-0.36-3.4c-0.47-0.04-0.77-0.28-1.41-0.13c-1.16,0.35-0.1,2.72-0.64,3.64c-0.73,0.03-1.47,0.07-2.2,0.1
			c-0.15-1.93-0.33-3.88,0.58-4.84c0.05-1.32-1.33-1.07-0.93-2.77c-1.73-0.37-1.65,0.92-2.76,1.13c-1.05,0.24-1.15-0.56-1.65-0.93
			c-6.81,0.31-13.62,0.63-20.42,0.94c-0.24,3.3-1.18,6.08-4.12,6.41c-3.25,0.37-4.93-2.3-5.48-5.77c-0.17-0.66-1.16-0.41-1.06-1.36
			c-0.2-1.08,0.5-1.34,0.92-1.85c0.13-1.93,0.26-3.3,1-4.46C207.11,140.33,213.66,143.47,212.86,148.75z M211.25,148.62
			c-0.04-5.23-6.35-5.19-6.01,0.28c0.17,0.72,0.85,0.89,0.88,1.76c-1.8,2.05,0.46,5.71,2.85,5.29c1.59-0.28,2.15-2.02,2.42-4.12
			c-0.1-0.8-0.98-0.75-0.89-1.77C210.5,149.34,211.23,149.3,211.25,148.62z"/>
	</g>
	<g>
		<g>
			<path class="st1" d="M276.36,195.81c0,7.64-18.8,11.75-18.8,0c0-15.28,6.46-12.34,6.46-12.34S276.36,188.17,276.36,195.81z"/>
			<path class="st0" d="M265.51,203.66c-2.36,0-4.38-0.63-5.86-1.81c-1.7-1.37-2.6-3.46-2.6-6.04c0-6.7,1.22-10.88,3.64-12.44
				c1.76-1.14,3.46-0.39,3.53-0.35c0.49,0.18,12.63,4.9,12.63,12.79C276.86,200.3,270.87,203.66,265.51,203.66z M262.8,183.74
				c-0.46,0-1.01,0.11-1.58,0.48c-1.44,0.94-3.16,3.72-3.16,11.59c0,2.31,0.75,4.08,2.23,5.26c1.29,1.04,3.1,1.59,5.23,1.59
				c4.88,0,10.34-2.93,10.34-6.85c0-7.21-11.9-11.82-12.02-11.87C263.8,183.92,263.39,183.74,262.8,183.74z"/>
		</g>
		<g>
			<path class="st1" d="M267.62,196.96v-9.99h-9.99c0,0-0.18,11.88,0,9.99C257.82,195.07,267.04,191.59,267.62,196.96z"/>
			<path class="st0" d="M257.61,197.67c-0.01,0-0.02,0-0.04,0c-0.6-0.03-0.6-0.03-0.44-10.7l0.01-0.49h10.98v10.49l-1,0.05
				c-0.18-1.62-1.25-2.42-3.21-2.42c-2.85,0.02-5.72,1.77-5.78,2.41C258.12,197.17,258.07,197.67,257.61,197.67z M258.13,187.47
				c-0.04,2.6-0.08,6.11-0.07,8.09c1.35-1.09,3.91-1.96,5.85-1.97c1.36-0.01,2.48,0.38,3.21,1.1v-7.22H258.13z"/>
		</g>
		<g>
			<g>
				<path class="st1" d="M103.58,193.42c0-7.64,18.8-11.75,18.8,0c0,15.28-6.46,12.34-6.46,12.34S103.58,201.06,103.58,193.42z"/>
				<path class="st0" d="M117.14,206.49c-0.81,0-1.39-0.25-1.43-0.27c-0.49-0.18-12.63-4.9-12.63-12.79c0-4.49,5.99-7.85,11.34-7.85
					c2.36,0,4.38,0.63,5.86,1.81c1.7,1.37,2.6,3.46,2.6,6.04c0,6.7-1.22,10.88-3.64,12.44
					C118.49,206.35,117.75,206.49,117.14,206.49z M114.42,186.57c-4.88,0-10.34,2.93-10.34,6.85c0,7.21,11.9,11.82,12.02,11.87
					c0.08,0.03,1.32,0.56,2.62-0.28c1.44-0.94,3.16-3.72,3.16-11.59c0-2.31-0.75-4.08-2.23-5.26
					C118.36,187.12,116.55,186.57,114.42,186.57z"/>
			</g>
			<g>
				<path class="st1" d="M112.39,192.5v9.99h9.99c0,0,0.18-11.88,0-9.99C122.2,194.4,112.98,197.87,112.39,192.5z"/>
				<path class="st0" d="M122.87,202.99h-10.98V192.5l1-0.05c0.18,1.61,1.24,2.42,3.16,2.42c0.02,0,0.03,0,0.05,0
					c2.71-0.02,5.71-1.69,5.78-2.41c0.02-0.17,0.07-0.7,0.56-0.66c0.23,0.01,0.37,0.02,0.45,0.63h0c0,0,0,0,0,0
					c0.12,0.98,0.09,3.5-0.01,10.07L122.87,202.99z M112.89,201.99h9c0.04-2.6,0.08-6.11,0.07-8.09c-1.35,1.09-3.92,1.96-5.85,1.97
					c-1.38,0.02-2.48-0.38-3.21-1.1V201.99z"/>
			</g>
			<g>
				<path class="st1" d="M103.68,193.6c0,0,16.05,21.62,84.21-10.1c59.34-27.61,88.47-11.38,88.47-5.65c0,2.94,0,22.7,0,17.61
					c0-5.09-22.59-14.16-54.32-1.61c-41.62,16.47-70.86,29.3-91.4,28.01c-13-0.82-27.55-4.44-27.55-9.14
					C103.09,207.98,103.68,193.6,103.68,193.6z"/>
				<path class="st0" d="M133.56,222.45c-1,0-1.99-0.03-2.95-0.09c-10.83-0.68-28.02-3.9-28.02-9.64c0-4.69,0.58-19,0.59-19.15
					l0.06-1.4l0.84,1.12c0.16,0.21,16.73,20.87,83.6-10.25c56.72-26.39,82.42-11.81,85.16-10.06c2.55,1.63,4.01,3.4,4.01,4.87v18.44
					h-1v-0.83c0-0.82-0.83-1.86-2.28-2.84c-6.96-4.73-26.38-8.18-51.35,1.7c-4.55,1.8-8.94,3.55-13.2,5.25
					C176.02,212.74,151.69,222.45,133.56,222.45z M104.13,194.81c-0.14,3.55-0.54,14.04-0.54,17.91c0,4.15,14,7.82,27.08,8.64
					c0.95,0.06,1.91,0.09,2.9,0.09c17.93,0,42.18-9.68,75.09-22.81c4.26-1.7,8.66-3.45,13.2-5.25c25.34-10.02,45.15-6.45,52.28-1.6
					c0.71,0.48,1.28,0.97,1.72,1.46v-15.4c0-0.85-0.93-2.35-3.55-4.02c-2.7-1.72-27.97-16.04-84.2,10.13
					c-19.49,9.07-47.1,19.38-67.93,16.99C110.57,199.83,105.89,196.46,104.13,194.81z"/>
			</g>
			<g>
				<path class="st0" d="M143.36,206.79c-0.47-0.54-0.98-0.76-1.71-0.63c-0.77,0.14-1.51,0.82-1.36,1.66
					c0.14,0.75,0.95,1.01,1.59,1.14l0.74,0.14c1.47,0.29,2.63,0.85,2.92,2.47c0.32,1.75-0.81,3.25-2.53,3.57
					c-1.56,0.29-2.98-0.64-3.47-2.15l1.17-0.48c0.18,1.06,1.16,1.68,2.2,1.49c1.04-0.19,1.62-1.19,1.43-2.2
					c-0.19-1.04-1.1-1.33-2-1.53l-0.72-0.16c-1.19-0.27-2.3-0.72-2.54-2.06c-0.29-1.56,0.93-2.75,2.38-3.01
					c1.07-0.2,2.05,0.17,2.75,1L143.36,206.79z"/>
				<path class="st0" d="M147.08,205c0.1,0.43-0.17,0.86-0.6,0.96c-0.43,0.1-0.87-0.16-0.97-0.59c-0.1-0.44,0.17-0.88,0.6-0.98
					C146.54,204.28,146.98,204.55,147.08,205z M148.91,213.67l-1.14,0.27l-1.4-5.92l1.14-0.27L148.91,213.67z"/>
				<path class="st0" d="M150.61,207.78l0.03-0.01c0.17-0.61,0.64-1.18,1.28-1.36c0.76-0.22,1.42,0,1.99,0.54
					c0.18-0.73,0.76-1.35,1.5-1.56c1.54-0.45,2.28,0.63,2.67,1.96l1.02,3.49l-1.12,0.33l-0.97-3.31c-0.22-0.75-0.6-1.68-1.59-1.39
					c-1.2,0.35-0.92,1.62-0.66,2.52l0.84,2.87l-1.12,0.33l-0.9-3.1c-0.22-0.76-0.6-1.91-1.64-1.61c-1.2,0.35-0.94,1.62-0.67,2.53
					l0.84,2.87l-1.12,0.33l-1.71-5.84l1.12-0.33L150.61,207.78z"/>
				<path class="st0" d="M160.18,205.09l0.02-0.01c0.21-0.85,0.75-1.53,1.61-1.83c1.66-0.58,3.2,0.5,3.75,2.07
					c0.57,1.65,0.1,3.45-1.67,4.07c-0.81,0.28-1.67,0.08-2.33-0.41l-0.03,0.01l1.46,4.19l-1.11,0.38l-3.14-9.04l1.11-0.38
					L160.18,205.09z M164.47,205.75c-0.39-1.12-1.39-1.83-2.58-1.41c-1.14,0.4-1.47,1.63-1.1,2.7c0.38,1.08,1.38,1.86,2.54,1.46
					C164.53,208.07,164.86,206.88,164.47,205.75z"/>
				<path class="st0" d="M168.86,207.36l-1.1,0.41l-3.97-10.57l1.1-0.41L168.86,207.36z"/>
				<path class="st0" d="M167.22,201.49l1.27-0.5l3.34,2.83l0.35-4.29l1.22-0.49l-1.04,10.72l-1.23,0.49l0.55-5.09L167.22,201.49z"
					/>
				<path class="st0" d="M176.78,199.95c-0.05-0.43-0.06-0.73-0.02-0.89c0.09-0.48,0.23-0.88,0.43-1.21
					c0.19-0.33,0.39-0.58,0.59-0.75c0.26-0.21,0.48-0.36,0.66-0.44c0.42-0.18,0.78-0.3,1.06-0.35c0.29-0.05,0.55-0.05,0.77-0.01
					c0.33,0.07,0.61,0.15,0.83,0.27c0.23,0.11,0.45,0.27,0.65,0.47c0.2,0.2,0.38,0.47,0.54,0.81l-0.75,0.31
					c-0.21,0.09-0.67,0.27-1.38,0.53c-0.27,0.09-0.45,0.16-0.55,0.2c-0.03,0.01-0.27,0.12-0.72,0.33l-0.58,0.25
					c0.02,0.07,0.04,0.12,0.06,0.17c0.1,0.24,0.24,0.48,0.41,0.71c0.17,0.24,0.36,0.43,0.56,0.58c0.2,0.15,0.42,0.26,0.66,0.33
					c0.23,0.07,0.46,0.09,0.67,0.08l0.44-0.04c0.34-0.15,0.57-0.26,0.68-0.33c0.2-0.14,0.36-0.28,0.49-0.42
					c0.13-0.14,0.28-0.34,0.44-0.61c0.21,0.05,0.39,0.09,0.54,0.14c-0.21,0.61-0.48,1.1-0.81,1.48c-0.34,0.38-0.77,0.68-1.29,0.91
					c-0.35,0.15-0.66,0.25-0.91,0.28c-0.34,0.05-0.66,0.04-0.97-0.02c-0.31-0.06-0.61-0.18-0.89-0.35
					c-0.28-0.17-0.52-0.37-0.72-0.59c-0.26-0.29-0.44-0.54-0.53-0.75C176.97,200.66,176.85,200.29,176.78,199.95z M180.56,197.97
					c-0.11-0.25-0.27-0.47-0.46-0.66c-0.19-0.19-0.42-0.3-0.67-0.35c-0.25-0.04-0.48-0.02-0.68,0.07c-0.3,0.13-0.51,0.38-0.64,0.75
					c-0.13,0.37-0.11,0.79,0.06,1.25l1.54-0.65c0.1-0.04,0.23-0.11,0.41-0.2c0.12-0.07,0.21-0.12,0.27-0.14
					C180.41,198.03,180.47,198,180.56,197.97z"/>
				<path class="st0" d="M184.14,200.61c0.19-0.18,0.34-0.34,0.46-0.5c0.08-0.1,0.14-0.2,0.18-0.3c0.04-0.1,0.14-0.33,0.29-0.71
					l0.66-1.76l0.05-0.14c-0.04-0.01-0.42-0.15-1.15-0.42l-0.15-0.09c-0.29-0.1-0.51-0.2-0.67-0.28l-0.19-0.05
					c-0.47-0.21-0.79-0.34-0.95-0.39c-0.05-0.01-0.19-0.03-0.43-0.03c-0.04,0-0.1-0.01-0.18-0.01c-0.07-0.08-0.12-0.15-0.14-0.19
					c-0.05-0.11-0.07-0.18-0.06-0.23c0.01-0.03,0.04-0.05,0.07-0.07c0.08-0.02,0.13-0.04,0.16-0.06l0.19-0.1l0.11-0.03l0.36-0.14
					c0.34-0.16,0.76-0.37,1.25-0.63l0.73-0.33c0.04,0.06,0.07,0.12,0.09,0.16c0.03,0.06,0.04,0.14,0.05,0.25
					c-0.16,0.15-0.27,0.28-0.32,0.38l0,0.08c0.02,0.04,0.06,0.07,0.14,0.1l1.6,0.66l0.42-1.55c0.02-0.15,0.03-0.24,0-0.29
					l-0.02-0.05c-0.13-0.02-0.35,0.01-0.66,0.1c-0.06-0.09-0.11-0.17-0.14-0.24l-0.05-0.11l0.12-0.05c0.08-0.04,0.22-0.09,0.43-0.16
					c0.3-0.13,0.56-0.24,0.78-0.32c0.07-0.03,0.15-0.08,0.26-0.16c0.15-0.1,0.25-0.16,0.28-0.17l0.12-0.05l0.29-0.13l0.05,0.1
					c0.04,0.08,0.06,0.16,0.07,0.26c-0.05,0.07-0.13,0.16-0.24,0.25c-0.26,0.22-0.43,0.39-0.51,0.51c-0.03,0.04-0.11,0.25-0.23,0.6
					c-0.25,0.7-0.42,1.24-0.52,1.62l1.83,0.83c0.73,0.36,1.2,0.58,1.39,0.66c0.15,0.05,0.35,0.1,0.58,0.13
					c0.05,0.05,0.1,0.11,0.13,0.19l0.09,0.19c-0.1,0.04-0.19,0.08-0.26,0.11c-0.59,0.23-1.02,0.4-1.27,0.52
					c-0.05,0.02-0.15,0.08-0.28,0.15l-0.21,0.1c-0.31,0.18-0.56,0.32-0.77,0.42l-0.09,0.03c-0.05-0.08-0.08-0.14-0.1-0.18
					c-0.01-0.03-0.03-0.08-0.05-0.14c0.08-0.12,0.17-0.24,0.27-0.35c0.05-0.07,0.1-0.14,0.16-0.23c-0.06-0.09-0.11-0.15-0.17-0.19
					c-0.08-0.05-0.23-0.12-0.46-0.2c-0.07-0.02-0.31-0.13-0.72-0.33c-0.16-0.07-0.34-0.15-0.54-0.22c-0.31,0.74-0.49,1.23-0.54,1.47
					c-0.03,0.16-0.02,0.29,0.02,0.38c0.04,0.08,0.09,0.13,0.17,0.17c0.08,0.04,0.19,0.05,0.34,0.04c0.1-0.01,0.18-0.02,0.25-0.02
					l0.1-0.01c0.03,0.04,0.05,0.07,0.06,0.09c0.02,0.05,0.04,0.12,0.05,0.23c-0.07,0.03-0.17,0.07-0.3,0.1
					c-0.21,0.07-0.43,0.16-0.67,0.27c-0.34,0.16-0.67,0.32-0.99,0.5c-0.22,0.11-0.38,0.2-0.49,0.25c-0.04-0.08-0.07-0.13-0.09-0.17
					L184.14,200.61z"/>
				<path class="st0" d="M195.65,193.67c0.09,0.01,0.15,0.01,0.2,0.01c0.12,0,0.23,0.02,0.32,0.06c0.08,0.5-0.05,1.02-0.37,1.55
					c-0.32,0.53-0.84,0.95-1.55,1.26c-0.45,0.2-0.93,0.3-1.45,0.3c-0.52,0-0.98-0.09-1.37-0.29c-0.3-0.15-0.58-0.37-0.84-0.67
					c-0.25-0.3-0.43-0.57-0.54-0.81c-0.13-0.29-0.21-0.65-0.25-1.07c-0.04-0.42,0.02-0.86,0.17-1.32c0.15-0.46,0.41-0.88,0.78-1.27
					c0.37-0.39,0.83-0.71,1.39-0.95c0.77-0.34,1.37-0.46,1.78-0.35c0.41,0.11,0.67,0.28,0.77,0.52c0.1,0.24,0.12,0.45,0.06,0.64
					c-0.06,0.19-0.2,0.33-0.42,0.43c-0.18,0.08-0.38,0.09-0.58,0.04c-0.21-0.05-0.43-0.2-0.65-0.44c-0.17-0.17-0.34-0.28-0.5-0.31
					c-0.16-0.03-0.33-0.01-0.51,0.06c-0.42,0.18-0.72,0.53-0.89,1.03c-0.17,0.5-0.12,1.07,0.15,1.69c0.33,0.75,0.79,1.25,1.39,1.51
					c0.6,0.26,1.15,0.28,1.67,0.06c0.25-0.11,0.46-0.24,0.61-0.37c0.09-0.09,0.21-0.24,0.34-0.46c0.03-0.06,0.08-0.19,0.15-0.41
					C195.58,193.9,195.63,193.75,195.65,193.67z"/>
				<path class="st0" d="M196.2,191.3c-0.04-0.43-0.04-0.73,0-0.89c0.1-0.47,0.26-0.87,0.46-1.2c0.2-0.33,0.41-0.57,0.61-0.73
					c0.26-0.21,0.49-0.35,0.67-0.42c0.43-0.17,0.78-0.28,1.07-0.32c0.29-0.04,0.55-0.04,0.77,0.02c0.32,0.07,0.6,0.17,0.83,0.29
					c0.23,0.12,0.44,0.28,0.63,0.49c0.2,0.21,0.37,0.48,0.52,0.83l-0.76,0.29c-0.21,0.08-0.67,0.25-1.4,0.49
					c-0.27,0.08-0.46,0.15-0.56,0.19c-0.03,0.01-0.27,0.12-0.73,0.31l-0.58,0.24c0.02,0.07,0.03,0.12,0.05,0.17
					c0.1,0.24,0.23,0.48,0.39,0.72c0.17,0.24,0.35,0.44,0.55,0.59c0.2,0.16,0.41,0.27,0.65,0.34c0.23,0.08,0.46,0.11,0.67,0.1
					l0.45-0.03c0.35-0.14,0.58-0.25,0.69-0.32c0.2-0.13,0.37-0.27,0.5-0.41c0.14-0.14,0.29-0.34,0.46-0.6
					c0.21,0.05,0.39,0.1,0.54,0.16c-0.22,0.6-0.51,1.08-0.85,1.45c-0.35,0.37-0.79,0.66-1.32,0.88c-0.36,0.14-0.66,0.23-0.92,0.26
					c-0.34,0.04-0.66,0.03-0.97-0.04c-0.31-0.07-0.61-0.19-0.88-0.37c-0.28-0.18-0.51-0.38-0.7-0.61c-0.25-0.3-0.42-0.55-0.5-0.76
					C196.38,192.01,196.27,191.64,196.2,191.3z M200.03,189.42c-0.11-0.25-0.26-0.48-0.44-0.67c-0.19-0.19-0.41-0.32-0.66-0.36
					c-0.25-0.05-0.48-0.03-0.68,0.05c-0.3,0.12-0.52,0.37-0.66,0.73c-0.14,0.37-0.13,0.78,0.02,1.25l1.55-0.61
					c0.1-0.04,0.24-0.1,0.41-0.19c0.13-0.07,0.22-0.11,0.27-0.13C199.89,189.47,199.95,189.45,200.03,189.42z"/>
				<path class="st0" d="M204.76,196.03l-0.11-0.31c0.06-0.08,0.11-0.14,0.14-0.17l0.46-0.38c0.19-0.17,0.29-0.28,0.3-0.34
					c0.02-0.16-0.03-0.42-0.17-0.76l-1.04-2.72l-1.3-3.38c-0.1-0.24-0.22-0.4-0.35-0.47c-0.13-0.07-0.41-0.09-0.85-0.07l-0.14-0.36
					c0.42-0.25,0.76-0.49,1.02-0.73c0.19-0.17,0.43-0.46,0.73-0.85l0.35-0.14l0.08,0.19l0.26,0.75c0.01,0.03,0.04,0.1,0.08,0.2
					c0.31-0.39,0.58-0.67,0.81-0.84c0.34-0.25,0.73-0.45,1.19-0.62c0.47-0.17,0.93-0.2,1.38-0.09c0.03,0.01,0.08,0.02,0.14,0.03
					c0.29,0.08,0.51,0.18,0.67,0.29c0.35,0.24,0.63,0.5,0.84,0.79c0.16,0.21,0.31,0.5,0.44,0.85c0.17,0.48,0.26,0.9,0.25,1.28
					c0,0.38-0.1,0.79-0.28,1.23c-0.18,0.45-0.42,0.8-0.72,1.07c-0.29,0.27-0.63,0.47-1.01,0.61c-0.38,0.14-0.65,0.21-0.83,0.22
					c-0.34,0.02-0.69,0.01-1.05-0.05c0.01,0.08,0.02,0.13,0.03,0.16l0.09,0.18c0.02,0.05,0.05,0.11,0.07,0.18
					c0.01,0.03,0.07,0.22,0.18,0.55l0.48,1.24c0.01,0.03,0.04,0.12,0.09,0.28l0.03,0.08c0.06,0.17,0.12,0.29,0.17,0.36
					c0.04,0.04,0.09,0.08,0.18,0.11c0.05,0,0.1,0.01,0.15,0.01c0.15-0.02,0.29-0.04,0.41-0.05c0.12-0.01,0.24-0.03,0.37-0.05
					c0.06,0.04,0.1,0.09,0.13,0.18c0.02,0.05,0.04,0.12,0.07,0.22l-0.12,0.04c-0.27,0.1-0.46,0.16-0.56,0.19l-1.07,0.29l-0.26,0.09
					l-0.24,0.08l-0.23,0.11l-0.37,0.16c-0.14,0.05-0.28,0.12-0.44,0.2s-0.28,0.13-0.35,0.16L204.76,196.03z M205.59,190.16
					c0.04,0.05,0.07,0.08,0.08,0.11c0.13,0.19,0.25,0.32,0.35,0.38c0.2,0.11,0.41,0.17,0.61,0.15c0.3-0.02,0.56-0.07,0.77-0.14
					c0.24-0.09,0.45-0.22,0.65-0.4c0.19-0.18,0.33-0.38,0.4-0.6c0.01-0.03,0.03-0.07,0.05-0.13c0.01-0.09,0.01-0.15,0.02-0.19
					c0.05-0.42,0.01-0.84-0.14-1.24c-0.27-0.74-0.72-1.29-1.34-1.64c-0.44-0.25-0.94-0.28-1.51-0.07c-0.34,0.12-0.69,0.35-1.05,0.67
					c0.05,0.18,0.23,0.69,0.53,1.51l0.49,1.33C205.51,189.93,205.54,190.01,205.59,190.16z"/>
				<path class="st0" d="M209.89,184.37c0.47-0.41,0.8-0.76,0.97-1.07c0.17-0.3,0.32-0.75,0.43-1.34l0.39-0.12
					c0.08,0.11,0.14,0.23,0.19,0.36c0.08,0.24,0.14,0.43,0.17,0.57l0.11,0.42c0.01,0.02,0.03,0.08,0.06,0.16l0.16-0.04
					c0.02-0.01,0.24-0.09,0.65-0.24c0.03-0.01,0.21-0.07,0.52-0.18c0.07,0.12,0.12,0.22,0.15,0.32c0.03,0.11,0.06,0.24,0.07,0.39
					c-0.14,0.08-0.26,0.13-0.33,0.15c-0.04,0.01-0.12,0.03-0.23,0.04l-0.36,0.12l-0.13,0.03l-0.33,0.13l0.84,2.67
					c0.16,0.52,0.28,0.84,0.34,0.96c0.07,0.12,0.16,0.22,0.28,0.31c0.12,0.02,0.25,0,0.38-0.04c0.12-0.04,0.21-0.08,0.27-0.12
					c0.05-0.04,0.13-0.14,0.24-0.3c0.02-0.03,0.05-0.08,0.1-0.14c0.14,0.05,0.26,0.11,0.36,0.18l0.05,0.07
					c-0.08,0.31-0.25,0.58-0.49,0.82c-0.25,0.24-0.54,0.42-0.87,0.52c-0.43,0.14-0.83,0.12-1.18-0.07
					c-0.36-0.19-0.63-0.57-0.81-1.14l-0.37-1.23l-0.64-1.98l-0.22,0.06l-0.5,0.17l-0.1,0c-0.04-0.03-0.07-0.07-0.08-0.1
					C209.96,184.65,209.93,184.55,209.89,184.37z"/>
				<path class="st0" d="M214.42,179.6c-0.07-0.25-0.05-0.48,0.06-0.69c0.12-0.21,0.3-0.35,0.56-0.43c0.28-0.08,0.53-0.06,0.76,0.06
					c0.23,0.12,0.38,0.28,0.44,0.5c0.05,0.16,0.06,0.33,0.03,0.51c-0.03,0.18-0.1,0.34-0.23,0.48c-0.13,0.14-0.28,0.24-0.44,0.29
					c-0.22,0.07-0.46,0.03-0.71-0.11C214.66,180.07,214.5,179.87,214.42,179.6z M215.89,188.28l-0.15-0.45l0.76-0.34
					c0.11-0.07,0.17-0.14,0.2-0.21c0.03-0.08,0.01-0.22-0.06-0.45l-0.02-0.08c-0.02-0.06-0.04-0.16-0.08-0.31
					c-0.04-0.15-0.07-0.28-0.1-0.39c-0.03-0.09-0.08-0.26-0.17-0.51l-0.09-0.35l-0.11-0.33l-0.31-1.15
					c-0.04-0.15-0.1-0.29-0.17-0.44c-0.07-0.06-0.18-0.09-0.34-0.1c-0.15-0.01-0.4,0.02-0.75,0.1l-0.12-0.39
					c0.47-0.17,0.87-0.39,1.18-0.67c0.22-0.19,0.43-0.46,0.63-0.83l0.47-0.14c0.19,0.58,0.42,1.33,0.69,2.26l0.79,2.88
					c0.06,0.2,0.12,0.37,0.18,0.53c0.16,0.01,0.41-0.01,0.75-0.05c0.13-0.02,0.24-0.02,0.32-0.02l0.1,0.39
					c-0.12,0.04-0.22,0.07-0.28,0.09c-0.07,0.02-0.18,0.05-0.33,0.08c-0.48,0.12-1.13,0.29-1.93,0.52
					c-0.23,0.07-0.45,0.14-0.66,0.22C216.11,188.2,215.97,188.26,215.89,188.28z"/>
				<path class="st0" d="M224.46,180.43c0.38,0.22,0.69,0.5,0.93,0.84c0.25,0.34,0.41,0.68,0.49,1.02c0.16,0.64,0.19,1.17,0.09,1.61
					c-0.15,0.66-0.44,1.19-0.86,1.6c-0.43,0.4-0.97,0.69-1.63,0.85c-0.74,0.18-1.41,0.18-2-0.03c-0.6-0.2-1.06-0.49-1.38-0.85
					c-0.33-0.37-0.57-0.86-0.72-1.49c-0.08-0.32-0.11-0.65-0.08-1c0.03-0.35,0.1-0.66,0.22-0.94c0.12-0.28,0.27-0.53,0.45-0.75
					c0.26-0.31,0.54-0.55,0.84-0.72c0.3-0.18,0.67-0.32,1.13-0.44C222.92,179.89,223.76,179.99,224.46,180.43z M221.19,183.86
					c0.19,0.58,0.3,0.91,0.35,1c0.14,0.3,0.31,0.55,0.5,0.75c0.13,0.12,0.31,0.22,0.54,0.28c0.24,0.06,0.5,0.06,0.79-0.02
					c0.35-0.09,0.61-0.27,0.79-0.55c0.18-0.28,0.27-0.67,0.25-1.16c-0.01-0.32-0.1-0.84-0.28-1.54c-0.21-0.86-0.51-1.44-0.88-1.73
					c-0.37-0.29-0.79-0.37-1.26-0.26c-0.37,0.09-0.64,0.27-0.83,0.53c-0.19,0.26-0.28,0.61-0.28,1.03
					C220.89,182.46,220.99,183.02,221.19,183.86z"/>
				<path class="st0" d="M227.29,184.85c0.11-0.08,0.22-0.14,0.33-0.18c0.26-0.09,0.4-0.16,0.44-0.19c0.06-0.06,0.1-0.12,0.11-0.18
					c0.01-0.1-0.01-0.32-0.07-0.64l-0.12-0.63l-0.09-0.51l-0.16-0.75l-0.08-0.45c-0.06-0.3-0.12-0.55-0.21-0.73
					c-0.03-0.07-0.11-0.13-0.22-0.18c-0.15-0.07-0.4-0.12-0.74-0.16l-0.07-0.34c0.06-0.03,0.11-0.05,0.16-0.07
					c0.05-0.02,0.23-0.1,0.55-0.25c0.25-0.14,0.41-0.24,0.47-0.3c0.02-0.02,0.06-0.05,0.1-0.09c0.05-0.06,0.1-0.12,0.17-0.18
					c0.13-0.13,0.27-0.33,0.42-0.62l0.38-0.1l0.13,0.82c0.01,0.08,0.01,0.15,0.02,0.2c0.01,0.04,0.03,0.15,0.08,0.33
					c0.34-0.42,0.65-0.73,0.95-0.92c0.39-0.26,0.78-0.42,1.17-0.49c0.45-0.08,0.87-0.04,1.25,0.12c0.38,0.16,0.65,0.38,0.81,0.65
					c0.16,0.27,0.32,0.86,0.48,1.75l0.4,2.36c0.02,0.11,0.06,0.2,0.11,0.26c0.05,0.02,0.19,0.03,0.41,0.03l0.37,0
					c0.05,0.05,0.09,0.12,0.11,0.21c0.01,0.06,0.02,0.13,0.04,0.24l-1.43,0.16l-0.42,0.09l-0.33,0.06l-0.94,0.24l-0.24,0.04
					c-0.02-0.06-0.03-0.11-0.03-0.14c-0.02-0.08-0.03-0.18-0.04-0.28c0.06-0.03,0.23-0.08,0.49-0.16c0.07-0.02,0.15-0.05,0.23-0.09
					c0.09-0.06,0.14-0.1,0.14-0.15c0.02-0.09,0.01-0.25-0.03-0.48c-0.07-0.4-0.13-0.71-0.18-0.93l-0.15-0.84
					c-0.19-1.01-0.37-1.63-0.54-1.86c-0.25-0.33-0.55-0.46-0.92-0.39c-0.27,0.05-0.53,0.17-0.8,0.36c-0.26,0.19-0.52,0.45-0.78,0.79
					l0.01,0.12l0.1,0.45l0.07,0.49l0.24,1.15l0.02,0.18c0.14,0.78,0.26,1.22,0.34,1.31c0.08,0.09,0.34,0.16,0.78,0.21
					c0.03,0.08,0.05,0.14,0.05,0.18c0.01,0.06,0.01,0.15,0,0.28c-0.15,0.03-0.27,0.06-0.37,0.08c-0.1,0.02-0.26,0.03-0.49,0.04
					l-0.78,0.13c-0.38,0.07-0.94,0.19-1.66,0.36c-0.03-0.04-0.05-0.09-0.06-0.14C227.32,185.05,227.31,184.97,227.29,184.85z"/>
				<path class="st0" d="M241.63,181.71l0.18,0.09c0.05,0.03,0.08,0.07,0.09,0.12l0.01,0.04c-0.07,0.44-0.19,0.76-0.36,0.94
					c-0.17,0.18-0.4,0.29-0.68,0.32c-0.29,0.03-0.54-0.02-0.76-0.16c-0.22-0.14-0.44-0.39-0.66-0.77c-0.17,0.39-0.43,0.7-0.79,0.93
					c-0.36,0.23-0.81,0.37-1.36,0.43c-0.5,0.05-0.89-0.01-1.15-0.2c-0.26-0.19-0.41-0.45-0.45-0.79c-0.02-0.16,0-0.33,0.05-0.5
					c0.05-0.17,0.15-0.35,0.29-0.53c0.14-0.18,0.37-0.39,0.7-0.62c0.05-0.04,0.23-0.14,0.53-0.31l1.73-0.93
					c-0.01-0.19-0.02-0.37-0.04-0.56c-0.07-0.66-0.2-1.09-0.39-1.31c-0.11-0.13-0.29-0.19-0.53-0.16c-0.24,0.03-0.46,0.1-0.65,0.21
					c-0.19,0.11-0.33,0.25-0.41,0.41c-0.06,0.11-0.09,0.32-0.11,0.62c-0.01,0.22-0.03,0.34-0.05,0.38c-0.06,0.1-0.19,0.2-0.37,0.29
					c-0.18,0.1-0.31,0.16-0.37,0.21c-0.25,0.16-0.45,0.24-0.61,0.26c-0.07-0.05-0.12-0.13-0.13-0.24c-0.03-0.28,0-0.52,0.1-0.73
					c0.14-0.3,0.38-0.6,0.7-0.91c0.32-0.3,0.63-0.53,0.93-0.66c0.4-0.18,0.9-0.31,1.51-0.37c0.39-0.04,0.73-0.01,1.03,0.11
					c0.29,0.11,0.51,0.3,0.65,0.57c0.14,0.27,0.25,0.77,0.33,1.5l0.12,1.2l0.11,0.88l0.02,0.23c0.02,0.2,0.07,0.34,0.13,0.41
					c0.06,0.07,0.14,0.1,0.22,0.09c0.05-0.01,0.1-0.03,0.13-0.06l0.18-0.37L241.63,181.71z M239.06,180.28
					c-0.27,0.12-0.56,0.31-0.88,0.56c-0.32,0.25-0.54,0.5-0.65,0.73c-0.08,0.17-0.11,0.37-0.08,0.61c0.02,0.21,0.1,0.38,0.25,0.5
					c0.14,0.12,0.29,0.17,0.46,0.16c0.27-0.03,0.49-0.13,0.67-0.31c0.23-0.24,0.37-0.42,0.4-0.55c0.03-0.13,0.01-0.48-0.05-1.06
					C239.13,180.7,239.1,180.49,239.06,180.28z"/>
				<path class="st0" d="M242.26,182.75c0.1-0.08,0.25-0.13,0.42-0.16c0.34-0.05,0.53-0.11,0.58-0.18c0.09-0.13,0.13-0.39,0.11-0.78
					l-0.09-2.06l-0.04-0.49l-0.07-1.48l-0.09-1.69l-0.01-0.29c-0.02-0.4-0.06-0.69-0.13-0.88c-0.18-0.09-0.36-0.14-0.56-0.13
					c-0.12,0-0.23,0-0.33-0.02c-0.02-0.12-0.03-0.21-0.03-0.27c0-0.04,0-0.08,0.01-0.13c0.38-0.06,0.78-0.18,1.19-0.35
					c0.41-0.17,0.72-0.34,0.93-0.51l0.2-0.02c0.04,0,0.11,0,0.19,0c0.1,1.69,0.17,2.84,0.2,3.46c0.01,0.19,0.01,0.33,0,0.45l0,0.04
					l0.02,0.14l0.14,3.24l0.06,1.07l0.01,0.18c0.01,0.21,0.05,0.36,0.12,0.44c0.06,0.06,0.19,0.09,0.38,0.1
					c0.1,0,0.3,0.02,0.61,0.05c0.03,0.1,0.04,0.18,0.05,0.25c0,0.05,0,0.12-0.01,0.21l-0.58,0c-0.32-0.01-0.73,0-1.22,0.02
					l-0.27,0.01c-0.28,0.01-0.68,0.05-1.2,0.12l-0.53,0.02L242.26,182.75z"/>
			</g>
		</g>
	</g>
</g>
</svg>
