<svg xmlns="http://www.w3.org/2000/svg" viewBox="0 0 58.3 60.6"><style type="text/css">  
	.st0{fill:#FFFFFF;}
	.st1{fill:#022C5E;}
	.st2{fill:#1F2E59;}
	.st3{fill-rule:evenodd;clip-rule:evenodd;fill:#1F2E59;}
</style><path class="st0" d="M29.1 1.4c-4.8 4.9-16.7 10.6-26.7 7.7 0.5 0.1 1.2 3.2 1.4 3.7 1 2.8 1.9 5.8 2.6 8.7 0.6 2.1 1.1 4.3 1.6 6.4 1 4.2 1.9 8.3 3.3 12.1 3.4 9.2 9.7 15.5 18 19.9 7.7-4.7 13.4-9.9 16.9-18.4 1.6-3.8 2.6-8.1 3.6-12.2 0 0 0 0 0.1 0 1.7-6.9 3.5-13.9 6-20.1C45.8 12 34 6.3 29.1 1.4z"/><path class="st1" d="M29.3 60.1l-0.2-0.1c-8.9-4.7-14.8-11.2-18.1-20 -1.3-3.5-2.2-7.3-3-11.1l-0.2-1c-0.5-1.9-1-4.1-1.6-6.4 -0.9-3.4-1.8-6.2-2.6-8.7 0-0.1-0.1-0.3-0.2-0.6 -0.2-0.7-0.8-2.7-1-2.9l0.1-0.2 0.1-0.3 0 0 0 0c10.2 2.9 21.8-2.9 26.5-7.7v-0.1l0.2 0.2c3.8 3.9 12.3 8.4 20.8 8.4 1.9 0 3.9-0.2 5.8-0.8l0.5-0.1 -0.3 0.5c-2.5 6.3-4.3 13.3-6 20.1v0.2l0 0c-1 4.2-2.1 8.3-3.6 12 -3.2 7.7-8.1 13.1-17 18.5L29.3 60.1zM3 9.6c0.2 0.5 0.5 1.3 0.8 2.6 0.1 0.3 0.1 0.5 0.2 0.6 0.9 2.5 1.7 5.3 2.6 8.7 0.6 2.3 1.2 4.5 1.6 6.4l0.2 1c0.9 3.7 1.7 7.6 3 11 3.2 8.6 9 15 17.7 19.6 8.7-5.4 13.6-10.6 16.7-18.2 1.5-3.8 2.6-7.9 3.6-12.1v-0.2h0.1c1.6-6.5 3.3-13.3 5.7-19.4 -1.8 0.4-3.6 0.6-5.4 0.6 -8.5 0-17-4.5-20.9-8.4C24.4 6.5 13.1 12 3 9.6z"/><path class="st2" d="M29.3 58.1l-0.2-0.1c-8.3-4.4-13.8-10.4-16.8-18.6 -1.2-3.2-2-6.8-2.8-10.3l-0.2-0.9c-0.4-1.8-1-3.8-1.5-5.9 -0.8-3.1-1.6-5.7-2.4-8 0-0.1-0.1-0.3-0.2-0.6 -0.2-0.6-0.7-2.5-1-2.7l0.1-0.2 0.1-0.3 0 0 0 0c9.4 2.7 20.3-2.7 24.6-7.1l0.1-0.4 0.2 0.2c4.3 4.4 15.2 9.8 24.6 7.1l0.5-0.1 -0.2 0.5c-2.4 5.9-4 12.4-5.6 18.6l-0.1 0.2 0 0c-0.9 3.9-1.9 7.7-3.3 11.2 -3 7.2-7.6 12.2-15.8 17.2L29.3 58.1zM4.9 11.1c0.2 0.5 0.4 1.2 0.8 2.3 0.1 0.3 0.1 0.5 0.2 0.6 0.8 2.3 1.6 4.9 2.4 8.1 0.6 2.1 1.1 4.2 1.5 5.9l0.2 1c0.8 3.5 1.6 7.1 2.8 10.3 3 8 8.4 13.9 16.4 18.2 8.1-5 12.6-9.9 15.5-16.9 1.4-3.5 2.4-7.3 3.4-11.3v-0.2h0.1c1.5-6.1 3.1-12.3 5.3-18 -9.4 2.4-19.9-2.8-24.4-7.2C24.7 8.2 14.2 13.3 4.9 11.1z"/><path class="st2" d="M48.1 30.4c0.1-0.4 0.2-0.9 0.3-1.3l0 0c1.6-6.5 3.2-12.9 5.6-18.7 -9.3 2.6-20.4-2.6-24.9-7.2v27.2H48.1z"/><path class="st2" d="M29.1 30.4l0.1 27.3c0 0-0.2 0-0.2 0.1 -7.3-4.5-12.6-9.3-15.9-17.3 -1.3-3.2-2.3-6.7-3.1-10.1H29.1z"/><path class="st0" d="M21.6 39.5c1.7-0.1 2.9 0.5 3.7 1.3s1.5 1.9 1.4 3.6c-0.1 1.4-0.7 2.5-1.6 3.2 -0.9 0.8-2.1 1.3-3.6 1.1 -1.3-0.2-2.3-0.8-3.1-1.7 -0.7-0.9-1.3-2.1-1-3.7 0.3-1.6 1.3-2.8 2.6-3.4C20.5 39.7 21 39.5 21.6 39.5zM22.7 39.8C23 39.9 22.9 39.7 22.7 39.8L22.7 39.8zM20.9 40.2c0.1-0.2 0.3-0.3 0.5-0.4C21 39.8 20.8 39.9 20.9 40.2zM21.3 40.1c0.3-0.1 0.6-0.2 0.9-0.3C21.9 39.7 21.6 40 21.3 40.1zM20.2 40.2c0.1 0 0.2 0.2 0.3 0.2 0-0.1 0.1-0.3 0-0.4C20.4 40.1 20.3 40.1 20.2 40.2zM23.1 40.5c0.7 0.1 1.3 0.4 1.8 0.7 -0.2-0.8-1-1-1.9-1C23 40.2 23.1 40.3 23.1 40.5zM22.5 40.1c-0.3 0-0.8 0.1-1 0.3 0.4-0.1 0.9 0 1.3 0C22.8 40.2 22.7 40.1 22.5 40.1zM19.6 40.6c0.2-0.1 0.4 0 0.6-0.1C20 40.3 19.7 40.4 19.6 40.6zM21.4 40.7c0.5 0.1 0.9 0.3 1.3 0.5 0.1-0.1 0.2-0.3 0.2-0.5C22.4 40.6 21.8 40.5 21.4 40.7zM22.9 41.3c0.6 0.3 1.1 0.8 1.6 1.2 0.2-0.3 0.4-0.6 0.4-1 -0.5-0.4-1.1-0.6-1.8-0.8C23.1 41 22.9 41.1 22.9 41.3zM18.9 41.3c0.3-0.2 0.6-0.3 0.9-0.5C19.4 40.8 19 40.9 18.9 41.3zM21.9 41.8c0.2-0.2 0.4-0.3 0.5-0.5 -0.4-0.2-0.9-0.4-1.4-0.5C21.4 41.2 21.6 41.5 21.9 41.8zM20.9 42.3c0.3-0.1 0.6-0.2 0.8-0.3 -0.3-0.3-0.6-0.7-0.9-1C20.8 41.4 20.8 41.9 20.9 42.3zM26 42c-0.2-0.4-0.5-0.8-0.8-1.1 0 0.1 0.1 0.2 0 0.4C25.5 41.5 25.7 41.9 26 42zM18.9 42.1c0.2-0.4 0.6-0.7 0.8-1C19.5 41.3 18.5 41.6 18.9 42.1zM19.9 42.4c0.3 0 0.5 0 0.7-0.1 -0.1-0.4-0.1-0.9-0.1-1.3C20.2 41.5 20 41.9 19.9 42.4zM19.1 42.3c0.1 0.1 0.3 0.1 0.5 0.2 0.1-0.4 0.3-0.8 0.5-1.2 0 0 0-0.1 0 0C19.7 41.5 19.4 41.9 19.1 42.3zM22.7 41.5c-0.2 0.2-0.4 0.4-0.6 0.5 0.4 0.6 0.7 1.1 1.1 1.7 0.4-0.3 0.8-0.6 1.1-1C23.8 42.3 23.3 41.8 22.7 41.5zM18.4 41.7c0-0.1 0.1-0.1 0.1-0.2C18.5 41.6 18.4 41.7 18.4 41.7zM24.7 42.7c0.4 0.4 0.8 1 1.1 1.5 0.2-0.4 0.5-0.7 0.5-1.2 -0.1-0.5-0.8-1.1-1.1-1.4C25.1 42.1 24.9 42.4 24.7 42.7zM18.1 44.1c0.1-0.7 0.4-1.2 0.7-1.7 -0.1-0.1-0.1-0.3-0.2-0.3C18.2 42.4 17.5 43.4 18.1 44.1zM21.8 42.2c-0.3 0.1-0.5 0.3-0.9 0.3 0.1 0.7 0.2 1.3 0.4 1.9 0.6-0.1 1.1-0.4 1.6-0.7C22.6 43.3 22.3 42.7 21.8 42.2zM19 42.5c-0.3 0.5-0.6 1.1-0.7 1.8 0.3 0.2 0.6 0.3 1 0.4 0-0.8 0.1-1.4 0.3-2C19.3 42.7 19.2 42.5 19 42.5zM19.8 42.7c-0.1 0.6-0.3 1.3-0.2 2 0.6 0 1.1-0.1 1.5-0.1 -0.2-0.6-0.3-1.3-0.5-1.9C20.4 42.7 20 42.7 19.8 42.7zM24.9 45.1c0.1-0.1 0.6-0.5 0.6-0.7s-0.3-0.6-0.5-0.8c-0.2-0.3-0.4-0.6-0.6-0.7 -0.3 0.4-0.7 0.7-1.2 1 0.3 0.6 0.6 1.2 0.9 1.7C24.4 45.5 24.7 45.4 24.9 45.1zM25.9 44.5c0.1 0.3 0.2 0.7 0.3 1.1 0.3-0.5 0.4-1.4 0.3-2.2C26.3 43.9 26.1 44.2 25.9 44.5zM23 44.1c-0.5 0.3-1.1 0.5-1.6 0.7 0.2 0.6 0.4 1.2 0.6 1.8 0.7-0.2 1.4-0.4 1.9-0.8C23.7 45.2 23.4 44.6 23 44.1zM18 45.5c0-0.4 0-0.8 0-1.1 -0.1-0.1-0.2-0.2-0.3-0.3C17.7 44.7 17.8 45.1 18 45.5zM18.2 44.6c0 0.6 0.1 1.2 0.2 1.7 0.3 0.2 0.7 0.4 1.2 0.5 -0.2-0.6-0.3-1.1-0.3-1.8C18.9 44.9 18.5 44.7 18.2 44.6zM24.3 45.9c0.1 0.4 0.3 0.7 0.4 1.2 0.4-0.2 0.8-0.6 1.2-1 0.1-0.5 0-1-0.2-1.4C25.3 45.2 24.8 45.6 24.3 45.9zM19.5 45c0 0.7 0.2 1.3 0.4 1.9 0.7 0 1.4 0 1.9-0.2 -0.2-0.4-0.3-0.9-0.5-1.4 0-0.1-0.1-0.3-0.2-0.4C20.6 45 20.1 45 19.5 45zM24.1 46.1L24.1 46.1c-0.6 0.3-1.2 0.6-1.9 0.8 0.2 0.4 0.4 0.8 0.6 1.1 0.6-0.2 1.2-0.4 1.7-0.7C24.4 46.8 24.2 46.5 24.1 46.1zM20.4 48.1c-0.2-0.3-0.5-0.6-0.6-1 -0.4 0-0.7-0.2-1-0.3C19.1 47.4 19.7 47.8 20.4 48.1zM22.2 47.5c-0.1-0.1-0.2-0.6-0.3-0.6 -0.5 0.1-1.1 0.2-1.7 0.2 0.1 0.2 0.2 0.5 0.4 0.7 0.1 0.1 0.3 0.3 0.4 0.4 0.5 0.2 1.1-0.1 1.6-0.1C22.4 47.9 22.3 47.7 22.2 47.5zM24.7 47.4c0.1 0-0.1 0.1 0 0.1 0.2-0.2 0.5-0.4 0.6-0.6C25.2 47.2 24.9 47.3 24.7 47.4zM23 48.2c0.2 0.2 0.6 0 0.8-0.1 0.3-0.1 0.5-0.2 0.6-0.3 0-0.1 0.1-0.1 0-0.2C24 47.9 23.5 48 23 48.2zM21.9 48.5c0.3 0 0.7 0 0.9-0.1C22.6 48.2 22.2 48.4 21.9 48.5z"/><path class="st3" d="M25.2 15.6c-1.9 0-4.6-0.9-6.3-0.1 -0.3 0.2-0.6 0.5-0.8 0.7 -0.6-1.5-4.8-1.2-6.2-0.6 -0.3 0-0.7-0.1-0.9 0.1 0 3 0 6 0 9 0.9 0 1.7-0.2 2.5-0.4 0.6-0.1 1.1-0.2 1.7-0.2 0.5 0 1.1-0.1 1.6 0 0.3 0.1 0.4 0.3 0.7 0.5 0.5 0 1 0 1.5 0 0.2-0.2 0.3-0.5 0.6-0.5 0.2 0 1.5 0 1.7 0 1.3 0 2.5 0.3 4.1 0.3C25.2 21.4 25.3 18.5 25.2 15.6zM11.8 16.2c0.1 0 0.1-0.2 0.2-0.3 0.1 0 0.1 0 0.1 0.1 0 1.8 0.1 3.8 0.1 5.7 0 0.6 0.1 1.2-0.3 1.6C11.7 21.1 11.8 18.6 11.8 16.2zM11.9 23.8c0.1-0.3 0.3-0.4 0.4-0.7 1.8-0.2 4.8-0.9 5.4 0.8C16.3 22.9 13.8 23.6 11.9 23.8zM18 19.8c0 1.2 0 2.4 0 3.6 -0.1 0.2-0.2-0.2-0.4-0.3 -1-0.8-3.5-0.6-5.1-0.3 -0.1-2.3-0.1-4.8-0.1-7.3 1.5-0.2 5-0.6 5.6 0.7C18.2 17.1 18 18.8 18 19.8zM18.2 23.5c0-1.8 0-3.6 0-5.5 0-0.6-0.1-1.3 0.1-1.8 0.6-1.4 3.8-0.7 5.2-0.6 0 2.4 0 4.7 0 7.1C21.7 22.5 19 22.3 18.2 23.5zM18.4 23.9c0.6-1.6 3.4-1.1 5.1-0.9 0.1 0.3 0.6 0.6 0.5 0.7C22.2 23.7 19.9 22.9 18.4 23.9zM24.3 23.3c-0.1 0.3-0.4-0.4-0.5-0.5 0-2.3 0-4.6 0-6.9 0.2 0.1 0.3 0.4 0.5 0.5C24.3 18.6 24.3 21 24.3 23.3z"/><path class="st2" d="M31.2 45.7l1.2-1.9h-0.7c-0.4 0-0.7-0.4-0.7-0.8v-4.3c0-0.5 0.3-0.8 0.7-0.8h6.5c0.4 0 0.7 0.4 0.7 0.8v4.3c0 0.4-0.3 0.8-0.7 0.8h-3.5L31.2 45.7zM31.7 38.4c0 0-0.1 0.1-0.1 0.3v4.3c0 0.2 0.1 0.3 0.1 0.3h1.7l-0.6 1 1.9-1h3.6c0 0 0.1-0.1 0.1-0.3v-4.3c0-0.2-0.1-0.3-0.1-0.3H31.7z"/><path class="st2" d="M41.8 42.4l-2.9-2h-1.4c-0.5 0-0.9-0.4-0.9-0.9v-4.5c0-0.5 0.4-0.9 0.9-0.9h3.6c0.5 0 0.9 0.4 0.9 0.9v4.5c0 0.5-0.4 0.9-0.9 0.9h-0.3L41.8 42.4zM37.5 34.7c-0.2 0-0.4 0.2-0.4 0.4v4.5c0 0.2 0.2 0.4 0.4 0.4h1.5l1.4 0.9 -0.5-0.9h1.2c0.2 0 0.4-0.2 0.4-0.4v-4.5c0-0.2-0.2-0.4-0.4-0.4H37.5z"/><path class="st0" d="M36.4 16.2c2.2-0.1 4.3-0.2 6.5-0.3 0.3 0 0.1-0.4 0.5-0.4 0.3-0.1 0.4 0.2 0.5 0.4 1.3 0 2.8-0.3 3.9-0.1 0.1 0.2 0.1 0.4 0 0.6 -0.2 0.1-0.5 0.2-0.8 0.2 -0.1 0.1 0 0.4 0 0.6 0 0.3-0.4 0.1-0.4 0.4s0.4 0.2 0.5 0.4c0 0.3 0.1 0.8 0 1 -0.4 0-0.7 0-1.1 0 0-0.4 0-0.8-0.1-1.1 -0.1 0-0.2-0.1-0.4 0 -0.4 0.1 0 0.9-0.2 1.2 -0.2 0-0.5 0-0.7 0 0-0.6-0.1-1.2 0.2-1.5 0-0.4-0.4-0.3-0.3-0.9 -0.5-0.1-0.5 0.3-0.9 0.4 -0.3 0.1-0.4-0.2-0.5-0.3 -2.2 0.1-4.3 0.2-6.5 0.3 -0.1 1-0.4 1.9-1.3 2 -1 0.1-1.6-0.7-1.7-1.8 -0.1-0.2-0.4-0.1-0.3-0.4 -0.1-0.3 0.2-0.4 0.3-0.6 0-0.6 0.1-1 0.3-1.4C34.6 13.5 36.7 14.5 36.4 16.2zM35.9 16.1c0-1.7-2-1.6-1.9 0.1 0.1 0.2 0.3 0.3 0.3 0.6 -0.6 0.6 0.1 1.8 0.9 1.7 0.5-0.1 0.7-0.6 0.8-1.3 0-0.3-0.3-0.2-0.3-0.6C35.7 16.4 35.9 16.3 35.9 16.1z"/><path class="st0" d="M56.5 31.1c0 2.4-5.9 3.7-5.9 0 0-4.8 2-3.9 2-3.9S56.5 28.6 56.5 31.1z"/><path class="st2" d="M53.1 33.7c-0.8 0-1.4-0.2-1.9-0.6 -0.6-0.5-0.9-1.1-0.9-2 0-2.2 0.4-3.5 1.2-4 0.6-0.4 1.2-0.1 1.2-0.1 0.2 0.1 4.1 1.6 4.1 4.1C56.8 32.6 54.8 33.7 53.1 33.7zM52.2 27.4c-0.1 0-0.3 0-0.4 0.1 -0.4 0.2-0.9 1-0.9 3.6 0 0.7 0.2 1.2 0.7 1.6 0.4 0.3 0.9 0.5 1.6 0.5 1.5 0 3.2-0.9 3.2-2.1 0-2.2-3.7-3.6-3.7-3.7C52.5 27.4 52.4 27.4 52.2 27.4z"/><path class="st0" d="M53.8 31.4v-3.1h-3.2c0 0-0.1 3.8 0 3.2C50.6 30.8 53.6 29.7 53.8 31.4z"/><path class="st2" d="M50.6 31.8L50.6 31.8c-0.1 0-0.2 0-0.3-0.3l0 0 0 0c0-0.4 0-1.3 0-3.2v-0.3h3.7v3.4h-0.5c0-0.3-0.1-0.6-0.7-0.7 -0.8-0.1-1.8 0.4-1.9 0.7S50.7 31.8 50.6 31.8zM50.9 28.5c0 0.7 0 1.6 0 2.2 0.5-0.3 1.2-0.5 1.7-0.5 0.4 0 0.7 0.1 0.9 0.2v-1.9H50.9z"/><path class="st0" d="M1.8 30.3c0-2.4 5.9-3.7 5.9 0 0 4.8-2 3.9-2 3.9S1.8 32.7 1.8 30.3z"/><path class="st2" d="M6.1 34.6c-0.3 0-0.5-0.1-0.5-0.1 -0.2-0.1-4.1-1.6-4.1-4.1 0-1.5 2-2.6 3.7-2.6 0.8 0 1.4 0.2 1.9 0.6 0.6 0.5 0.9 1.1 0.9 2 0 2.2-0.4 3.5-1.2 4C6.6 34.5 6.3 34.6 6.1 34.6zM5.3 28.3c-1.5 0-3.2 0.8-3.2 2 0 2.2 3.7 3.6 3.7 3.7 0 0 0.4 0.2 0.7-0.1 0.4-0.2 0.9-1 0.9-3.6 0-0.7-0.2-1.2-0.7-1.6C6.5 28.4 5.9 28.3 5.3 28.3z"/><path class="st0" d="M4.6 30v3.2h3.2c0 0 0.1-3.8 0-3.2S4.8 31.7 4.6 30z"/><path class="st2" d="M8.1 33.4h-3.7v-3.4h0.5c0 0.3 0.1 0.6 0.7 0.7 0.8 0.1 1.8-0.4 1.9-0.7 0-0.3 0.2-0.3 0.3-0.3 0.1 0 0.2 0 0.2 0.3l0 0 0 0c0 0.4 0 1.3 0 3.2L8.1 33.4zM4.9 32.9h2.6c0-0.7 0-1.6 0-2.2 -0.5 0.3-1.2 0.5-1.7 0.5 -0.4 0-0.7-0.1-0.9-0.2V32.9z"/><path class="st0" d="M1.9 30.4c0 0 5.1 6.8 26.6-3.2 18.8-8.7 28-3.6 28-1.8 0 0.9 0 7.2 0 5.6 0-1.6-7.1-4.5-17.2-0.5 -13.2 5.2-22.4 9.3-28.9 8.9 -4.1-0.3-8.7-1.4-8.7-2.9C1.7 34.9 1.9 30.4 1.9 30.4z"/><path class="st2" d="M11.3 39.6c-0.3 0-0.6 0-0.9 0 -3.5-0.2-9-1.3-9-3.2 0-1.5 0.2-6 0.2-6.1v-0.8l0.5 0.6c0.1 0.1 5.3 6.5 26.3-3.3 18-8.4 26.2-3.7 27.1-3.2 0.8 0.5 1.3 1.1 1.3 1.6v5.8h-0.5v-0.3c0-0.2-0.3-0.5-0.7-0.8 -2.2-1.5-8.3-2.6-16.1 0.6 -1.4 0.6-2.8 1.1-4.2 1.7C24.8 36.5 17.1 39.6 11.3 39.6zM2.1 31c0 1.3-0.1 4.3-0.1 5.4s4 2.3 8.5 2.6c5.6 0.4 13.6-2.8 24.6-7.1 1.3-0.5 2.7-1.1 4.2-1.7 8.1-3.2 14.4-2 16.6-0.5 0.1 0.1 0.3 0.2 0.4 0.3v-4.6c0-0.2-0.3-0.7-1.1-1.2 -0.8-0.5-8.8-5-26.5 3.2C10.3 35.9 3.8 32.4 2.1 31z"/><path class="st2" d="M14.4 34.5c-0.1-0.1-0.3-0.2-0.5-0.2s-0.5 0.3-0.4 0.5c0 0.2 0.3 0.3 0.5 0.4h0.2c0.5 0.1 0.8 0.3 0.9 0.8 0.1 0.6-0.3 1-0.8 1.1s-0.9-0.2-1.1-0.7l0.4-0.2c0.1 0.3 0.4 0.5 0.7 0.5 0.3-0.1 0.5-0.4 0.5-0.7 -0.1-0.3-0.3-0.4-0.6-0.5l-0.2-0.1c-0.4-0.1-0.7-0.2-0.8-0.7 -0.1-0.5 0.3-0.9 0.8-1 0.3-0.1 0.6 0.1 0.9 0.3L14.4 34.5z"/><path class="st2" d="M15.6 34c0 0.1-0.1 0.3-0.2 0.3s-0.3 0-0.3-0.2c0-0.1 0.1-0.3 0.2-0.3C15.4 33.7 15.6 33.8 15.6 34zM16.2 36.7l-0.4 0.1 -0.4-1.9 0.4-0.1L16.2 36.7z"/><path class="st2" d="M16.7 34.9L16.7 34.9c0.1-0.2 0.2-0.4 0.4-0.4 0.2-0.1 0.5 0 0.6 0.2 0.1-0.2 0.2-0.4 0.5-0.5 0.5-0.1 0.7 0.2 0.8 0.6l0.3 1.1 -0.4 0.1 -0.3-1c-0.1-0.2-0.2-0.5-0.5-0.4 -0.4 0.1-0.3 0.5-0.2 0.8l0.3 0.9 -0.4 0.1 -0.3-1c-0.1-0.2-0.2-0.6-0.5-0.5 -0.4 0.1-0.3 0.5-0.2 0.8l0.3 0.9 -0.4 0.1 -0.5-1.8 0.4-0.1L16.7 34.9z"/><path class="st2" d="M19.8 34L19.8 34c0.1-0.3 0.2-0.5 0.5-0.6 0.5-0.2 1 0.2 1.2 0.7s0 1.1-0.5 1.3c-0.3 0.1-0.5 0-0.7-0.1l0 0 0.5 1.3 -0.3 0.1 -1-2.9 0.3-0.1V34zM21.1 34.2c-0.1-0.4-0.4-0.6-0.8-0.4 -0.4 0.1-0.5 0.5-0.3 0.9 0.1 0.3 0.4 0.6 0.8 0.5C21.1 34.9 21.2 34.6 21.1 34.2z"/><path class="st2" d="M22.5 34.7l-0.4 0.1 -1.3-3.3 0.3-0.1L22.5 34.7z"/><path class="st2" d="M22 32.9l0.4-0.2 1.1 0.9 0.1-1.4 0.4-0.2 -0.3 3.4 -0.4 0.2 0.2-1.6L22 32.9z"/><path class="st2" d="M25 32.4c0-0.1 0-0.2 0-0.3 0-0.2 0.1-0.3 0.1-0.4 0.1-0.1 0.1-0.2 0.2-0.2 0.1-0.1 0.2-0.1 0.2-0.1 0.1-0.1 0.2-0.1 0.3-0.1s0.2 0 0.2 0c0.1 0 0.2 0 0.3 0.1 0.1 0 0.1 0.1 0.2 0.1 0.1 0.1 0.1 0.1 0.2 0.3l-0.2 0.1c-0.1 0-0.2 0.1-0.4 0.2 -0.1 0-0.1 0-0.2 0.1 0 0-0.1 0-0.2 0.1l-0.2 0.1c0 0 0 0 0 0.1s0.1 0.2 0.1 0.2c0.1 0.1 0.1 0.1 0.2 0.2 0.1 0 0.1 0.1 0.2 0.1 0.1 0 0.1 0 0.2 0h0.1c0.1 0 0.2-0.1 0.2-0.1 0.1 0 0.1-0.1 0.2-0.1 0 0 0.1-0.1 0.1-0.2 0.1 0 0.1 0 0.2 0 -0.1 0.2-0.2 0.3-0.3 0.5 -0.1 0.1-0.2 0.2-0.4 0.3 -0.1 0-0.2 0.1-0.3 0.1s-0.2 0-0.3 0 -0.2-0.1-0.3-0.1c-0.1-0.1-0.2-0.1-0.2-0.2 -0.1-0.1-0.1-0.2-0.2-0.2C25.1 32.6 25 32.5 25 32.4zM26.2 31.7c0-0.1-0.1-0.1-0.1-0.2 -0.1-0.1-0.1-0.1-0.2-0.1 -0.1 0-0.2 0-0.2 0 -0.1 0-0.2 0.1-0.2 0.2 0 0.1 0 0.2 0 0.4l0.5-0.2c0 0 0.1 0 0.1-0.1C26.1 31.8 26.1 31.8 26.2 31.7 26.2 31.8 26.2 31.8 26.2 31.7z"/><path class="st2" d="M27.3 32.6c0.1-0.1 0.1-0.1 0.1-0.2 0 0 0-0.1 0.1-0.1 0 0 0-0.1 0.1-0.2l0.2-0.6 0 0c0 0-0.1 0-0.4-0.1l0 0c-0.1 0-0.2-0.1-0.2-0.1h-0.1c-0.1-0.1-0.2-0.1-0.3-0.1h-0.1c0 0 0 0-0.1 0 0 0 0 0 0-0.1v-0.1l0 0c0 0 0 0 0.1 0h0.1l0 0h0.1c0.1 0 0.2-0.1 0.4-0.2l0.2-0.1c0 0 0 0 0 0.1 0 0 0 0 0 0.1 -0.1 0-0.1 0.1-0.1 0.1l0 0 0 0 0.5 0.2 0.1-0.5v-0.1l0 0c0 0-0.1 0-0.2 0v-0.1l0 0 0 0c0 0 0.1 0 0.1-0.1 0.1 0 0.2-0.1 0.2-0.1s0 0 0.1 0c0 0 0.1 0 0.1-0.1l0 0h0.1l0 0v0.1c0 0 0 0-0.1 0.1s-0.1 0.1-0.2 0.2c0 0 0 0.1-0.1 0.2 -0.1 0.2-0.1 0.4-0.2 0.5l0.6 0.3c0.2 0.1 0.4 0.2 0.4 0.2s0.1 0 0.2 0c0 0 0 0 0 0.1v0.1h-0.1c-0.2 0.1-0.3 0.1-0.4 0.2 0 0 0 0-0.1 0h-0.1c-0.1 0.1-0.2 0.1-0.2 0.1l0 0c0 0 0 0 0-0.1l0 0 0.1-0.1c0 0 0 0 0.1-0.1 0 0 0 0-0.1-0.1 0 0-0.1 0-0.1-0.1 0 0-0.1 0-0.2-0.1 -0.1 0-0.1 0-0.2-0.1 -0.1 0.2-0.2 0.4-0.2 0.5s0 0.1 0 0.1 0 0 0.1 0.1h0.1 0.1l0 0 0 0c0 0 0 0 0 0.1h-0.1c-0.1 0-0.1 0-0.2 0.1 -0.1 0-0.2 0.1-0.3 0.2C27.5 32.6 27.4 32.7 27.3 32.6 27.4 32.6 27.4 32.6 27.3 32.6L27.3 32.6z"/><path class="st2" d="M31 30.4L31 30.4c0.1 0 0.1 0 0.2 0 0 0.2 0 0.3-0.1 0.5s-0.3 0.3-0.5 0.4c-0.1 0.1-0.3 0.1-0.5 0.1s-0.3 0-0.4-0.1c-0.1 0-0.2-0.1-0.3-0.2 -0.1-0.1-0.1-0.2-0.2-0.3 0-0.1-0.1-0.2-0.1-0.3s0-0.3 0.1-0.4c0-0.1 0.1-0.3 0.2-0.4 0.1-0.1 0.3-0.2 0.4-0.3 0.2-0.1 0.4-0.1 0.6-0.1 0.1 0 0.2 0.1 0.2 0.2 0 0.1 0 0.1 0 0.2 0 0.1-0.1 0.1-0.1 0.1 -0.1 0-0.1 0-0.2 0 -0.1 0-0.1-0.1-0.2-0.1 -0.1-0.1-0.1-0.1-0.2-0.1 -0.1 0-0.1 0-0.2 0 -0.1 0.1-0.2 0.2-0.3 0.3 -0.1 0.2 0 0.3 0 0.5 0.1 0.2 0.3 0.4 0.4 0.5 0.2 0.1 0.4 0.1 0.5 0 0.1 0 0.1-0.1 0.2-0.1l0.1-0.1v-0.1C31 30.5 31 30.4 31 30.4z"/><path class="st2" d="M31.2 29.6c0-0.1 0-0.2 0-0.3s0.1-0.3 0.1-0.4c0.1-0.1 0.1-0.2 0.2-0.2 0.1-0.1 0.2-0.1 0.2-0.1 0.1-0.1 0.2-0.1 0.3-0.1s0.2 0 0.2 0c0.1 0 0.2 0.1 0.3 0.1s0.1 0.1 0.2 0.2c0.1 0.1 0.1 0.2 0.2 0.3l-0.2 0.1c-0.1 0-0.2 0.1-0.4 0.2 -0.2-0.1-0.2-0.1-0.2-0.1s-0.1 0-0.2 0.1l-0.2 0.1c0 0 0 0 0 0.1s0.1 0.2 0.1 0.2c0.1 0.1 0.1 0.1 0.2 0.2 0.1 0 0.1 0.1 0.2 0.1 0.1 0 0.1 0 0.2 0h0.1c0.1 0 0.2-0.1 0.2-0.1 0.1 0 0.1-0.1 0.2-0.1 0 0 0.1-0.1 0.1-0.2 0.1 0 0.1 0 0.2 0 -0.1 0.2-0.2 0.3-0.3 0.5 -0.1 0.1-0.2 0.2-0.4 0.3 -0.1 0-0.2 0.1-0.3 0.1s-0.2 0-0.3 0 -0.2-0.1-0.3-0.1c-0.1-0.1-0.2-0.1-0.2-0.2 -0.1-0.1-0.1-0.2-0.2-0.2C31.2 29.9 31.2 29.7 31.2 29.6zM32.4 29c0-0.1-0.1-0.2-0.1-0.2 -0.1-0.1-0.1-0.1-0.2-0.1 -0.1 0-0.2 0-0.2 0 -0.1 0-0.2 0.1-0.2 0.2 0 0.1 0 0.2 0 0.4l0.5-0.2c0 0 0.1 0 0.1-0.1C32.3 29.1 32.3 29.1 32.4 29 32.3 29.1 32.3 29.1 32.4 29z"/><path class="st2" d="M33.9 31.1L33.9 31.1c0-0.1 0-0.1 0-0.2l0.1-0.1c0.1-0.1 0.1-0.1 0.1-0.1 0-0.1 0-0.1-0.1-0.2l-0.3-0.9 -0.4-1.1c0-0.1-0.1-0.1-0.1-0.1s-0.1 0-0.3 0v-0.1c0.1-0.1 0.2-0.2 0.3-0.2 0.1-0.1 0.1-0.1 0.2-0.3h0.1v0.1l0.1 0.2c0 0 0 0 0 0.1 0.1-0.1 0.2-0.2 0.3-0.3 0.1-0.1 0.2-0.1 0.4-0.2 0.1-0.1 0.3-0.1 0.4 0l0 0c0.1 0 0.2 0.1 0.2 0.1 0.1 0.1 0.2 0.2 0.3 0.2 0.1 0.1 0.1 0.2 0.1 0.3 0.1 0.2 0.1 0.3 0.1 0.4 0 0.1 0 0.2-0.1 0.4 -0.1 0.1-0.1 0.3-0.2 0.3 -0.1 0.1-0.2 0.1-0.3 0.2 -0.1 0-0.2 0.1-0.3 0.1s-0.2 0-0.3 0c0 0 0 0 0 0.1v0.1c0 0 0 0 0 0.1 0 0 0 0.1 0.1 0.2l0.2 0.4c0 0 0 0 0 0.1l0 0c0 0.1 0 0.1 0.1 0.1 0 0 0 0 0.1 0l0 0h0.1 0.1c0 0 0 0 0 0.1 0 0 0 0 0 0.1l0 0c-0.1 0-0.1 0.1-0.2 0.1l-0.3 0.1h-0.1 -0.1 -0.1 -0.1c0 0-0.1 0-0.1 0.1C33.9 31.1 33.9 31.1 33.9 31.1L33.9 31.1zM34.1 29.3L34.1 29.3c0.1 0.1 0.1 0.1 0.1 0.2 0.1 0 0.1 0.1 0.2 0 0.1 0 0.2 0 0.2 0 0.1 0 0.1-0.1 0.2-0.1 0.1-0.1 0.1-0.1 0.1-0.2l0 0c0 0 0 0 0-0.1s0-0.3 0-0.4c-0.1-0.2-0.2-0.4-0.4-0.5 -0.1-0.1-0.3-0.1-0.5 0 -0.1 0-0.2 0.1-0.3 0.2 0 0.1 0.1 0.2 0.2 0.5L34.1 29.3C34.1 29.2 34.1 29.2 34.1 29.3z"/><path class="st2" d="M35.5 27.4c0.1-0.1 0.3-0.2 0.3-0.3 0.1-0.1 0.1-0.2 0.1-0.4h0.1c0 0 0 0.1 0.1 0.1 0 0.1 0 0.1 0.1 0.2v0.1c0 0 0 0 0 0.1h0.1c0 0 0.1 0 0.2-0.1 0 0 0.1 0 0.2-0.1v0.1 0.1h-0.1c0 0 0 0-0.1 0h-0.1l0 0h-0.1l0.3 0.8c0.1 0.2 0.1 0.3 0.1 0.3l0.1 0.1h0.1 0.1c0 0 0 0 0.1-0.1l0 0c0 0 0.1 0 0.1 0.1l0 0c0 0.1-0.1 0.2-0.2 0.3 -0.1 0.1-0.2 0.1-0.3 0.2 -0.1 0-0.3 0-0.4 0 -0.1-0.1-0.2-0.2-0.3-0.4l-0.1-0.4 -0.2-0.6h-0.1l-0.2 0.1 0 0C35.5 27.6 35.5 27.6 35.5 27.4 35.5 27.5 35.5 27.5 35.5 27.4z"/><path class="st2" d="M36.9 25.9c0-0.1 0-0.2 0-0.2 0-0.1 0.1-0.1 0.2-0.1 0.1 0 0.2 0 0.2 0 0.1 0 0.1 0.1 0.1 0.2s0 0.1 0 0.2 0 0.1-0.1 0.2l-0.1 0.1c-0.1 0-0.1 0-0.2 0C37 26.1 36.9 26 36.9 25.9zM37.4 28.7v-0.1l0.2-0.1c0 0 0.1 0 0.1-0.1v-0.1l0 0v-0.1 -0.1c0 0 0-0.1-0.1-0.2v-0.1 -0.1l-0.1-0.4c0 0 0-0.1-0.1-0.1h-0.1c0 0-0.1 0-0.2 0v-0.1c0.2-0.1 0.3-0.1 0.4-0.2 0.1-0.1 0.1-0.1 0.2-0.3h0.1c0.1 0.2 0.1 0.4 0.2 0.7l0.2 0.9c0 0.1 0 0.1 0.1 0.2 0.1 0 0.1 0 0.2 0h0.1v0.1h-0.1 -0.1c-0.2 0-0.4 0.1-0.6 0.2 -0.1 0-0.1 0-0.2 0.1C37.5 28.7 37.4 28.7 37.4 28.7z"/><path class="st2" d="M40.1 26.2c0.1 0.1 0.2 0.2 0.3 0.3 0.1 0.1 0.1 0.2 0.2 0.3 0.1 0.2 0.1 0.4 0 0.5 0 0.2-0.1 0.4-0.3 0.5 -0.1 0.1-0.3 0.2-0.5 0.3 -0.2 0.1-0.4 0.1-0.6 0 -0.2-0.1-0.3-0.2-0.4-0.3 -0.1-0.1-0.2-0.3-0.2-0.5 0-0.1 0-0.2 0-0.3 0-0.1 0-0.2 0.1-0.3 0-0.1 0.1-0.2 0.1-0.2 0.1-0.1 0.2-0.2 0.3-0.2 0.1-0.1 0.2-0.1 0.4-0.1C39.6 26 39.9 26.1 40.1 26.2zM39.1 27.3c0.1 0.2 0.1 0.3 0.1 0.3 0 0.1 0.1 0.2 0.2 0.2 0 0 0.1 0.1 0.2 0.1 0.1 0 0.2 0 0.2 0 0.1 0 0.2-0.1 0.3-0.2s0.1-0.2 0.1-0.4c0-0.1 0-0.3-0.1-0.5 -0.1-0.3-0.2-0.5-0.3-0.5 -0.1-0.1-0.3-0.1-0.4-0.1 -0.1 0-0.2 0.1-0.3 0.2s-0.1 0.2-0.1 0.3C39 26.8 39 27 39.1 27.3z"/><path class="st2" d="M41 27.6c0 0 0.1 0 0.1-0.1 0.1 0 0.1 0 0.1-0.1 0 0 0 0 0-0.1 0 0 0-0.1 0-0.2v-0.2 -0.2l-0.1-0.1v-0.1c0-0.1 0-0.2-0.1-0.2 0 0 0 0-0.1-0.1 0 0-0.1 0-0.2 0v-0.1c0 0 0 0 0.1 0 0 0 0.1 0 0.2-0.1 0.1 0 0.1-0.1 0.2-0.1l0 0c0 0 0 0 0.1-0.1 0 0 0.1-0.1 0.1-0.2h0.1v0.3c0 0 0 0 0 0.1 0 0 0 0 0 0.1 0.1-0.1 0.2-0.2 0.3-0.3 0.1-0.1 0.2-0.1 0.4-0.2 0.1 0 0.3 0 0.4 0 0.1 0.1 0.2 0.1 0.3 0.2s0.1 0.3 0.2 0.6l0.1 0.7v0.1h0.1 0.1c0 0 0 0 0 0.1 0 0 0 0 0 0.1l-0.4-0.1h-0.1 -0.1l-0.3 0.1h-0.1l0 0v-0.1c0 0 0.1 0 0.2-0.1 0 0 0 0 0.1 0l0 0c0 0 0-0.1 0-0.2s0-0.2-0.1-0.3v-0.3c-0.1-0.3-0.1-0.5-0.2-0.6 -0.1-0.1-0.2-0.1-0.3-0.1s-0.2 0.1-0.3 0.1c-0.1 0.1-0.2 0.1-0.2 0.2l0 0v0.1 0.2l0.1 0.4v0.1c0 0.2 0.1 0.4 0.1 0.4s0.1 0 0.2 0.1c0 0 0 0 0 0.1 0 0 0 0 0 0.1h-0.1c0 0-0.1 0-0.2 0h-0.2C41.4 27.5 41.2 27.6 41 27.6 41 27.7 41 27.7 41 27.6 41 27.7 41 27.6 41 27.6z"/><path class="st2" d="M45.5 26.6L45.5 26.6C45.6 26.6 45.6 26.7 45.5 26.6L45.5 26.6c0.1 0.2 0 0.3 0 0.4 -0.1 0.1-0.1 0.1-0.2 0.1 -0.1 0-0.2 0-0.2 0 -0.1 0-0.1-0.1-0.2-0.2 -0.1 0.1-0.1 0.2-0.2 0.3 -0.1 0.1-0.3 0.1-0.4 0.1 -0.2 0-0.3 0-0.4-0.1 -0.1-0.1-0.1-0.1-0.1-0.3 0-0.1 0-0.1 0-0.2s0-0.1 0.1-0.2c0-0.1 0.1-0.1 0.2-0.2 0 0 0.1 0 0.2-0.1l0.5-0.3c0-0.1 0-0.1 0-0.2 0-0.2-0.1-0.3-0.1-0.4 0 0-0.1-0.1-0.2-0.1 -0.1 0-0.1 0-0.2 0.1 -0.1 0-0.1 0.1-0.1 0.1s0 0.1 0 0.2 0 0.1 0 0.1l-0.1 0.1c-0.1 0-0.1 0.1-0.1 0.1 -0.1 0-0.1 0.1-0.2 0.1 0 0 0 0 0-0.1s0-0.2 0-0.2c0-0.1 0.1-0.2 0.2-0.3 0.1-0.1 0.2-0.2 0.3-0.2 0.1-0.1 0.3-0.1 0.5-0.1 0.1 0 0.2 0 0.3 0s0.2 0.1 0.2 0.2 0.1 0.2 0.1 0.5v0.4 0.3 0.1c0 0.1 0 0.1 0 0.1s0 0 0.1 0l0 0L45.5 26.6 45.5 26.6zM44.7 26.1c-0.1 0-0.2 0.1-0.3 0.2s-0.2 0.2-0.2 0.2c0 0.1 0 0.1 0 0.2s0 0.1 0.1 0.2c0 0 0.1 0.1 0.1 0 0.1 0 0.2 0 0.2-0.1 0.1-0.1 0.1-0.1 0.1-0.2 0 0 0-0.2 0-0.3C44.7 26.3 44.7 26.2 44.7 26.1z"/><path class="st2" d="M45.7 26.9c0 0 0.1 0 0.1-0.1 0.1 0 0.2 0 0.2-0.1 0 0 0-0.1 0-0.2v-0.7 -0.2 -0.5 -0.5 -0.1c0-0.1 0-0.2 0-0.3 -0.1 0-0.1 0-0.2 0h-0.1v-0.1l0 0c0.1 0 0.2-0.1 0.4-0.1 0.1-0.1 0.2-0.1 0.3-0.2h0.1c0 0 0 0 0.1 0 0 0.5 0.1 0.9 0.1 1.1 0 0.1 0 0.1 0 0.1l0 0 0 0v1 0.3 0.1c0 0.1 0 0.1 0 0.1h0.1c0 0 0.1 0 0.2 0v0.1c0 0 0 0 0 0.1h-0.2c-0.1 0-0.2 0-0.4 0h-0.1c-0.1 0-0.2 0-0.4 0h-0.2L45.7 26.9z"/></svg>